<?xml version="1.0" encoding="utf-8"?>
<!-- Generator: Adobe Illustrator 21.0.0, SVG Export Plug-In . SVG Version: 6.00 Build 0)  -->
<svg version="1.1" id="레이어_1" xmlns="http://www.w3.org/2000/svg" xmlns:xlink="http://www.w3.org/1999/xlink" x="0px"
	 y="0px" width="100px" height="100px" viewBox="0 0 100 100" enable-background="new 0 0 100 100" xml:space="preserve">
<g>
	<g>
		<path fill="#313333" d="M42.1,75.3c-11.9-3.2-20.6-13.5-20.6-25.8c0-11.6,7.5-21.6,18.4-25.4l1.3-3.6H6.5c-2.8,0-5,2.3-5,5v49
			c0,2.8,2.3,5,5,5h34.1L42.1,75.3z"/>
		<path fill="#313333" d="M93.5,20.5h-41l-0.7,2.1c14.7,1.1,26.7,12.9,26.7,27c0,14.2-11.7,25.8-26.6,26.7l-1.1,3.2h42.7
			c2.8,0,5-2.3,5-5v-49C98.5,22.7,96.3,20.5,93.5,20.5z"/>
	</g>
	<g>
		<path fill="#313333" d="M42.8,79.5c3.5-9.8,6.8-19.2,10.1-28.5c1.2-3.4,2.5-6.8,3.7-10.2c0.5-1.3,1-2.1,2.6-2
			c3.2,0.1,6.4-0.1,9.6-0.1c2.2,0,3.6,1.8,2.9,3.9c-1.8,5.7-3.7,11.4-5.9,16.9c-0.5,1.2-2.3,2.1-3.7,2.4c-1.6,0.4-3.4,0.2-5.2,0.1
			c-1.6-0.1-2.5,0.3-3.1,2c-1.4,4.5-5.4,15.3-5.4,15.3S44.3,79.5,42.8,79.5z M56.8,58.4c2.1,0.8,3.3,0.3,3.8-1.6
			c0.3-1.1,0.7-2.1,1.1-3.1c1.3-3.7,2.6-7.4,3.9-11c-2.2-1.1-3-0.8-3.7,1.1c-0.7,1.9-1.3,3.8-2,5.7C58.9,52.4,57.9,55.3,56.8,58.4z"
			/>
		<path fill="#313333" d="M49.7,20.5c-2.3,6.2-4.5,12.1-6.8,18.2c1.9,0,3.4-0.2,4.8,0c2.5,0.3,3.4,1.5,2.7,3.9
			c-1.2,4.2-2.7,8.3-4.1,12.4c-0.2,0.7-0.5,1.4-0.8,2.1c-1.5,4-1.5,4-6.2,3.4c1.4-4.3,2.9-8.6,4.3-12.8c0.4-1.1,0.8-2.1,1.1-3.1
			c0.2-0.9,1.4-2-0.3-2.6c-1.4-0.4-2.6-0.1-3.2,1.5c-0.9,2.5-1.9,4.9-2.9,7.4c-1,2.6-2.2,5.1-2.9,7.8c-0.5,1.8-1.4,2.3-3.1,2.1
			c-0.7-0.1-1.5,0-2.5,0c1.6-4.4,3.1-8.5,4.5-12.5c3.1-8.5,10.3-27.8,10.3-27.8S48.5,20.5,49.7,20.5z"/>
	</g>
</g>
</svg>
