<?xml version="1.0" encoding="utf-8"?>
<!-- Generator: Adobe Illustrator 21.0.0, SVG Export Plug-In . SVG Version: 6.00 Build 0)  -->
<svg version="1.1" id="레이어_1" xmlns="http://www.w3.org/2000/svg" xmlns:xlink="http://www.w3.org/1999/xlink" x="0px"
	 y="0px" width="100px" height="100px" viewBox="0 0 100 100" enable-background="new 0 0 100 100" xml:space="preserve">
<path fill-rule="evenodd" clip-rule="evenodd" fill="#313333" d="M81.9,65.9c-1.2,4.9-7.3,15.3-10.5,19.8c-3.2,4.6-2.8,8.7-8.8,7.1
	c-5.9-1.6-7.6-1.3-13.8-1c-6.1,0.4-4.8-0.2-8.6,1.6c-3.8,1.7-16.6-20.9-17.6-25.1c-1-4.2-1.5-3.7,1.1-8.3c2.7-4.6,3-9.1,6.5-14.6
	c3.5-5.5,7.6-8.4,7.3-12.6c-1.1-15.7-2.1-23.6,4.9-27.2c6.6-3.4,12.2-1.4,14.4-0.2c0.9,0.5,2.9,1.5,4.3,3.2c1.4,1.7,2.7,4.2,3.5,7.5
	c1.5,6.5-0.6,4.3,1.1,11.8c1.7,7.4,5.1,11,9.2,16.9C79,50.6,83.3,60.3,81.9,65.9L81.9,65.9L81.9,65.9z"/>
<path fill-rule="evenodd" clip-rule="evenodd" fill="#FFFFFF" d="M68.1,63.7c0-3.8-0.4-7.6-1.3-10.5c-0.1-0.3-0.2-0.6-0.3-0.9
	c0-0.1,0-0.1-0.1-0.2c-0.8-2.1-1.8-3.8-2.8-5.9c-2.2-4.8-2.1-6.9-4-10c-2.2-3.5-1.1-5.9-4.1-5.7c-3.7,0.2-6.6,5.2-10.1,5.4
	c-2.3,0.1-6.1-6.5-6.2-3.8c-0.1,2.3,0.1,2.3,0.1,4.5c0,1.5-0.7,1.6-2.2,3.9c-0.8,1.2-1.4,2.5-1.8,3.8c-0.3,0.8-0.6,1.6-0.8,2.4
	c-0.1,0.4-0.2,0.8-0.3,1.2c-0.7,2.7-3.4,6.1-4,8.9c-0.6,2.7-1.4,4.5-1.3,8.1c0.1,3.7,0.1,2.6,1.2,3.5c1.1,0.9,2.2,1.8,3.9,3.3
	c1.8,1.6,5.6,4.4,6.1,5.2c0.5,0.9,0.5,2.8,0.2,3.5c-0.3,0.6-3.2,1-3.2,1c0,0,2.5,3.5,3,3.9c0.5,0.5,2.5,2.8,10.8,1.2
	c1.8-0.3,3.4-0.9,4.8-1.6c0.4-0.2,0.8-0.4,1.2-0.6c0.1-0.1,0.3-0.2,0.4-0.2c0.8-0.4,1.6-0.9,2.2-1.4c0,0,0,0,0,0
	c0.2-0.2,0.4-0.4,0.6-0.6c0,0,0,0,0,0c0.6-0.5,1.1-1,1.6-1.4c3.4-3.3,1.7-4.2,2.1-5.9c0.6-2.4,2.7-3.3,3.2-6c0-0.4,0.2-0.7,0.5-1.2
	C68.2,66.8,68.1,65.2,68.1,63.7z"/>
<path fill-rule="evenodd" clip-rule="evenodd" fill="#FFFFFF" d="M43.8,18.2c-0.8-1.1-2.1-1.2-2.9-1c-0.5,0.1-1.1,0.7-1.5,1.6
	c-0.3,0.6-0.5,1.4-0.5,2.2c0,2.2,0.1,3,0.6,4.4c0.6,1.7,2,2.6,3,2.2c1.1-0.4,0.9-0.5,1.6-2.1c0.6-1.2,1.1-1.7,1.1-3.6
	C45.2,19.9,44.7,19.3,43.8,18.2z"/>
<path fill-rule="evenodd" clip-rule="evenodd" fill="#313333" d="M41.5,20c0.5,0,1.2,0.4,1.6,0.9c0.3,0.5,0.6,1.2,0.6,2
	c0,1.2-0.1,2.5-0.8,2.8c-0.2,0.1-0.7,0.2-1,0.2c-0.6,0-0.7-0.4-1.2-1c-0.2-0.2-0.8-1.3-0.8-2.1c0-0.6-0.1-1.3,0.3-2
	C40.5,20.3,40.9,20,41.5,20L41.5,20L41.5,20z"/>
<path fill-rule="evenodd" clip-rule="evenodd" fill="#1D1917" d="M41.4,21c0.2-0.3,1.1-0.2,1.4,0.5c0.3,0.7,0.3,2.1,0,2.2
	c-0.6,0.2-0.4-0.6-0.9-1.4C41.4,21.7,41.1,21.3,41.4,21L41.4,21L41.4,21z"/>
<path fill-rule="evenodd" clip-rule="evenodd" fill="#14130F" d="M41.4,21c0.2-0.3,1.1-0.2,1.4,0.5c0.3,0.7,0.2,2.1,0,2.2
	c-0.5,0.2-0.4-0.6-0.9-1.4C41.4,21.7,41.2,21.4,41.4,21L41.4,21L41.4,21z"/>
<path fill-rule="evenodd" clip-rule="evenodd" fill="#181814" d="M41.4,21c0.2-0.3,1-0.2,1.3,0.5c0.3,0.7,0.2,2.1,0,2.2
	c-0.5,0.1-0.4-0.6-0.8-1.4C41.4,21.7,41.2,21.4,41.4,21L41.4,21L41.4,21z"/>
<path fill-rule="evenodd" clip-rule="evenodd" fill="#20201D" d="M41.4,21.1c0.2-0.3,1-0.2,1.3,0.5c0.3,0.7,0.2,2.1,0,2.1
	c-0.5,0.2-0.4-0.6-0.8-1.3C41.5,21.7,41.2,21.4,41.4,21.1L41.4,21.1L41.4,21.1z"/>
<path fill-rule="evenodd" clip-rule="evenodd" fill="#292C27" d="M41.4,21.1c0.2-0.3,1-0.2,1.3,0.5c0.3,0.6,0.2,2,0,2.1
	c-0.5,0.2-0.4-0.6-0.8-1.3C41.5,21.7,41.2,21.4,41.4,21.1L41.4,21.1L41.4,21.1z"/>
<path fill-rule="evenodd" clip-rule="evenodd" fill="#323531" d="M41.4,21.1c0.2-0.3,1-0.2,1.3,0.5c0.3,0.6,0.2,2,0,2.1
	c-0.5,0.2-0.4-0.6-0.8-1.3C41.5,21.7,41.2,21.4,41.4,21.1L41.4,21.1L41.4,21.1z"/>
<path fill-rule="evenodd" clip-rule="evenodd" fill="#393D3B" d="M41.4,21.1c0.2-0.3,1-0.2,1.3,0.5c0.3,0.6,0.2,2,0,2.1
	c-0.5,0.2-0.4-0.6-0.8-1.3C41.5,21.7,41.2,21.4,41.4,21.1L41.4,21.1L41.4,21.1z"/>
<path fill-rule="evenodd" clip-rule="evenodd" fill="#434744" d="M41.4,21.1c0.2-0.3,1-0.2,1.3,0.5c0.3,0.6,0.2,2,0,2
	c-0.5,0.2-0.4-0.6-0.8-1.3C41.5,21.7,41.3,21.4,41.4,21.1L41.4,21.1L41.4,21.1z"/>
<path fill-rule="evenodd" clip-rule="evenodd" fill="#4E4E4B" d="M41.5,21.1c0.2-0.3,1-0.2,1.2,0.5s0.2,1.9,0,2
	c-0.5,0.2-0.4-0.6-0.8-1.2C41.5,21.7,41.3,21.4,41.5,21.1L41.5,21.1L41.5,21.1z"/>
<path fill-rule="evenodd" clip-rule="evenodd" fill="#575956" d="M41.5,21.1c0.2-0.3,1-0.1,1.2,0.5c0.3,0.6,0.2,1.9,0,2
	c-0.5,0.2-0.3-0.6-0.8-1.2C41.5,21.7,41.3,21.4,41.5,21.1L41.5,21.1L41.5,21.1z"/>
<path fill-rule="evenodd" clip-rule="evenodd" fill="#5E615F" d="M41.5,21.2c0.2-0.3,0.9-0.1,1.2,0.4c0.3,0.6,0.2,1.9,0,1.9
	c-0.5,0.2-0.3-0.5-0.8-1.2C41.5,21.7,41.3,21.4,41.5,21.2L41.5,21.2L41.5,21.2z"/>
<path fill-rule="evenodd" clip-rule="evenodd" fill="#696966" d="M41.5,21.2c0.2-0.3,0.9-0.2,1.2,0.4c0.3,0.6,0.2,1.9,0,1.9
	c-0.5,0.1-0.3-0.6-0.7-1.2C41.5,21.7,41.3,21.5,41.5,21.2L41.5,21.2L41.5,21.2z"/>
<path fill-rule="evenodd" clip-rule="evenodd" fill="#72726D" d="M41.5,21.2c0.2-0.3,0.9-0.1,1.2,0.4c0.3,0.6,0.2,1.8,0,1.9
	c-0.5,0.1-0.3-0.6-0.7-1.2C41.6,21.7,41.3,21.5,41.5,21.2L41.5,21.2L41.5,21.2z"/>
<path fill-rule="evenodd" clip-rule="evenodd" fill="#7A7A77" d="M41.5,21.2c0.2-0.3,0.9-0.1,1.1,0.4c0.3,0.6,0.2,1.8,0,1.9
	c-0.5,0.1-0.3-0.5-0.7-1.1C41.6,21.7,41.4,21.5,41.5,21.2L41.5,21.2L41.5,21.2z"/>
<path fill-rule="evenodd" clip-rule="evenodd" fill="#858481" d="M41.5,21.2c0.2-0.3,0.9-0.2,1.1,0.4c0.3,0.6,0.2,1.8,0,1.8
	c-0.5,0.1-0.3-0.5-0.7-1.1C41.6,21.8,41.4,21.5,41.5,21.2L41.5,21.2L41.5,21.2z"/>
<path fill-rule="evenodd" clip-rule="evenodd" fill="#918F8B" d="M41.6,21.2c0.2-0.3,0.9-0.1,1.1,0.4c0.3,0.6,0.2,1.7,0,1.8
	c-0.5,0.1-0.3-0.5-0.7-1.1C41.6,21.8,41.4,21.5,41.6,21.2L41.6,21.2L41.6,21.2z"/>
<path fill-rule="evenodd" clip-rule="evenodd" fill="#9D9994" d="M41.6,21.2c0.2-0.3,0.9-0.1,1.1,0.4c0.2,0.5,0.2,1.7,0,1.8
	c-0.5,0.1-0.3-0.5-0.7-1.1C41.6,21.8,41.4,21.5,41.6,21.2L41.6,21.2L41.6,21.2z"/>
<path fill-rule="evenodd" clip-rule="evenodd" fill="#A4A09B" d="M41.6,21.2c0.2-0.3,0.8-0.1,1.1,0.4c0.2,0.5,0.2,1.7,0,1.7
	c-0.4,0.1-0.3-0.5-0.7-1.1C41.6,21.8,41.4,21.5,41.6,21.2L41.6,21.2L41.6,21.2z"/>
<path fill-rule="evenodd" clip-rule="evenodd" fill="#AFABA7" d="M41.6,21.3c0.2-0.3,0.8-0.1,1.1,0.4c0.2,0.5,0.2,1.7,0,1.7
	c-0.4,0.1-0.3-0.5-0.7-1C41.6,21.8,41.4,21.5,41.6,21.3L41.6,21.3L41.6,21.3z"/>
<path fill-rule="evenodd" clip-rule="evenodd" fill="#B7B4AF" d="M41.6,21.3c0.2-0.2,0.8-0.1,1,0.4c0.2,0.5,0.2,1.6,0,1.7
	c-0.4,0.1-0.3-0.5-0.7-1C41.6,21.8,41.5,21.5,41.6,21.3L41.6,21.3L41.6,21.3z"/>
<path fill-rule="evenodd" clip-rule="evenodd" fill="#BFBDBB" d="M41.6,21.3c0.2-0.2,0.8-0.1,1,0.4c0.2,0.5,0.2,1.6,0,1.7
	c-0.4,0.1-0.3-0.5-0.7-1C41.7,21.8,41.5,21.5,41.6,21.3L41.6,21.3L41.6,21.3z"/>
<path fill-rule="evenodd" clip-rule="evenodd" fill="#FFFFFF" d="M57.2,18.9c-1.1-2-1.8-2.4-3.5-2.5c-2.5-0.2-3.8,1.6-4.3,2.8
	c-0.6,1.4-0.5,1.2-0.4,2.9c0,1.8,1.1,2.3,1.7,3.5c0.6,1.1,2.8,2,3.1,2c2.7-0.3,3.7-1.3,4.2-3.2C58.4,22.9,58.4,21,57.2,18.9z"/>
<path fill-rule="evenodd" clip-rule="evenodd" fill="#313333" d="M53.6,20c1.4,0,2.2,1.2,2.4,2.8c0.1,0.7-0.1,1.5-0.5,2.1
	c-0.5,0.7-1.4,1.1-2.1,1.1c-0.7,0-1.4,0.1-1.8-0.4c-0.4-0.5-0.5-1.8-0.5-2.7c0-1,0.3-1.7,0.8-2.3C52.3,20.1,53,20,53.6,20L53.6,20
	L53.6,20z"/>
<path fill-rule="evenodd" clip-rule="evenodd" fill="#1D1917" d="M53.6,20.5c0.2-0.2,0.7,0,1.1,0.5c0.5,0.6,0.7,1,0.1,1.4
	c-0.5,0.2-0.6-0.5-0.9-0.8C53.5,21.1,53.1,20.9,53.6,20.5L53.6,20.5L53.6,20.5z"/>
<path fill-rule="evenodd" clip-rule="evenodd" fill="#14130F" d="M53.7,20.5c0.2-0.2,0.6,0,1.1,0.5c0.5,0.6,0.7,1,0.1,1.4
	c-0.5,0.2-0.6-0.5-0.9-0.8C53.5,21.1,53.2,20.9,53.7,20.5L53.7,20.5L53.7,20.5z"/>
<path fill-rule="evenodd" clip-rule="evenodd" fill="#181814" d="M53.7,20.6c0.2-0.2,0.6,0,1.1,0.5c0.5,0.6,0.7,1,0.1,1.3
	c-0.5,0.3-0.6-0.5-0.9-0.8C53.6,21.1,53.2,20.9,53.7,20.6L53.7,20.6L53.7,20.6z"/>
<path fill-rule="evenodd" clip-rule="evenodd" fill="#20201D" d="M53.7,20.6c0.2-0.2,0.6,0,1.1,0.5c0.5,0.6,0.7,1,0.1,1.3
	c-0.4,0.2-0.6-0.5-0.8-0.8C53.6,21.2,53.2,20.9,53.7,20.6L53.7,20.6L53.7,20.6z"/>
<path fill-rule="evenodd" clip-rule="evenodd" fill="#292C27" d="M53.7,20.6c0.2-0.2,0.6,0,1.1,0.5c0.5,0.5,0.7,1,0.1,1.3
	c-0.4,0.2-0.6-0.5-0.8-0.8C53.6,21.2,53.2,20.9,53.7,20.6L53.7,20.6L53.7,20.6z"/>
<path fill-rule="evenodd" clip-rule="evenodd" fill="#323531" d="M53.7,20.6c0.2-0.1,0.6,0,1.1,0.5c0.5,0.5,0.6,0.9,0.1,1.3
	c-0.4,0.2-0.6-0.5-0.8-0.7C53.6,21.2,53.2,20.9,53.7,20.6L53.7,20.6L53.7,20.6z"/>
<path fill-rule="evenodd" clip-rule="evenodd" fill="#393D3B" d="M53.7,20.6c0.2-0.2,0.6,0,1,0.5c0.5,0.5,0.6,0.9,0.1,1.2
	c-0.4,0.2-0.6-0.4-0.8-0.7C53.6,21.2,53.3,20.9,53.7,20.6L53.7,20.6L53.7,20.6z"/>
<path fill-rule="evenodd" clip-rule="evenodd" fill="#434744" d="M53.7,20.6c0.2-0.1,0.6,0,1,0.5c0.5,0.5,0.6,0.9,0.1,1.2
	c-0.4,0.2-0.5-0.4-0.8-0.7C53.6,21.2,53.3,20.9,53.7,20.6L53.7,20.6L53.7,20.6z"/>
<path fill-rule="evenodd" clip-rule="evenodd" fill="#4E4E4B" d="M53.7,20.6c0.2-0.1,0.6,0,1,0.5c0.5,0.5,0.6,0.9,0.1,1.2
	c-0.4,0.2-0.5-0.4-0.8-0.7C53.7,21.2,53.3,20.9,53.7,20.6L53.7,20.6L53.7,20.6z"/>
<path fill-rule="evenodd" clip-rule="evenodd" fill="#575956" d="M53.7,20.7c0.2-0.2,0.6,0,1,0.5c0.4,0.5,0.6,0.9,0.1,1.2
	c-0.4,0.2-0.5-0.4-0.8-0.7C53.7,21.2,53.3,21,53.7,20.7L53.7,20.7L53.7,20.7z"/>
<path fill-rule="evenodd" clip-rule="evenodd" fill="#5E615F" d="M53.7,20.7c0.2-0.2,0.6,0,1,0.5c0.4,0.5,0.6,0.9,0.1,1.2
	c-0.4,0.2-0.5-0.4-0.8-0.7C53.7,21.2,53.4,21,53.7,20.7L53.7,20.7L53.7,20.7z"/>
<path fill-rule="evenodd" clip-rule="evenodd" fill="#696966" d="M53.8,20.7c0.2-0.1,0.5,0,0.9,0.5c0.4,0.5,0.5,0.9,0.1,1.2
	c-0.4,0.2-0.5-0.4-0.7-0.7C53.7,21.2,53.4,21,53.8,20.7L53.8,20.7L53.8,20.7z"/>
<path fill-rule="evenodd" clip-rule="evenodd" fill="#72726D" d="M53.8,20.7c0.2-0.2,0.5,0,0.9,0.4c0.4,0.5,0.5,0.8,0.1,1.1
	c-0.4,0.2-0.5-0.4-0.7-0.7C53.7,21.2,53.4,21,53.8,20.7L53.8,20.7L53.8,20.7z"/>
<path fill-rule="evenodd" clip-rule="evenodd" fill="#7A7A77" d="M53.8,20.7c0.2-0.1,0.5,0,0.9,0.4c0.4,0.5,0.5,0.8,0.1,1.1
	c-0.4,0.2-0.5-0.4-0.7-0.6C53.7,21.2,53.4,21,53.8,20.7L53.8,20.7L53.8,20.7z"/>
<path fill-rule="evenodd" clip-rule="evenodd" fill="#858481" d="M53.8,20.7c0.2-0.1,0.5,0,0.9,0.4c0.4,0.4,0.5,0.8,0.1,1.1
	c-0.4,0.2-0.5-0.4-0.7-0.6C53.7,21.2,53.4,21,53.8,20.7L53.8,20.7L53.8,20.7z"/>
<path fill-rule="evenodd" clip-rule="evenodd" fill="#918F8B" d="M53.8,20.8c0.2-0.1,0.5,0,0.9,0.4c0.4,0.4,0.5,0.8,0.1,1
	c-0.3,0.2-0.4-0.4-0.7-0.6C53.8,21.2,53.5,21,53.8,20.8L53.8,20.8L53.8,20.8z"/>
<path fill-rule="evenodd" clip-rule="evenodd" fill="#9D9994" d="M53.8,20.8c0.2-0.1,0.5,0,0.9,0.4c0.4,0.4,0.5,0.8,0.1,1
	c-0.3,0.2-0.4-0.4-0.6-0.6C53.8,21.2,53.5,21,53.8,20.8L53.8,20.8L53.8,20.8z"/>
<path fill-rule="evenodd" clip-rule="evenodd" fill="#A4A09B" d="M53.8,20.8c0.1-0.1,0.5,0,0.8,0.4c0.4,0.4,0.4,0.8,0.1,1
	c-0.3,0.2-0.4-0.4-0.6-0.6C53.8,21.2,53.5,21.1,53.8,20.8L53.8,20.8L53.8,20.8z"/>
<path fill-rule="evenodd" clip-rule="evenodd" fill="#AFABA7" d="M53.8,20.8c0.1-0.1,0.5,0,0.8,0.4c0.4,0.4,0.4,0.7,0.1,1
	c-0.3,0.2-0.4-0.4-0.6-0.6C53.8,21.2,53.5,21.1,53.8,20.8L53.8,20.8L53.8,20.8z"/>
<path fill-rule="evenodd" clip-rule="evenodd" fill="#B7B4AF" d="M53.8,20.8c0.2-0.1,0.5,0,0.8,0.4c0.4,0.4,0.4,0.7,0.1,1
	c-0.3,0.2-0.4-0.4-0.6-0.6C53.8,21.2,53.5,21.1,53.8,20.8L53.8,20.8L53.8,20.8z"/>
<path fill-rule="evenodd" clip-rule="evenodd" fill="#BFBDBB" d="M53.8,20.8c0.1-0.1,0.5,0,0.8,0.4c0.4,0.4,0.4,0.7,0.1,0.9
	c-0.3,0.2-0.4-0.3-0.6-0.6C53.8,21.2,53.5,21.1,53.8,20.8L53.8,20.8L53.8,20.8z"/>
<path fill-rule="evenodd" clip-rule="evenodd" fill="#F2F2F2" stroke="#313333" stroke-width="0.4" stroke-miterlimit="10" d="
	M52.7,25.5c-0.7-0.2-1.3-0.5-2-1.1c-0.8-0.6-2.7-0.9-4-0.8c-1,0.1-1.5,0-2.4,0.5c-1,0.5-2.4,1.7-3.2,2.3c-1.5,1.3-2.5,1.8-2.5,3.4
	c0,1.5,1.3,2.7,2.6,3.8c1.3,1.1,2.5,2.5,3.3,2.8c0.9,0.3,2.3,0.3,3.4,0.3c2.4,0,5.4-3,7.1-3.5c2.1-0.7,2.9-1.8,3-4.4
	C58.2,26.6,55.1,26.3,52.7,25.5z"/>
<path opacity="0.2" fill-rule="evenodd" clip-rule="evenodd" fill="#807F7A" d="M54.4,7c-0.3,0.6-0.8,5.1,0,4.6
	c0.8-0.5,3-1.2,4.4-1.5C60.2,9.7,54.9,5.8,54.4,7z"/>
<path fill-rule="evenodd" clip-rule="evenodd" fill="#4D4D4D" d="M44.7,16.4c-1.5-1.6-3.3-1.4-3.5-1c-0.2,0.6,2.2,1.3,2.7,1.8
	c0.7,0.6,0.7,1.9,1.6,1.4C46.1,18.2,45.7,17.5,44.7,16.4z"/>
<path fill-rule="evenodd" clip-rule="evenodd" fill="#4D4D4D" d="M57.9,17c-0.2-0.4-0.8-1.3-1.8-1.6c-0.8-0.2-2.3-0.3-2.3-0.1
	c0,0.3,0.7,0.4,1.2,0.6c0.5,0.2,1.5,0.8,1.9,1.3c0.5,0.5,1.4,1.9,1.7,1.6C58.9,18.4,58.2,17.4,57.9,17z"/>
<path fill-rule="evenodd" clip-rule="evenodd" fill="#F8DA00" d="M64.6,73.2c-0.2-0.1-1-3.8-0.5-4.1c0.8-0.5,1.1-0.6,2.1-0.6
	c1,0,1.5,0.1,1.9,0.4c0.5,0.5-0.3,1.7-0.6,2C66.5,71.9,64.8,73.3,64.6,73.2L64.6,73.2L64.6,73.2z"/>
<path fill-rule="evenodd" clip-rule="evenodd" fill="#F8DA00" d="M64.7,73.1c-0.2-0.1-1-3.7-0.6-4c0.8-0.5,1.1-0.6,2.1-0.6
	c1,0,1.5,0.1,1.8,0.4c0.5,0.6-0.3,1.7-0.6,2C66.5,71.9,64.9,73.2,64.7,73.1L64.7,73.1L64.7,73.1z"/>
<path fill-rule="evenodd" clip-rule="evenodd" fill="#F8DB00" d="M64.8,73c-0.2-0.1-1.1-3.6-0.6-3.8c0.8-0.5,1.1-0.5,2.1-0.5
	c1,0,1.5,0.1,1.8,0.4c0.5,0.5-0.3,1.6-0.6,2C66.5,71.9,65,73.1,64.8,73L64.8,73L64.8,73z"/>
<path fill-rule="evenodd" clip-rule="evenodd" fill="#F8DB00" d="M64.8,72.9c-0.2-0.1-1.1-3.5-0.7-3.7c0.8-0.5,1.1-0.5,2.1-0.5
	c1,0,1.5,0,1.8,0.4c0.5,0.6-0.3,1.6-0.6,1.9C66.5,71.9,65,73,64.8,72.9L64.8,72.9L64.8,72.9z"/>
<path fill-rule="evenodd" clip-rule="evenodd" fill="#F8DB00" d="M64.9,72.8c-0.2-0.1-1.2-3.3-0.7-3.6c0.8-0.5,1.1-0.5,2.1-0.5
	c1,0,1.4,0,1.8,0.4c0.5,0.5-0.3,1.6-0.6,1.9C66.5,71.9,65.1,72.9,64.9,72.8L64.9,72.8L64.9,72.8z"/>
<path fill-rule="evenodd" clip-rule="evenodd" fill="#F8DB00" d="M64.9,72.6c-0.2-0.1-1.2-3.2-0.8-3.5c0.8-0.5,1.1-0.5,2.1-0.5
	c1,0,1.4,0,1.8,0.4c0.5,0.6-0.2,1.5-0.6,1.8C66.5,71.9,65.2,72.8,64.9,72.6L64.9,72.6L64.9,72.6z"/>
<path fill-rule="evenodd" clip-rule="evenodd" fill="#F8DB00" d="M65,72.5c-0.3-0.2-1.3-3.1-0.8-3.3c0.8-0.5,1.1-0.4,2-0.4
	c1,0,1.4,0,1.8,0.4c0.5,0.5-0.2,1.5-0.5,1.8C66.5,71.9,65.3,72.7,65,72.5L65,72.5L65,72.5z"/>
<path fill-rule="evenodd" clip-rule="evenodd" fill="#F8DB00" d="M65.1,72.4c-0.3-0.2-1.3-3-0.9-3.2c0.8-0.5,1.1-0.4,2-0.4
	c1,0,1.4,0,1.7,0.4c0.5,0.6-0.2,1.5-0.5,1.8C66.5,71.9,65.3,72.6,65.1,72.4L65.1,72.4L65.1,72.4z"/>
<path fill-rule="evenodd" clip-rule="evenodd" fill="#F8DB00" d="M65.1,72.3c-0.3-0.2-1.3-2.9-0.9-3.1c0.8-0.5,1.1-0.4,2-0.4
	c1,0,1.4,0,1.7,0.4c0.5,0.6-0.2,1.4-0.5,1.7C66.5,71.9,65.4,72.5,65.1,72.3L65.1,72.3L65.1,72.3z"/>
<path fill-rule="evenodd" clip-rule="evenodd" fill="#F8DB00" d="M65.2,72.2c-0.3-0.2-1.4-2.7-1-3c0.8-0.5,1.1-0.3,2-0.3
	c1,0,1.3,0,1.7,0.4c0.5,0.6-0.2,1.4-0.5,1.7C66.5,71.8,65.5,72.4,65.2,72.2L65.2,72.2L65.2,72.2z"/>
<path fill-rule="evenodd" clip-rule="evenodd" fill="#F9DC00" d="M65.2,72c-0.3-0.2-1.4-2.6-1-2.8c0.8-0.5,1.1-0.3,2-0.3
	c1,0,1.3-0.1,1.7,0.4c0.5,0.6-0.2,1.4-0.5,1.7C66.5,71.8,65.5,72.3,65.2,72L65.2,72L65.2,72z"/>
<path fill-rule="evenodd" clip-rule="evenodd" fill="#F9DC00" d="M65.3,71.9c-0.4-0.3-1.5-2.5-1-2.7c0.8-0.5,1.1-0.3,2-0.3
	c1,0,1.3-0.1,1.7,0.4c0.5,0.6-0.2,1.3-0.5,1.6C66.5,71.8,65.6,72.1,65.3,71.9L65.3,71.9L65.3,71.9z"/>
<path fill-rule="evenodd" clip-rule="evenodd" fill="#F9DC00" d="M65.4,71.8c-0.4-0.3-1.5-2.4-1.1-2.6c0.8-0.5,1.1-0.3,1.9-0.3
	c1,0,1.3-0.1,1.7,0.4c0.5,0.6-0.2,1.3-0.5,1.6C66.5,71.8,65.7,72,65.4,71.8L65.4,71.8L65.4,71.8z"/>
<path fill-rule="evenodd" clip-rule="evenodd" fill="#F9DC00" d="M65.4,71.7c-0.4-0.3-1.6-2.2-1.1-2.5c0.8-0.5,1.1-0.2,1.9-0.2
	c1,0,1.3-0.1,1.6,0.4c0.5,0.6-0.2,1.3-0.4,1.6C66.5,71.8,65.7,71.9,65.4,71.7L65.4,71.7L65.4,71.7z"/>
<path fill-rule="evenodd" clip-rule="evenodd" fill="#F9DC00" d="M65.5,71.6c-0.4-0.3-1.6-2.1-1.2-2.3c0.8-0.5,1.2-0.2,1.9-0.2
	c1,0,1.2-0.1,1.6,0.4c0.5,0.6-0.1,1.2-0.4,1.5C66.5,71.8,65.8,71.8,65.5,71.6L65.5,71.6L65.5,71.6z"/>
<path fill-rule="evenodd" clip-rule="evenodd" fill="#F9DC00" d="M65.5,71.4c-0.4-0.3-1.6-2-1.2-2.2c0.8-0.5,1.2-0.2,1.9-0.2
	c1.1,0,1.2-0.1,1.6,0.4c0.5,0.6-0.1,1.2-0.4,1.5C66.5,71.8,65.9,71.7,65.5,71.4L65.5,71.4L65.5,71.4z"/>
<path fill-rule="evenodd" clip-rule="evenodd" fill="#F9DC00" d="M65.6,71.3c-0.4-0.3-1.7-1.9-1.3-2.1c0.8-0.5,1.2-0.1,1.9-0.1
	c1,0,1.2-0.1,1.6,0.3c0.5,0.6-0.1,1.2-0.4,1.5C66.5,71.8,65.9,71.6,65.6,71.3L65.6,71.3L65.6,71.3z"/>
<path fill-rule="evenodd" clip-rule="evenodd" fill="#F8DC00" d="M65.6,71.2c-0.4-0.4-1.7-1.7-1.3-2c0.8-0.5,1.2-0.1,1.9-0.1
	c1,0,1.2-0.2,1.6,0.4c0.5,0.6-0.1,1.1-0.4,1.4C66.5,71.8,66,71.5,65.6,71.2L65.6,71.2L65.6,71.2z"/>
<path fill-rule="evenodd" clip-rule="evenodd" fill="#F8DC00" d="M65.7,71.1c-0.5-0.4-1.8-1.6-1.4-1.9c0.8-0.5,1.2-0.1,1.9-0.1
	c1,0,1.2-0.2,1.6,0.4c0.5,0.6-0.1,1.1-0.4,1.4C66.5,71.8,66.1,71.4,65.7,71.1L65.7,71.1L65.7,71.1z"/>
<path fill-rule="evenodd" clip-rule="evenodd" fill="#F8DC00" d="M65.8,71c-0.5-0.4-1.8-1.5-1.4-1.7c0.8-0.5,1.2-0.1,1.8-0.1
	c1,0,1.1-0.2,1.5,0.4c0.4,0.6-0.1,1.1-0.4,1.4C66.5,71.8,66.2,71.3,65.8,71L65.8,71L65.8,71z"/>
<path fill-rule="evenodd" clip-rule="evenodd" fill="#F8DC00" d="M65.8,70.8c-0.5-0.4-1.9-1.4-1.4-1.6c0.8-0.5,1.2,0,1.8,0
	c1,0,1.1-0.2,1.5,0.4c0.4,0.6-0.1,1-0.4,1.3C66.5,71.8,66.2,71.2,65.8,70.8L65.8,70.8L65.8,70.8z"/>
<path fill-rule="evenodd" clip-rule="evenodd" fill="#F8DA00" d="M81.4,70.1c1,1.4,0,3.2,0.7,4.3c-1.7-1.6-2.5-2.2-4.9,0.1
	c0.7-0.9,0.8-1.6,1.2-2.5c0.3-0.6,1.1-2.4,1.3-2.4C79.8,69.6,80.9,69.3,81.4,70.1L81.4,70.1L81.4,70.1z"/>
<path fill-rule="evenodd" clip-rule="evenodd" fill="#F8DA00" d="M81.4,70.1c0.9,1.4,0,3.2,0.7,4.2c-1.7-1.5-2.5-2.2-4.8,0.1
	c0.6-0.9,0.8-1.5,1.2-2.4c0.3-0.6,1.1-2.3,1.3-2.4C79.9,69.7,80.9,69.3,81.4,70.1L81.4,70.1L81.4,70.1z"/>
<path fill-rule="evenodd" clip-rule="evenodd" fill="#F8DB00" d="M81.4,70.2c0.9,1.3,0,3.1,0.6,4.1c-1.6-1.5-2.4-2.1-4.7,0.1
	c0.6-0.9,0.7-1.5,1.1-2.4c0.3-0.6,1-2.3,1.2-2.3C79.9,69.7,80.9,69.4,81.4,70.2L81.4,70.2L81.4,70.2z"/>
<path fill-rule="evenodd" clip-rule="evenodd" fill="#F8DB00" d="M81.4,70.2c0.9,1.3,0.1,3.1,0.6,4c-1.6-1.5-2.4-2.1-4.6,0.1
	c0.5-0.8,0.7-1.5,1.1-2.3c0.3-0.6,1-2.2,1.2-2.2C79.9,69.7,80.9,69.4,81.4,70.2L81.4,70.2L81.4,70.2z"/>
<path fill-rule="evenodd" clip-rule="evenodd" fill="#F8DB00" d="M81.4,70.2c0.8,1.2,0.1,3.1,0.6,3.9c-1.6-1.4-2.3-2.1-4.4,0
	c0.5-0.7,0.7-1.4,1.1-2.3c0.3-0.6,1-2.1,1.2-2.1C80,69.7,80.9,69.4,81.4,70.2L81.4,70.2L81.4,70.2z"/>
<path fill-rule="evenodd" clip-rule="evenodd" fill="#F8DB00" d="M81.4,70.2c0.8,1.2,0.1,3,0.6,3.8c-1.5-1.4-2.2-2-4.3,0
	c0.5-0.7,0.7-1.4,1.1-2.2c0.3-0.6,1-2.1,1.2-2.1C80,69.7,80.9,69.4,81.4,70.2L81.4,70.2L81.4,70.2z"/>
<path fill-rule="evenodd" clip-rule="evenodd" fill="#F8DB00" d="M81.4,70.2c0.8,1.2,0.1,3,0.6,3.7c-1.5-1.3-2.2-2-4.2,0
	c0.4-0.6,0.6-1.3,1-2.1c0.3-0.6,0.9-2,1.1-2C80,69.8,80.9,69.5,81.4,70.2L81.4,70.2L81.4,70.2z"/>
<path fill-rule="evenodd" clip-rule="evenodd" fill="#F8DB00" d="M81.4,70.2c0.8,1.2,0.2,2.9,0.6,3.6c-1.5-1.3-2.1-1.9-4.1,0
	c0.4-0.6,0.6-1.3,1-2.1c0.3-0.6,0.9-1.9,1.1-2C80.1,69.8,80.9,69.5,81.4,70.2L81.4,70.2L81.4,70.2z"/>
<path fill-rule="evenodd" clip-rule="evenodd" fill="#F8DB00" d="M81.3,70.2c0.8,1.1,0.2,2.9,0.5,3.5c-1.4-1.3-2.1-1.9-4,0
	c0.3-0.5,0.6-1.3,1-2c0.3-0.6,0.9-1.9,1.1-1.9C80.1,69.8,80.9,69.5,81.3,70.2L81.3,70.2L81.3,70.2z"/>
<path fill-rule="evenodd" clip-rule="evenodd" fill="#F8DB00" d="M81.3,70.2c0.7,1.1,0.2,2.9,0.5,3.4c-1.4-1.2-2-1.9-3.9,0
	c0.3-0.5,0.5-1.2,0.9-2c0.3-0.6,0.9-1.8,1.1-1.8C80.1,69.8,80.9,69.6,81.3,70.2L81.3,70.2L81.3,70.2z"/>
<path fill-rule="evenodd" clip-rule="evenodd" fill="#F9DC00" d="M81.3,70.2c0.7,1.1,0.2,2.8,0.5,3.3c-1.4-1.2-2-1.8-3.8,0
	c0.3-0.4,0.5-1.2,0.9-1.9c0.3-0.6,0.8-1.7,1.1-1.8C80.2,69.8,80.9,69.6,81.3,70.2L81.3,70.2L81.3,70.2z"/>
<path fill-rule="evenodd" clip-rule="evenodd" fill="#F9DC00" d="M81.3,70.2c0.7,1,0.2,2.8,0.5,3.3c-1.3-1.2-1.9-1.8-3.7,0
	c0.2-0.3,0.5-1.1,0.9-1.9c0.3-0.6,0.8-1.7,1-1.7C80.2,69.9,80.9,69.6,81.3,70.2L81.3,70.2L81.3,70.2z"/>
<path fill-rule="evenodd" clip-rule="evenodd" fill="#F9DC00" d="M81.3,70.2c0.7,1,0.3,2.7,0.5,3.1c-1.3-1.1-1.9-1.7-3.6,0
	c0.2-0.3,0.5-1.1,0.8-1.8c0.3-0.6,0.8-1.6,1-1.6C80.2,69.9,80.9,69.7,81.3,70.2L81.3,70.2L81.3,70.2z"/>
<path fill-rule="evenodd" clip-rule="evenodd" fill="#F9DC00" d="M81.3,70.2c0.7,1,0.3,2.7,0.5,3c-1.3-1.1-1.8-1.7-3.5,0
	c0.1-0.3,0.4-1.1,0.8-1.8c0.3-0.6,0.7-1.5,1-1.6C80.3,69.9,80.9,69.7,81.3,70.2L81.3,70.2L81.3,70.2z"/>
<path fill-rule="evenodd" clip-rule="evenodd" fill="#F9DC00" d="M81.3,70.2c0.6,0.9,0.3,2.7,0.5,2.9c-1.2-1-1.8-1.6-3.4-0.1
	c0.1-0.2,0.4-1,0.8-1.7c0.3-0.6,0.7-1.5,1-1.5C80.3,69.9,80.9,69.7,81.3,70.2L81.3,70.2L81.3,70.2z"/>
<path fill-rule="evenodd" clip-rule="evenodd" fill="#F9DC00" d="M81.3,70.3c0.6,0.9,0.4,2.6,0.4,2.8c-1.2-1-1.7-1.6-3.3-0.1
	c0.1-0.1,0.4-1,0.8-1.6c0.3-0.6,0.7-1.4,0.9-1.4C80.3,69.9,80.9,69.7,81.3,70.3L81.3,70.3L81.3,70.3z"/>
<path fill-rule="evenodd" clip-rule="evenodd" fill="#F9DC00" d="M81.3,70.3c0.6,0.9,0.4,2.6,0.4,2.7c-1.1-0.9-1.7-1.5-3.2-0.1
	c0-0.1,0.4-0.9,0.7-1.6c0.3-0.7,0.6-1.3,0.9-1.4C80.4,69.9,80.9,69.8,81.3,70.3L81.3,70.3L81.3,70.3z"/>
<path fill-rule="evenodd" clip-rule="evenodd" fill="#F8DC00" d="M81.3,70.3c0.6,0.8,0.4,2.5,0.4,2.6c-1.1-0.9-1.6-1.5-3.1-0.1
	c0,0,0.3-0.9,0.7-1.5c0.4-0.6,0.6-1.3,0.9-1.3C80.4,70,80.9,69.8,81.3,70.3L81.3,70.3L81.3,70.3z"/>
<path fill-rule="evenodd" clip-rule="evenodd" fill="#F8DC00" d="M81.2,70.3c0.6,0.8,0.4,2.5,0.4,2.5c-1.1-0.9-1.6-1.5-3-0.1
	c-0.1,0,0.3-0.9,0.7-1.5c0.4-0.7,0.6-1.2,0.9-1.2C80.4,70,80.9,69.8,81.2,70.3L81.2,70.3L81.2,70.3z"/>
<path fill-rule="evenodd" clip-rule="evenodd" fill="#F8DC00" d="M81.2,70.3c0.5,0.8,0.4,2.5,0.4,2.5c-1-0.8-1.5-1.4-2.9-0.1
	c-0.1,0.1,0.3-0.8,0.6-1.4c0.4-0.7,0.6-1.1,0.9-1.2C80.5,70,80.9,69.9,81.2,70.3L81.2,70.3L81.2,70.3z"/>
<path fill-rule="evenodd" clip-rule="evenodd" fill="#F8DC00" d="M81.2,70.3c0.5,0.7,0.5,2.4,0.4,2.3c-1-0.8-1.4-1.4-2.8-0.1
	c-0.1,0.1,0.3-0.7,0.6-1.4c0.4-0.7,0.5-1,0.9-1.1C80.5,70,80.9,69.9,81.2,70.3L81.2,70.3L81.2,70.3z"/>
<g>
	<path fill-rule="evenodd" clip-rule="evenodd" fill="#FFFFFF" stroke="#313333" stroke-miterlimit="10" d="M88.2,80.3
		c-0.2-0.2-0.5-0.3-0.7-0.4c-1-0.6-3.7-2.8-5.1-4.9c-0.8-1.3,0.3-3.4-0.8-5.1c-0.7-1-1.9-0.6-2.1-0.6c-0.2,0-1.2,1.8-1.7,2.3
		c-0.4,0.5-1.6,1.5-2.4,2c-0.8,0.5-1.5,0.8-3.3,0.7c-1.8-0.1-2.3-0.7-2.9-1.2c-0.6-0.5-1.1-0.9-1-2.1c0.1-0.7,0.1-1.3,0.1-1.7
		c0,0,0-0.1,0-0.1c0,0,0,0,0-0.1c0,0,0,0,0,0c0,0,0,0,0,0c0,0,0,0,0,0c0,0,0,0,0,0c0,0,0,0,0,0c0,0,0,0,0,0c0,0,0,0,0,0c0,0,0,0,0,0
		v0c0,0,0,0,0,0c0,0,0,0,0,0c0,0,0,0,0,0c0,0,0-0.1,0-0.1c0,0,0,0,0,0c0,0,0,0,0,0c0,0,0,0,0,0c0,0,0,0,0,0c0,0,0,0,0,0c0,0,0,0,0,0
		c0-0.1-0.1-0.1-0.1-0.2c-0.4-0.4-0.9-0.5-2.1-0.5c-1.2,0-1.4,0-2.4,0.7c-0.6,0.3-0.6,2.5-0.6,5c0,2,0,4.3-0.2,6.1
		c-0.4,4.3-1.3,6.8-1.4,9.5c-0.1,2.8,0.8,4.6,1.7,5.3c0.8,0.7,2,1.3,4.8,1.3c2.7,0,4.4-0.6,6.2-2.4c1.1-1.2,2.4-2.2,5.9-4.6
		c2.8-1.9,7-4,7.8-4.8c0.4-0.4,1.2-0.8,1.2-2.3C89.3,81.2,88.8,80.7,88.2,80.3z"/>
	<path fill-rule="evenodd" clip-rule="evenodd" fill="#FFFFFF" stroke="#313333" stroke-miterlimit="10" d="M41.3,89.4
		c-0.1-3.4-2.3-4.4-4.7-8.4c-2.5-3.9-2.9-4.7-4.5-7.3c-1.6-2.6-4.9-7.3-6.8-7.3c-1.5,0-2.3,0.8-3.2,1.7c-0.9,0.9-2.1,3.3-3.7,4.5
		c-1.6,1.2-5.8,1.1-6.8,2.5c-1,1.4,0,3.4,0,7.1c0,1.6-0.3,2.8-0.5,3.7c0,0.1,0,0.1,0,0.2c-0.1,0.2-0.1,0.5-0.2,0.6c0,0,0,0.1,0,0.1
		c0,0,0,0.1,0,0.1c-0.1,0.5-0.1,0.8,0,1.1c0,0,0,0,0,0c0,0.1,0.1,0.2,0.1,0.3c0,0.1,0.1,0.3,0.2,0.4c0.9,1.5,2.4,1.9,10.9,3.7
		c4.5,0.9,8.8,3.4,11.7,3.6c2.9,0.2,3.5-0.7,5.3-2.3C40.8,92.4,41.4,92.9,41.3,89.4z"/>
</g>
<path opacity="0.15" fill-rule="evenodd" clip-rule="evenodd" fill="#808080" d="M27.4,59.4C27.4,59.4,27.4,59.4,27.4,59.4
	c0-0.2,0-0.2,0-0.3c0,0,0-0.1,0-0.1c0,0,0,0,0,0c0,0,0-0.1,0-0.1c0,0,0,0,0,0c0,0,0,0,0,0c1.1-2.4,1.7-5,3.3-7.4
	c1.5-2.5,0.9-3.4-0.2-2.2c-1.1,1.2-2.4,3.9-2.4,3.9s-1.5,2.3-1.8,5c-0.2,0.3-0.8,3.5-0.8,4.3c0,1.3,0.9,3.3,2.3,4.6
	c1.3,1.3,1.7,0.3,0.5-1.4c-0.9-1.4-1-4.7-0.9-6.1C27.3,59.5,27.4,59.5,27.4,59.4z"/>
<g opacity="0.2">
	<path fill-rule="evenodd" clip-rule="evenodd" fill="#808080" d="M71.3,53c0-1.7-2.5-2.3-2.9-1.9c-0.4,0.4-0.7,2.5,0.2,3.2
		C69.6,55.1,71.3,53.7,71.3,53z"/>
	<path fill-rule="evenodd" clip-rule="evenodd" fill="#808080" d="M72.3,65.7c0.7-1,1.6-3.9,1.6-5.1c0.5-1.5,0.5-5.3-0.9-7.7
		c-0.5-0.9-0.9-1.9-1.2-2c-2.6-3.5-5.9-4.7-5.6-3.6c0,0,2.6,1.5,4.8,4.2c0,0.1,1.1,1.6,1.7,4c0,0.2,0.1,0.4,0.1,0.6
		c0,0.2,0.1,0.3,0.1,0.5c0,0.3,0.1,0.7,0.1,1c0,0.2,0,0.3,0,0.5c0,0.2,0,0.4,0,0.6c0,0,0,0,0,0c0,0.1,0,0.1,0,0.2c0,0,0,0,0,0
		c0,0.1,0,0.2,0,0.3c0,0,0,0,0,0c0,0,0,0,0,0c0,0.1,0,0.2,0,0.3c0,0,0,0,0,0.1c0,0,0,0.1,0,0.1c-0.1,0.1-0.2,2.1-0.5,3
		c-0.4,1.5-1,2.5-0.9,3c-0.1,0-0.3,0-0.4,0.1C70.1,66,69.4,66.5,69,67c-0.4,0.5-0.9,1.2-0.7,1.4c0.2,0.2,0.4,0.1,0.5-0.2
		c0.1-0.1,0.1-0.2,0.2-0.3c0,0,0,0,0-0.1c0-0.1,0.1-0.1,0.1-0.2c0,0,0,0,0,0c0,0,0.1-0.1,0.1-0.1c0,0,0.1-0.1,0.1-0.1
		c0.2-0.1,0.4-0.4,0.7-0.6c0.4-0.2,0.8-0.4,1.4-0.4c1.2,0,1.1,0,1.1-0.5C72.7,65.8,72.6,65.7,72.3,65.7z"/>
</g>
<path opacity="0.1" fill-rule="evenodd" clip-rule="evenodd" fill="#807F7A" d="M64.6,32.2c-0.6-0.7-1.3-0.4-2-1.1
	c-0.7-0.7-1.2-0.6-1.4-0.3c-0.2,0.2,0.1,2.1,1.4,3.3c1.2,1.2,2,1.2,2.5,0.7C65.9,33.8,65.1,32.9,64.6,32.2z"/>
<path fill-rule="evenodd" clip-rule="evenodd" fill="#313333" d="M56.5,28.8c0-0.1,0-0.1-0.1-0.2c-0.6,0-2.1,1.3-2.9,1.9
	c-1,0.6-2.9,1.6-4.8,2.3c-0.1,0-0.1,0.1-0.2,0.1v0c0,0,0,0,0,0c-0.1,0-0.1,0-0.2,0c-0.3,0.1-0.5,0.2-0.8,0.2c-0.1,0-0.2,0-0.3,0.1
	c0,0-0.1,0-0.1,0c-0.2,0-0.4,0.1-0.6,0.1c-0.1,0-0.2,0-0.4,0c0,0,0,0,0,0c-0.3,0-0.5,0-0.8,0c-0.2,0-0.5,0-0.8-0.1c0,0,0,0-0.1,0v0
	c0,0,0,0,0,0c0,0-0.1,0-0.1,0c-0.2,0-0.3,0-0.5-0.1c-0.1,0-0.1,0-0.2,0c0,0,0,0,0,0c0,0-0.1,0-0.1,0c-0.2,0-0.3-0.1-0.5-0.1
	c0,0,0,0-0.1,0c-0.1,0-0.1,0-0.2-0.1c0,0,0,0-0.1,0c0,0,0,0,0,0c-0.1,0-0.1,0-0.2-0.1c0,0,0,0-0.1,0c-0.1-0.1-0.3-0.1-0.4-0.2
	c-0.2-0.1-0.4-0.2-0.6-0.4c-0.2-0.1-0.4-0.3-0.6-0.4v0c-0.6-0.4-1.2-0.8-1.4-0.7c0,0,0,0,0,0l0,0c0,0,0,0,0,0
	c0.1,0.1,0.2,0.2,0.3,0.3v0c0,0,0.1,0.1,0.1,0.1c0,0,0.1,0.1,0.1,0.1c0,0,0.1,0.1,0.1,0.1v0c0,0,0.1,0,0.1,0.1
	c0.1,0,0.1,0.1,0.2,0.1c0,0,0,0,0,0v0c0,0,0,0,0,0c0.1,0,0.1,0.1,0.2,0.1c0,0,0.1,0.1,0.1,0.1c0.1,0,0.1,0.1,0.2,0.1
	c0.1,0.1,0.3,0.2,0.4,0.2v0c0.1,0.1,0.2,0.1,0.4,0.2v0c0,0,0,0,0.1,0c0,0,0.1,0.1,0.2,0.1c0,0,0,0,0.1,0v0c0,0,0.1,0,0.1,0
	c0,0,0.1,0,0.1,0c0,0,0.1,0,0.1,0.1c0,0,0.1,0,0.1,0c0,0,0.1,0,0.1,0l0,0v0c0,0,0.1,0,0.1,0.1c0,0,0,0,0.1,0c0.1,0,0.1,0.1,0.2,0.1
	v0c0,0,0,0,0,0c0,0,0,0,0,0v0c0,0,0,0,0,0c0,0,0.1,0,0.1,0c0,0,0,0,0.1,0c0,0,0.1,0,0.1,0v0c0.1,0,0.1,0,0.2,0c0,0,0,0,0,0
	c0,0,0.1,0,0.1,0c0.3,0.1,0.6,0.1,1.2,0.2c0.5,0,1,0,1.5,0v0c0,0,0,0,0,0c0.3,0,0.7-0.1,1-0.1v0c0,0,0,0,0,0c0.1,0,0.2,0,0.3-0.1v0
	c0,0,0,0,0,0c0.3-0.1,0.7-0.2,1-0.3v0c0,0,0,0,0,0c0.2-0.1,0.4-0.1,0.6-0.2v0c0,0,0.1,0,0.1,0c0.1,0,0.2-0.1,0.3-0.1
	c0.1-0.1,0.3-0.1,0.4-0.2c0.1-0.1,0.3-0.1,0.4-0.2c0.1-0.1,0.2-0.1,0.4-0.2c0.1-0.1,0.3-0.1,0.4-0.2c0.1,0,0.2-0.1,0.2-0.1
	c0.1,0,0.2-0.1,0.2-0.1c0.1-0.1,0.2-0.1,0.3-0.2c0.1-0.1,0.2-0.1,0.3-0.2v0c0.1,0,0.1-0.1,0.2-0.1c0,0,0.1,0,0.1-0.1c0,0,0,0,0,0v0
	c0.1,0,0.1-0.1,0.2-0.1c0,0,0.1,0,0.1-0.1v0c0,0,0,0,0,0c0,0,0.1,0,0.1-0.1c0,0,0.1-0.1,0.1-0.1c0.1-0.1,0.2-0.1,0.3-0.2
	c0.1,0,0.1-0.1,0.2-0.1c0.1-0.1,0.2-0.2,0.3-0.2c0,0,0.1-0.1,0.1-0.1c0.3-0.2,0.6-0.4,0.8-0.6v0c0,0,0,0,0,0v0
	c0.1-0.1,0.2-0.1,0.3-0.2c0.1-0.1,0.2-0.1,0.3-0.2c0.2-0.1,0.3-0.2,0.4-0.2v0c0,0,0,0,0,0c0.1,0,0.1-0.1,0.2-0.1c0,0,0,0,0,0
	c0,0,0,0,0,0c0,0,0,0,0,0c0,0,0,0,0-0.1C56.5,28.9,56.5,28.9,56.5,28.8L56.5,28.8L56.5,28.8L56.5,28.8z"/>
</svg>
