<?xml version="1.0" standalone="no"?>
<!DOCTYPE svg PUBLIC "-//W3C//DTD SVG 1.1//EN" "http://www.w3.org/Graphics/SVG/1.1/DTD/svg11.dtd">
<svg xmlns="http://www.w3.org/2000/svg" xmlns:xlink="http://www.w3.org/1999/xlink" version="1.1">
<metadata>
Created by FontForge 20201107 at Thu Nov 25 15:19:06 2021
 By user
</metadata>
<defs>
<font id="nkia-icon" horiz-adv-x="1000">
  <font-face font-family="nkia" font-weight="400" font-stretch="normal" units-per-em="1000" panose-1="2 0 5 9 0 0 0 0 0 0" ascent="800" descent="-200" bbox="-9.375 -209.375 1030.06 806.25" underline-thickness="50" underline-position="-100" unicode-range="U+0024-2713"></font-face>
    <missing-glyph></missing-glyph>
    <glyph glyph-name="-500px" d="M247.223 144.444c-5.55566 13.8887 16.666 22.2227 16.666 16.667c16.667 5.55566 27.7783 8.33301 33.334 -5.55566c13.8887 -36.1113 36.1104 -72.2227 55.5547 -94.4443v188.889v0c0 47.2227 19.4453 94.4443 55.5557 130.556
c38.8896 38.8887 88.8896 58.333 141.667 58.333c108.333 0 197.223 -88.8887 197.223 -197.222c0 -108.334 -88.8896 -197.223 -197.223 -197.223c-22.2227 0 -38.8887 0 -63.8887 8.33301c0 0 -13.8887 5.55566 -5.55566 33.334c2.77734 8.33301 8.33301 30.5557 25 25
c2.77734 0 30.5557 -5.55566 44.4443 -5.55566c77.7773 0 138.889 58.333 138.889 136.111c0 36.1104 -13.8887 69.4443 -38.8887 94.4443s-61.1113 38.8887 -97.2227 38.8887c-38.8887 0 -75 -16.667 -100 -44.4443c-22.2217 -25 -36.1104 -58.333 -36.1104 -88.8887
v-230.556c41.666 -22.2227 88.8887 -36.1113 136.11 -36.1113c72.2227 0 141.667 27.7773 191.667 77.7773s77.7783 116.667 77.7783 188.89c0 72.2217 -27.7783 138.889 -77.7783 188.889s-116.667 77.7773 -188.889 77.7773
c-72.2227 0 -138.889 -27.7773 -188.889 -77.7773c0 0 -30.5557 -30.5557 -41.667 -47.2227v0c-8.33301 -8.33301 -13.8887 -16.666 -41.667 -11.1104c-16.666 2.77734 -30.5557 13.8887 -30.5557 25v380.555c0 11.1113 8.33398 22.2227 19.4453 22.2227h488.889
c16.666 0 16.666 -22.2227 16.666 -30.5557c0 -8.33301 0 -30.5557 -16.666 -30.5557h-452.778v-269.444c30.5557 33.333 86.1113 66.667 116.667 80.5557c41.667 16.667 86.1113 25 130.556 25c44.4443 0 86.1113 -8.33301 127.777 -25
c38.8896 -16.667 75 -38.8887 102.778 -69.4443c30.5557 -27.7783 52.7773 -63.8887 69.4443 -102.778c16.667 -41.666 25 -83.333 25 -127.777s-8.33301 -86.1113 -25 -127.777c-16.667 -38.8896 -38.8887 -72.2227 -69.4443 -102.778
c-27.7783 -30.5557 -63.8887 -52.7773 -102.778 -69.4443c-41.666 -16.667 -83.333 -25 -127.777 -25c-44.4443 0 -86.1113 8.33301 -127.778 25c-38.8887 16.667 -72.2217 38.8887 -102.777 69.4443c-30.5557 27.7783 -52.7773 63.8887 -69.4443 102.778zM480.556 197.223
c0 2.77734 0 5.55469 -2.77832 11.1104l36.1113 36.1113l-36.1113 36.1113c-5.55469 5.55566 -2.77734 13.8887 8.33398 25c5.55566 8.33301 11.1113 11.1113 16.666 11.1113c2.77832 0 5.55566 0 8.33398 -2.77832l36.1113 -36.1113l36.1104 36.1113
c8.33398 5.55566 16.667 2.77832 27.7783 -8.33301c5.55566 -8.33301 13.8887 -16.667 5.55566 -25l-36.1113 -36.1113l36.1113 -36.1113c5.55566 -5.55566 11.1104 -13.8887 -2.77832 -27.7773c-5.55566 -5.55566 -11.1113 -8.33301 -16.666 -8.33301
c-5.55566 0 -8.33398 2.77734 -11.1113 5.55469l-33.334 33.334l-36.1104 -36.1113s-2.77832 -2.77734 -8.33398 -2.77734c-5.55566 0 -11.1104 2.77734 -16.666 8.33301v0c-5.55566 5.55566 -11.1113 11.1113 -11.1113 16.667zM558.333 691.667
c61.1113 0 122.223 -11.1113 183.334 -38.8896c50 -19.4443 91.666 -47.2217 130.556 -83.333c8.33301 -8.33301 2.77734 -19.4443 -8.33398 -30.5557c-8.33301 -5.55566 -13.8887 -13.8887 -22.2217 -13.8887c-2.77832 0 -5.55566 0 -8.33398 2.77734
c-41.666 36.1113 -77.7773 58.334 -116.666 75c-50 19.4453 -102.778 30.5557 -155.556 30.5557c-47.2227 0 -100 -11.1104 -147.223 -27.7773c-13.8887 -5.55566 -22.2217 13.8887 -25 22.2217c-5.55566 11.1113 -5.55566 16.667 -5.55566 22.2227
s2.77832 8.33301 8.33398 11.1113c44.4443 19.4443 108.333 30.5557 166.666 30.5557zM875 -30.5557c19.4443 -19.4443 13.8887 -27.7773 11.1113 -33.333l-2.77832 -2.77832c-41.666 -41.666 -91.666 -75 -144.444 -97.2217
c-55.5557 -25 -116.666 -36.1113 -177.777 -36.1113s-122.223 11.1113 -177.778 36.1113c-52.7773 22.2217 -102.777 55.5557 -144.444 97.2217c-41.666 41.667 -75 91.667 -97.2217 144.444c-13.8896 33.334 -25 69.4453 -30.5557 105.556v0
c0 13.8896 19.4443 19.4443 27.7773 19.4443c16.667 2.77832 27.7783 2.77832 33.334 -8.33301v-2.77734c0 -11.1113 8.33301 -44.4443 25 -88.8896c19.4443 -44.4443 47.2217 -86.1104 86.1104 -125c36.1113 -38.8887 77.7783 -66.666 125 -86.1104
c47.2227 -19.4443 100 -30.5557 152.778 -30.5557c52.7773 0 102.777 11.1113 152.777 30.5557c47.2227 22.2217 88.8887 50 125 86.1104l2.77832 2.77832c2.77734 2.77734 8.33301 5.55566 13.8887 2.77734c5.55566 -2.77734 11.1113 -5.55566 19.4443 -13.8887z" unicode="&#xe000;"></glyph>
    <glyph glyph-name="address-book-o" d="M902.777 744.444c8.33398 0 13.8896 -5.55566 13.8896 -13.8887v-861.111c0 -8.33301 -5.55566 -13.8887 -13.8896 -13.8887h-750c-8.33301 0 -13.8887 5.55566 -13.8887 13.8887v152.778h-41.666c-8.33398 0 -13.8896 5.55469 -13.8896 13.8887v27.7773
c0 8.33398 5.55566 13.8887 13.8896 13.8887h41.666v194.445h-41.666c-8.33398 0 -13.8896 5.55469 -13.8896 13.8887v27.7773c0 8.33398 5.55566 13.8887 13.8896 13.8887h41.666v194.445h-41.666c-8.33398 0 -13.8896 5.55469 -13.8896 13.8887v27.7773
c0 8.33398 5.55566 13.8887 13.8896 13.8887h41.666v152.778c0 8.33301 5.55566 13.8887 13.8887 13.8887h750zM861.111 -88.8887v777.777h-666.667v-111.111h41.667c8.33301 0 13.8887 -5.55469 13.8887 -13.8887v-27.7773c0 -8.33398 -5.55566 -13.8887 -13.8887 -13.8887
h-41.667v-194.445h41.667c8.33301 0 13.8887 -5.55469 13.8887 -13.8887v-27.7773c0 -8.33398 -5.55566 -13.8887 -13.8887 -13.8887h-41.667v-194.445h41.667c8.33301 0 13.8887 -5.55469 13.8887 -13.8887v-27.7773c0 -8.33398 -5.55566 -13.8887 -13.8887 -13.8887
h-41.667v-111.111h666.667zM447.223 219.444c-88.8896 86.1113 -130.556 200 -141.667 233.333c-2.77832 11.1113 0 27.7783 11.1113 36.1113c22.2217 16.667 58.333 33.334 77.7773 33.334h8.33301c13.8896 -8.33398 30.5557 -38.8896 38.8896 -58.334
c25 -52.7773 22.2217 -63.8887 19.4443 -66.666c-5.55566 -11.1113 -13.8887 -19.4453 -25 -30.5557c11.1113 -16.667 30.5557 -47.2227 69.4443 -86.1113c41.667 -38.8887 69.4443 -58.333 86.1113 -69.4443c11.1104 11.1113 22.2217 19.4443 30.5557 25
c2.77734 2.77734 5.55469 2.77734 8.33301 2.77734c16.667 0 50 -16.666 63.8887 -22.2217c30.5557 -16.667 50 -27.7783 52.7783 -38.8896c11.1104 -19.4443 -11.1113 -63.8887 -30.5557 -88.8887c-8.33398 -5.55566 -16.667 -11.1113 -27.7783 -11.1113v0
c-2.77734 0 -5.55566 2.77832 -8.33301 2.77832c-33.333 11.1113 -144.444 50 -233.333 138.889z" unicode="&#xe001;"></glyph>
    <glyph glyph-name="address-book" d="M902.777 744.444c8.33398 0 13.8896 -5.55566 13.8896 -13.8887v-861.111c0 -8.33301 -5.55566 -13.8887 -13.8896 -13.8887h-750c-8.33301 0 -13.8887 5.55566 -13.8887 13.8887v152.778h-41.666c-8.33398 0 -13.8896 5.55469 -13.8896 13.8887v27.7773
c0 8.33398 5.55566 13.8887 13.8896 13.8887h41.666v194.445h-41.666c-8.33398 0 -13.8896 5.55469 -13.8896 13.8887v27.7773c0 8.33398 5.55566 13.8887 13.8896 13.8887h41.666v194.445h-41.666c-8.33398 0 -13.8896 5.55469 -13.8896 13.8887v27.7773
c0 8.33398 5.55566 13.8887 13.8896 13.8887h41.666v152.778c0 8.33301 5.55566 13.8887 13.8887 13.8887h750zM716.667 88.8887c19.4443 25 41.666 69.4443 36.1104 88.8887c-5.55469 8.33398 -22.2217 19.4453 -52.7773 36.1113
c-13.8887 5.55566 -47.2227 22.2227 -63.8887 22.2227c-2.77832 0 -5.55566 -2.77832 -8.33398 -2.77832c-11.1104 -5.55566 -19.4443 -13.8887 -30.5547 -25c-19.4453 11.1113 -47.2227 30.5557 -86.1113 69.4443c-38.8887 41.667 -58.334 69.4453 -69.4443 86.1113
c11.1104 11.1113 19.4443 22.2227 25 30.5557c0 2.77832 5.55566 13.8887 -19.4443 66.667c-8.33398 19.4443 -27.7783 52.7773 -38.8896 58.333c-2.77734 2.77832 -5.55566 2.77832 -11.1104 2.77832c-19.4453 0 -55.5557 -13.8896 -77.7783 -33.334
c-11.1113 -8.33301 -13.8887 -25 -11.1113 -36.1113c11.1113 -33.333 50 -144.444 138.89 -233.333c88.8887 -86.1113 200 -127.777 233.333 -138.889c2.77734 -2.77832 5.55566 -2.77832 8.33301 -2.77832v0c11.1113 0 22.2227 2.77832 27.7783 11.1113z" unicode="&#xe002;"></glyph>
    <glyph glyph-name="address-card-o" d="M986.111 633.333c8.33301 0 13.8887 -5.55566 13.8887 -13.8887v-638.889c0 -8.33301 -5.55566 -13.8887 -13.8887 -13.8887h-972.223c-8.33301 0 -13.8887 5.55566 -13.8887 13.8887v638.889c0 8.33301 5.55566 13.8887 13.8887 13.8887h972.223zM944.444 22.2227
v555.555h-888.889v-555.555h888.889zM513.889 327.777c-8.33301 0 -13.8887 5.55566 -13.8887 13.8896v27.7773c0 8.33301 5.55566 13.8887 13.8887 13.8887h361.111c8.33301 0 13.8887 -5.55566 13.8887 -13.8887v-27.7773c0 -8.33398 -5.55566 -13.8896 -13.8887 -13.8896
h-361.111zM513.889 216.667c-8.33301 0 -13.8887 5.55566 -13.8887 13.8887v27.7773c0 8.33398 5.55566 13.8896 13.8887 13.8896h361.111c8.33301 0 13.8887 -5.55566 13.8887 -13.8896v-27.7773c0 -8.33301 -5.55566 -13.8887 -13.8887 -13.8887h-361.111z
M513.889 105.556c-8.33301 0 -13.8887 5.55566 -13.8887 13.8887v27.7783c0 8.33301 5.55566 13.8887 13.8887 13.8887h361.111c8.33301 0 13.8887 -5.55566 13.8887 -13.8887v-27.7783c0 -8.33301 -5.55566 -13.8887 -13.8887 -13.8887h-361.111zM513.889 438.889
c-8.33301 0 -13.8887 5.55566 -13.8887 13.8887v27.7783c0 8.33301 5.55566 13.8887 13.8887 13.8887h200c8.33398 0 13.8887 -5.55566 13.8887 -13.8887v-27.7783c0 -8.33301 -5.55469 -13.8887 -13.8887 -13.8887h-200zM125 77.7773
c-8.33301 0 -13.8887 5.55566 -13.8887 13.8896v130.556c0 52.7773 30.5557 100 75 119.444c-11.1113 16.666 -19.4443 36.1104 -19.4443 58.333v27.7773c0 52.7783 44.4443 94.4453 100 94.4453h22.2217c55.5557 0 100 -41.667 100 -94.4453v-27.7773
c0 -22.2227 -5.55566 -41.667 -19.4443 -58.333c44.4443 -19.4443 75 -66.667 75 -119.444v-130.556c0 -8.33398 -5.55566 -13.8896 -13.8887 -13.8896h-305.556zM222.223 427.777v-27.7773c0 -16.667 11.1104 -30.5557 27.7773 -36.1113l16.667 -5.55566
c2.77734 -2.77734 8.33301 -2.77734 11.1104 -2.77734c2.77832 0 8.33398 0 13.8896 2.77734l13.8887 5.55566c16.667 5.55566 27.7773 19.4443 27.7773 36.1113v27.7773c0 22.2227 -19.4443 38.8896 -44.4443 38.8896h-22.2217c-25 0 -44.4443 -16.667 -44.4443 -38.8896z
M166.667 222.223v-88.8896h219.444v88.8896c0 41.666 -33.334 77.7773 -75 77.7773h-69.4443c-41.667 0 -75 -36.1113 -75 -77.7773z" unicode="&#xe003;"></glyph>
    <glyph glyph-name="address-card" d="M313.889 300c41.667 0 75 -36.1113 75 -77.7773v-88.8896h-222.222v88.8896c0 41.666 33.333 77.7773 75 77.7773h72.2217zM250 363.889c-16.667 5.55566 -27.7773 19.4443 -27.7773 36.1113v27.7773c0 22.2227 19.4443 38.8896 44.4443 38.8896h19.4443
c25 0 44.4443 -16.667 44.4443 -38.8896v-27.7773c0 -16.667 -11.1113 -30.5557 -27.7783 -36.1113l-13.8887 -5.55566c-2.77734 -2.77734 -8.33301 -2.77734 -11.1113 -2.77734c-2.77734 0 -8.33301 0 -13.8887 2.77734zM986.111 633.333
c8.33301 0 13.8887 -5.55566 13.8887 -13.8887v-638.889c0 -8.33301 -5.55566 -13.8887 -13.8887 -13.8887h-972.223c-8.33301 0 -13.8887 5.55566 -13.8887 13.8887v638.889c0 8.33301 5.55566 13.8887 13.8887 13.8887h972.223zM500 480.556v-27.7783
c0 -8.33301 5.55566 -13.8887 13.8887 -13.8887h200c8.33398 0 13.8887 5.55566 13.8887 13.8887v27.7783c0 8.33301 -5.55469 13.8887 -13.8887 13.8887h-200c-8.33301 0 -13.8887 -5.55566 -13.8887 -13.8887zM444.444 91.667v130.556
c0 52.7773 -30.5557 97.2217 -75 119.444c11.1113 16.666 19.4443 36.1104 19.4443 58.333v27.7773c0 52.7783 -44.4443 94.4453 -100 94.4453h-22.2217c-55.5557 0 -100 -41.667 -100 -94.4453v-27.7773c0 -22.2227 8.33301 -41.667 19.4443 -58.333
c-44.4443 -19.4443 -75 -66.667 -75 -119.444v-130.556c0 -8.33398 5.55566 -13.8896 13.8887 -13.8896h305.556c8.33301 0 13.8887 5.55566 13.8887 13.8896zM888.889 119.444v27.7783c0 8.33301 -5.55566 13.8887 -13.8887 13.8887h-361.111
c-8.33301 0 -13.8887 -5.55566 -13.8887 -13.8887v-27.7783c0 -8.33301 5.55566 -13.8887 13.8887 -13.8887h361.111c8.33301 0 13.8887 5.55566 13.8887 13.8887zM888.889 230.556v27.7773c0 8.33398 -5.55566 13.8896 -13.8887 13.8896h-361.111
c-8.33301 0 -13.8887 -5.55566 -13.8887 -13.8896v-27.7773c0 -8.33301 5.55566 -13.8887 13.8887 -13.8887h361.111c8.33301 0 13.8887 5.55566 13.8887 13.8887zM888.889 341.667v27.7773c0 8.33301 -5.55566 13.8887 -13.8887 13.8887h-361.111
c-8.33301 0 -13.8887 -5.55566 -13.8887 -13.8887v-27.7773c0 -8.33398 5.55566 -13.8896 13.8887 -13.8896h361.111c8.33301 0 13.8887 5.55566 13.8887 13.8896z" unicode="&#xe004;"></glyph>
    <glyph glyph-name="adjust" d="M500 800c277.777 0 500 -225 500 -500s-225 -500 -500 -500c-69.4443 0 -133.333 13.8887 -194.444 38.8887c-88.8887 36.1113 -166.667 100 -219.444 180.556c-55.5557 80.5557 -86.1113 177.778 -86.1113 280.556s33.333 200 86.1113 280.556
c52.7773 77.7773 130.556 141.667 219.444 180.556c58.333 25 125 38.8887 194.444 38.8887zM500 -144.444c244.444 0 444.444 200 444.444 444.444c0 244.444 -200 444.444 -444.444 444.444v-888.889z" unicode="&#xe005;"></glyph>
    <glyph glyph-name="adn" d="M500 477.777l130.556 -200h-261.111zM738.889 133.333h61.1113l-300 450l-297.223 -450h61.1113l66.667 105.556h338.889zM1000 300c0 -91.667 -22.2227 -175 -66.667 -250c-44.4443 -77.7773 -105.556 -136.111 -183.333 -183.333
c-77.7773 -47.2227 -158.333 -66.667 -250 -66.667s-175 22.2227 -250 66.667c-75 44.4443 -138.889 105.556 -183.333 183.333s-66.667 158.333 -66.667 250s22.2227 175 66.667 250s105.556 138.889 183.333 183.333c77.7773 44.4443 161.111 66.667 250 66.667
s175 -22.2227 250 -66.667c75 -44.4443 138.889 -105.556 183.333 -183.333c44.4443 -75 66.667 -158.333 66.667 -250z" unicode="&#xe006;"></glyph>
    <glyph glyph-name="align-center" d="M930.556 688.889h-861.111c-8.33301 0 -13.8887 5.55566 -13.8887 13.8887v27.7783c0 8.33301 5.55566 13.8887 13.8887 13.8887h861.111c8.33301 0 13.8887 -5.55566 13.8887 -13.8887v-27.7783c0 -8.33301 -5.55566 -13.8887 -13.8887 -13.8887zM819.444 494.444
h-638.889c-8.33301 0 -13.8887 5.55566 -13.8887 13.8887v27.7783c0 8.33301 5.55566 13.8887 13.8887 13.8887h638.889c8.33301 0 13.8887 -5.55566 13.8887 -13.8887v-27.7783c0 -8.33301 -5.55566 -13.8887 -13.8887 -13.8887zM819.444 50h-638.889
c-8.33301 0 -13.8887 5.55566 -13.8887 13.8887v27.7783c0 8.33301 5.55566 13.8887 13.8887 13.8887h638.889c8.33301 0 13.8887 -5.55566 13.8887 -13.8887v-27.7783c0 -8.33301 -5.55566 -13.8887 -13.8887 -13.8887zM930.556 -144.444h-861.111
c-8.33301 0 -13.8887 5.55566 -13.8887 13.8887v27.7783c0 8.33301 5.55566 13.8887 13.8887 13.8887h861.111c8.33301 0 13.8887 -5.55566 13.8887 -13.8887v-27.7783c0 -8.33301 -5.55566 -13.8887 -13.8887 -13.8887zM930.556 272.223h-861.111
c-8.33301 0 -13.8887 5.55469 -13.8887 13.8887v27.7773c0 8.33398 5.55566 13.8887 13.8887 13.8887h861.111c8.33301 0 13.8887 -5.55469 13.8887 -13.8887v-27.7773c0 -8.33398 -5.55566 -13.8887 -13.8887 -13.8887z" unicode="&#xe007;"></glyph>
    <glyph glyph-name="align-left" d="M930.556 688.889h-861.111c-8.33301 0 -13.8887 5.55566 -13.8887 13.8887v27.7783c0 8.33301 5.55566 13.8887 13.8887 13.8887h861.111c8.33301 0 13.8887 -5.55566 13.8887 -13.8887v-27.7783c0 -8.33301 -5.55566 -13.8887 -13.8887 -13.8887zM708.333 494.444
h-638.889c-8.33301 0 -13.8887 5.55566 -13.8887 13.8887v27.7783c0 8.33301 5.55566 13.8887 13.8887 13.8887h638.889c8.33398 0 13.8896 -5.55566 13.8896 -13.8887v-27.7783c0 -8.33301 -5.55566 -13.8887 -13.8896 -13.8887zM708.333 50h-638.889
c-8.33301 0 -13.8887 5.55566 -13.8887 13.8887v27.7783c0 8.33301 5.55566 13.8887 13.8887 13.8887h638.889c8.33398 0 13.8896 -5.55566 13.8896 -13.8887v-27.7783c0 -8.33301 -5.55566 -13.8887 -13.8896 -13.8887zM930.556 -144.444h-861.111
c-8.33301 0 -13.8887 5.55566 -13.8887 13.8887v27.7783c0 8.33301 5.55566 13.8887 13.8887 13.8887h861.111c8.33301 0 13.8887 -5.55566 13.8887 -13.8887v-27.7783c0 -8.33301 -5.55566 -13.8887 -13.8887 -13.8887zM930.556 272.223h-861.111
c-8.33301 0 -13.8887 5.55469 -13.8887 13.8887v27.7773c0 8.33398 5.55566 13.8887 13.8887 13.8887h861.111c8.33301 0 13.8887 -5.55469 13.8887 -13.8887v-27.7773c0 -8.33398 -5.55566 -13.8887 -13.8887 -13.8887z" unicode="&#xe008;"></glyph>
    <glyph glyph-name="amazon" d="M841.667 -2.77734c5.55566 2.77734 8.33301 2.77734 13.8887 2.77734c2.77734 0 5.55566 -2.77734 5.55566 -8.33301s-2.77832 -11.1113 -8.33398 -16.667c-5.55469 -5.55566 -11.1104 -13.8887 -22.2217 -22.2227c-11.1113 -8.33301 -27.7783 -22.2217 -50 -36.1104
c-22.2227 -13.8896 -47.2227 -27.7783 -72.2227 -38.8896c-27.7773 -11.1104 -58.333 -22.2217 -97.2217 -30.5547c-38.8887 -8.33398 -77.7783 -13.8896 -119.444 -13.8896c-41.667 0 -83.334 5.55566 -125 16.667c-41.667 11.1113 -77.7783 25 -108.334 38.8887
c-33.333 16.667 -63.8887 33.334 -91.666 55.5557c-27.7783 19.4443 -52.7783 38.8887 -69.4443 55.5557c-16.667 16.667 -30.5557 30.5557 -44.4453 44.4443c-2.77734 2.77832 -5.55469 5.55566 -5.55469 8.33301v5.55566c0 2.77832 2.77734 2.77832 2.77734 2.77832
h5.55566c2.77734 0 5.55566 0 5.55566 -2.77832c66.666 -41.666 119.444 -69.4443 155.556 -86.1104c136.11 -61.1113 272.222 -77.7783 416.666 -47.2227c69.4443 16.667 138.89 41.667 208.334 72.2227zM947.223 58.333c2.77734 -5.55566 5.55469 -16.666 0 -36.1104
c-2.77832 -19.4453 -8.33398 -36.1113 -13.8896 -52.7783c-11.1104 -27.7773 -27.7773 -50 -44.4443 -63.8887c-5.55566 -5.55566 -11.1113 -5.55566 -13.8887 -5.55566c-2.77734 2.77734 -2.77734 5.55566 0 11.1113c8.33301 16.666 13.8887 36.1113 22.2227 63.8887
c8.33301 27.7773 8.33301 44.4443 2.77734 50c-2.77734 2.77734 -5.55566 5.55566 -8.33301 5.55566c-2.77832 2.77734 -8.33398 2.77734 -13.8896 2.77734h-16.666h-19.4443h-16.667s-8.33301 0 -16.667 -2.77734c-8.33301 -2.77832 -11.1104 0 -11.1104 0h-5.55566
h-5.55566h-5.55566h-2.77832v0h-2.77734v0v2.77734c-2.77734 5.55566 5.55566 11.1113 25 19.4443c19.4443 8.33398 36.1113 13.8896 52.7773 16.667c16.667 2.77832 33.334 2.77832 55.5557 0c22.2227 -2.77734 36.1113 -5.55566 38.8896 -11.1113zM744.444 288.889
c0 -11.1113 2.77832 -22.2217 8.33301 -33.333c5.55566 -11.1113 11.1113 -22.2227 16.667 -30.5557c5.55566 -8.33301 13.8887 -16.667 19.4443 -25s11.1113 -13.8887 16.667 -16.667l5.55566 -5.55566l-119.444 -116.666c-13.8896 13.8887 -27.7783 25 -41.667 38.8887
l-30.5557 30.5557l-8.33301 11.1113c-2.77832 2.77734 -8.33398 8.33301 -13.8887 16.666c-13.8896 -19.4443 -30.5557 -38.8887 -50 -52.7773c-19.4453 -13.8887 -41.667 -25 -66.667 -33.333c-22.2227 -5.55566 -47.2227 -11.1113 -72.2227 -11.1113
s-50 2.77734 -72.2217 11.1113c-22.2227 8.33301 -44.4443 19.4443 -61.1113 33.333c-16.667 13.8887 -33.333 33.333 -44.4443 58.333c-8.33301 25 -13.8887 52.7783 -13.8887 86.1113c0 27.7773 5.55566 55.5557 13.8887 80.5557
c8.33301 25 22.2217 44.4443 36.1113 61.1113c13.8887 16.666 33.333 30.5557 55.5557 44.4443c22.2217 13.8887 41.666 22.2217 63.8887 30.5557c19.4443 8.33301 44.4443 13.8887 66.666 16.666c25 5.55566 44.4453 8.33398 61.1113 8.33398
c16.667 0 33.334 2.77734 52.7783 2.77734v66.667c0 22.2217 -2.77832 38.8887 -11.1113 50c-11.1113 19.4443 -33.333 27.7773 -63.8887 27.7773h-8.33398c-2.77734 0 -11.1104 -2.77734 -22.2217 -5.55566c-11.1113 -2.77734 -19.4443 -8.33301 -27.7783 -16.666
c-8.33301 -5.55566 -19.4443 -16.667 -27.7773 -30.5557c-8.33301 -13.8887 -16.667 -30.5557 -22.2227 -50l-152.777 13.8887c0 19.4443 2.77734 41.667 11.1113 61.1113c8.33301 19.4443 19.4443 38.8887 36.1104 58.333c16.667 19.4443 33.334 36.1113 55.5557 50
c22.2227 13.8887 47.2227 25 77.7783 33.333c30.5557 8.33398 63.8887 13.8896 100 13.8896c33.333 0 66.666 -5.55566 94.4443 -13.8896c27.7773 -8.33301 50 -19.4443 66.667 -33.333c16.666 -13.8887 30.5547 -27.7773 41.666 -44.4443
c11.1113 -13.8887 19.4443 -27.7773 22.2227 -41.667c5.55566 -13.8887 5.55566 -27.7773 5.55566 -38.8887v-305.556h2.77734zM394.444 277.777c0 -30.5547 11.1113 -52.7773 36.1113 -69.4443c22.2217 -13.8887 47.2217 -19.4443 72.2217 -11.1104
c27.7783 8.33301 50 30.5547 58.334 63.8887c5.55566 16.666 8.33301 33.333 8.33301 52.7773v83.334c-19.4443 0 -38.8887 -2.77832 -58.333 -5.55566c-16.667 -2.77832 -36.1113 -8.33398 -55.5557 -16.667c-19.4443 -8.33301 -33.333 -19.4443 -44.4443 -36.1113
c-11.1113 -19.4443 -16.667 -38.8887 -16.667 -61.1113z" unicode="&#xe009;"></glyph>
    <glyph glyph-name="ambulance" d="M541.667 327.777c-8.33398 0 -13.8896 5.55566 -13.8896 13.8896v27.7773c0 8.33301 5.55566 13.8887 13.8896 13.8887h97.2217v97.2227c0 8.33301 5.55566 13.8887 13.8887 13.8887h27.7783c8.33301 0 13.8887 -5.55566 13.8887 -13.8887v-97.2227h97.2227
c8.33301 0 13.8887 -5.55566 13.8887 -13.8887v-27.7773c0 -8.33398 -5.55566 -13.8896 -13.8887 -13.8896h-97.2227v-97.2217c0 -8.33301 -5.55566 -13.8887 -13.8887 -13.8887h-27.7783c-8.33301 0 -13.8887 5.55566 -13.8887 13.8887v97.2217h-97.2217zM972.223 633.333
c16.666 0 27.7773 -11.1104 27.7773 -27.7773v-527.778c0 -16.666 -11.1113 -27.7773 -27.7773 -27.7773h-86.1113c-13.8887 -47.2227 -55.5557 -83.333 -108.334 -83.333c-52.7773 0 -97.2217 36.1104 -108.333 83.333h-308.333
c-16.667 0 -27.7783 11.1113 -27.7783 27.7773c0 -61.1104 -50 -111.11 -111.11 -111.11c-61.1113 0 -111.111 50 -111.111 111.11h-83.334c-16.666 0 -27.7773 11.1113 -27.7773 27.7783v247.222c0 8.33398 2.77734 13.8896 8.33301 16.667l133.334 169.444
c5.55566 8.33398 11.1104 11.1113 19.4443 11.1113h33.333v41.667c0 8.33301 5.55566 13.8887 13.8887 13.8887h83.334c8.33301 0 13.8887 -5.55566 13.8887 -13.8887v-41.667h27.7773v55.5557c0 16.667 11.1113 27.7773 27.7783 27.7773h611.111zM222.223 22.2227
c30.5547 0 55.5547 25 55.5547 55.5547c0 30.5557 -25 55.5557 -55.5547 55.5557c-30.5557 0 -55.5557 -25 -55.5557 -55.5557c0 -30.5547 25 -55.5547 55.5557 -55.5547zM316.667 133.333h16.666v361.111h-158.333l-119.444 -150v-211.111h72.2217
c19.4453 33.334 55.5557 55.5557 94.4453 55.5557c38.8887 0 75 -22.2217 94.4443 -55.5557zM825 50c5.55566 8.33301 8.33301 16.667 8.33301 27.7773c0 11.1113 -2.77734 19.4453 -8.33301 27.7783c-8.33301 16.667 -27.7773 27.7773 -47.2227 27.7773
c-19.4443 0 -38.8887 -11.1104 -47.2217 -27.7773c-5.55566 -8.33301 -8.33301 -16.667 -8.33301 -27.7783c0 -11.1104 2.77734 -19.4443 8.33301 -27.7773c8.33301 -16.667 27.7773 -27.7773 47.2217 -27.7773c19.4453 0 38.8896 11.1104 47.2227 27.7773zM944.444 105.556
v472.222h-555.556v-55.5547v-416.667h280.556c13.8887 47.2217 55.5557 83.333 108.333 83.333c52.7783 0 97.2227 -36.1113 108.334 -83.333h58.333z" unicode="&#xe00a;"></glyph>
    <glyph glyph-name="asl-interpreting" d="M447.223 272.223c-16.667 0 -30.5557 8.33301 -36.1113 25c-5.55566 11.1104 -11.1113 16.666 -22.2227 22.2217c-8.33301 5.55566 -16.666 8.33301 -27.7773 8.33301c-16.667 0 -27.7783 -5.55469 -38.8887 -16.666
c-11.1113 -11.1113 -16.667 -22.2227 -16.667 -38.8887c0 -16.667 5.55566 -27.7783 16.667 -38.8896l5.55469 -2.77734c11.1113 -8.33301 22.2227 -13.8887 36.1113 -13.8887c11.1113 0 19.4443 2.77734 30.5557 8.33301c11.1113 5.55566 16.667 13.8887 22.2227 22.2227
c2.77734 16.666 13.8887 25 30.5557 25zM694.444 327.777c0 16.667 -5.55566 27.7783 -16.667 38.8896l-5.55469 2.77734c-8.33398 8.33301 -19.4453 13.8887 -33.334 13.8887c-11.1113 0 -19.4443 -2.77734 -30.5557 -8.33301
c-8.33301 -5.55566 -16.666 -13.8887 -22.2217 -22.2227c-8.33398 -16.666 -19.4443 -22.2217 -36.1113 -25c16.667 0 30.5557 -8.33301 36.1113 -25c5.55566 -11.1104 11.1113 -16.666 22.2217 -22.2217c11.1113 -5.55566 19.4443 -8.33301 30.5557 -8.33301
c16.667 0 27.7783 5.55469 38.8887 16.666c11.1113 11.1113 16.667 22.2227 16.667 38.8887zM508.333 425c-5.55566 -11.1113 -13.8887 -16.667 -25 -22.2227c-11.1104 -2.77734 -22.2217 -2.77734 -30.5557 2.77832c-16.666 8.33301 -36.1104 13.8887 -58.333 13.8887
c-13.8887 0 -27.7773 -2.77734 -41.667 -8.33301h2.77832h2.77734c27.7783 0 50 -8.33398 75 -22.2227c22.2227 -13.8887 38.8896 -33.333 52.7783 -58.333c5.55566 -11.1113 5.55566 -22.2227 2.77734 -30.5557c-2.77734 -11.1113 -11.1113 -19.4443 -22.2217 -25
c-5.55566 -2.77734 -11.1113 -2.77734 -16.667 -2.77734c5.55566 0 11.1113 0 16.667 -2.77832c11.1104 -5.55566 16.666 -13.8887 22.2217 -25c2.77832 -11.1113 2.77832 -22.2217 -2.77734 -30.5557c-11.1113 -25 -27.7783 -44.4443 -52.7783 -58.333
c-22.2217 -13.8887 -44.4443 -22.2227 -72.2217 -22.2227h-2.77832c-5.55566 0 -11.1104 0 -19.4443 2.77832l-125 11.1113l-102.777 -52.7783c-2.77832 -2.77734 -8.33398 -2.77734 -13.8887 -2.77734c-11.1113 0 -19.4453 5.55566 -25 13.8887l-69.4453 138.889
c-2.77734 8.33301 -2.77734 13.8887 -2.77734 22.2227c0 8.33301 5.55566 13.8887 13.8887 16.666l91.667 52.7783l63.8887 116.666c5.55566 41.667 16.667 83.334 38.8887 125c22.2227 41.667 50 75 86.1113 102.778c8.33301 5.55566 19.4443 8.33301 30.5557 8.33301
s19.4443 -5.55566 27.7773 -13.8887c5.55566 -11.1113 8.33398 -19.4443 8.33398 -30.5557c0 -11.1113 -5.55566 -19.4443 -13.8887 -27.7773c-19.4453 -16.667 -36.1113 -36.1113 -50 -55.5557c36.1104 25 75 38.8887 116.666 44.4443
c11.1113 2.77734 22.2227 0 30.5557 -8.33301c8.33301 -8.33398 13.8887 -16.667 16.667 -27.7783c2.77734 -11.1113 0 -22.2217 -8.33398 -30.5557c-8.33301 -8.33301 -16.666 -13.8887 -27.7773 -16.666c-25 -2.77832 -47.2227 -11.1113 -69.4443 -25
c13.8887 2.77734 27.7773 5.55469 41.667 5.55469c33.333 0 63.8887 -8.33301 94.4443 -22.2217c11.1104 -5.55566 16.666 -13.8887 22.2217 -25c2.77832 -11.1113 0 -22.2227 -5.55566 -30.5557zM927.777 494.444l69.4453 -138.889
c2.77734 -5.55566 2.77734 -13.8887 2.77734 -19.4443s-5.55566 -13.8887 -13.8887 -16.667l-91.667 -52.7773l-63.8887 -116.667c-5.55566 -44.4443 -19.4443 -86.1113 -38.8887 -127.777c-22.2227 -38.8896 -50 -75 -86.1113 -102.778
c-8.33301 -5.55566 -16.667 -8.33301 -27.7783 -8.33301c-13.8887 0 -25 5.55566 -33.333 13.8887c-8.33301 8.33301 -11.1113 19.4443 -8.33301 30.5557c0 11.1113 5.55566 19.4443 13.8887 27.7773c19.4443 16.667 36.1113 36.1113 50 55.5557
c-36.1113 -25 -75 -38.8887 -116.667 -44.4443h-5.55566c-11.1104 0 -19.4443 2.77832 -27.7773 11.1113s-13.8887 16.667 -13.8887 25c-2.77832 11.1113 0 22.2217 8.33301 30.5557c8.33301 8.33301 16.667 13.8887 27.7783 16.666c25 2.77832 47.2217 11.1113 69.4443 25
c-13.8896 -2.77734 -27.7783 -5.55469 -41.667 -5.55469c-33.333 0 -63.8887 8.33301 -94.4443 22.2217c-11.1113 5.55566 -16.667 13.8887 -22.2227 25c-2.77734 11.1113 -2.77734 22.2227 2.77832 30.5557c5.55566 11.1113 13.8887 16.667 25 22.2227
c11.1113 5.55469 22.2217 2.77734 30.5557 -2.77832c16.666 -8.33301 36.1104 -13.8887 58.333 -13.8887c13.8887 0 27.7773 2.77734 41.667 8.33301h-2.77832v0c-27.7773 0 -50 8.33398 -75 22.2227c-22.2217 13.8887 -38.8887 33.333 -52.7773 58.333
c-5.55566 11.1113 -5.55566 22.2227 -2.77832 30.5557c2.77832 11.1113 11.1113 19.4443 22.2227 25c5.55566 2.77734 11.1113 2.77734 16.667 2.77734c-5.55566 0 -11.1113 0 -16.667 2.77832c-11.1113 5.55566 -16.667 13.8887 -22.2227 25
c-2.77734 11.1113 -2.77734 22.2217 2.77832 30.5557c11.1113 25 27.7773 44.4443 52.7773 58.333c25 13.8887 47.2227 22.2227 75 22.2227h2.77832c2.77734 0 11.1104 0 19.4443 -2.77832l125 -11.1113l102.777 52.7783c2.77832 2.77734 8.33398 2.77734 13.8887 2.77734
c11.1113 0 19.4453 -5.55566 25 -13.8887z" unicode="&#xe00b;"></glyph>
    <glyph glyph-name="anchor" d="M861.111 77.7773c16.666 0 27.7773 -11.1104 27.7773 -27.7773v-83.333c0 -16.667 -11.1113 -27.7783 -27.7773 -27.7783c-16.667 0 -27.7783 11.1113 -27.7783 27.7783v16.666c-91.666 -83.333 -208.333 -127.777 -333.333 -127.777s-241.667 44.4443 -333.333 127.777
v-16.666c0 -16.667 -11.1113 -27.7783 -27.7783 -27.7783c-16.666 0 -27.7773 11.1113 -27.7773 27.7783v83.333c0 16.667 11.1113 27.7773 27.7773 27.7773h83.334c16.666 0 27.7773 -11.1104 27.7773 -27.7773s-11.1113 -27.7773 -27.7773 -27.7773h-13.8896
c72.2227 -66.667 163.89 -105.556 263.89 -111.111v444.444h-91.667c-8.33301 -16.667 -27.7783 -27.7783 -47.2227 -27.7783c-30.5557 0 -55.5557 25 -55.5557 55.5557c0 30.5557 25 55.5557 55.5557 55.5557c19.4443 0 38.8896 -11.1113 47.2227 -27.7773h91.667v113.889
c-47.2227 13.8887 -83.334 55.5557 -83.334 108.333c0 61.1113 50 111.111 111.111 111.111s111.111 -50 111.111 -111.111c0 -52.7773 -36.1113 -97.2217 -83.334 -108.333v-113.889h91.667c8.33301 16.666 27.7783 27.7773 47.2227 27.7773
c30.5557 0 55.5557 -25 55.5557 -55.5557c0 -30.5557 -25 -55.5557 -55.5557 -55.5557c-19.4443 0 -38.8896 11.1113 -47.2227 27.7783h-91.667v-444.444c97.2227 8.33301 188.89 44.4443 263.89 111.111h-13.8896c-16.666 0 -27.7773 11.1104 -27.7773 27.7773
s11.1113 27.7773 27.7773 27.7773h83.334zM444.444 633.333c0 -30.5557 25 -55.5557 55.5557 -55.5557s55.5557 25 55.5557 55.5557c0 30.5557 -25 55.5557 -55.5557 55.5557s-55.5557 -25 -55.5557 -55.5557z" unicode="&#xe00c;"></glyph>
    <glyph glyph-name="android" d="M372.223 586.111c5.55469 0 11.1104 2.77734 16.666 5.55566c5.55566 5.55566 5.55566 11.1104 5.55566 19.4443c0 5.55566 -2.77734 11.1113 -5.55566 16.666c-5.55566 2.77832 -11.1113 5.55566 -16.666 5.55566c-5.55566 0 -11.1113 -2.77734 -16.667 -5.55566
c-5.55566 -5.55469 -5.55566 -11.1104 -5.55566 -16.666s2.77734 -11.1113 5.55566 -16.667c5.55566 -5.55566 11.1113 -8.33301 16.667 -8.33301zM625 586.111c5.55566 0 11.1113 2.77734 16.667 5.55566c5.55566 5.55566 5.55566 11.1104 5.55566 16.666
c0 5.55566 -2.77832 11.1113 -5.55566 16.667c-2.77832 5.55566 -8.33398 8.33301 -16.667 8.33301s-11.1113 -2.77734 -16.667 -5.55566c-5.55566 -5.55469 -5.55566 -11.1104 -5.55566 -16.666s2.77832 -11.1113 5.55566 -16.667
c5.55566 -5.55566 11.1113 -8.33301 16.667 -8.33301zM138.889 475c16.667 0 30.5557 -5.55566 44.4443 -16.667c11.1113 -11.1104 16.667 -27.7773 16.667 -44.4443v-258.333c0 -16.667 -5.55566 -30.5557 -16.667 -44.4443
c-11.1104 -11.1113 -25 -16.667 -44.4443 -16.667s-30.5557 5.55566 -44.4443 16.667c-11.1113 11.1113 -16.667 27.7773 -16.667 44.4443v258.333c0 16.667 5.55566 30.5557 16.667 44.4443c11.1113 11.1113 25 16.667 44.4443 16.667zM775 463.889v-400
c0 -19.4443 -5.55566 -33.333 -19.4443 -47.2217c-13.8887 -13.8896 -27.7783 -19.4443 -47.2227 -19.4443h-44.4443v-136.111c0 -16.667 -5.55566 -30.5557 -16.666 -44.4443c-11.1113 -11.1113 -27.7783 -16.667 -44.4453 -16.667
c-16.666 0 -30.5547 5.55566 -44.4443 16.667c-11.1104 11.1104 -16.666 27.7773 -16.666 44.4443v136.111h-83.334v-136.111c0 -16.667 -5.55566 -30.5557 -16.666 -44.4443c-11.1113 -11.1113 -27.7783 -16.667 -44.4443 -16.667
c-16.667 0 -30.5557 5.55566 -44.4453 16.667c-11.1104 11.1104 -16.666 27.7773 -16.666 44.4443v136.111h-44.4443c-19.4443 0 -33.334 5.55469 -47.2227 19.4443c-13.8887 13.8887 -19.4443 27.7773 -19.4443 47.2217v400h550zM636.111 708.333
c41.666 -22.2217 77.7773 -52.7773 102.777 -91.666c25 -38.8896 38.8887 -83.334 38.8887 -130.556h-555.555c0 47.2217 13.8887 88.8887 38.8887 130.556c25 38.8887 61.1113 69.4443 102.777 91.666l-41.666 77.7783c-2.77832 5.55566 -2.77832 8.33301 2.77734 11.1113
c5.55566 2.77734 8.33301 0 11.1113 -2.77832l41.666 -77.7773c38.8896 16.666 77.7783 25 119.445 25c41.666 0 83.333 -8.33398 119.444 -25l44.4443 80.5557c5.55566 2.77734 8.33301 2.77734 13.8887 2.77734c5.55566 -2.77734 5.55566 -5.55566 2.77734 -11.1113z
M922.223 413.889v-258.333c0 -16.667 -5.55566 -30.5557 -16.667 -44.4443c-11.1113 -11.1113 -27.7783 -16.667 -44.4443 -16.667c-16.667 0 -30.5557 5.55566 -44.4443 16.667c-11.1113 11.1113 -16.667 27.7773 -16.667 44.4443v258.333
c0 16.667 5.55566 30.5557 16.667 44.4443c11.1104 11.1113 27.7773 16.667 44.4443 16.667c16.666 0 30.5557 -5.55566 44.4443 -16.667c11.1113 -11.1104 16.667 -25 16.667 -44.4443z" unicode="&#xe00d;"></glyph>
    <glyph glyph-name="angellist" d="M675 588.889l-63.8887 -183.333l66.666 -11.1113c61.1113 166.667 91.667 263.889 91.667 288.889c0 22.2227 -8.33301 30.5557 -22.2217 30.5557c-22.2227 0 -44.4453 -41.666 -72.2227 -125zM508.333 205.556l19.4443 -50
c13.8896 16.667 27.7783 27.7773 38.8896 36.1113l-19.4443 2.77734l-22.2227 2.77832zM344.444 705.556c0 -36.1113 30.5557 -133.333 88.8887 -291.667c5.55566 2.77832 16.667 5.55566 27.7783 5.55566c5.55566 0 19.4443 0 41.666 -2.77734l-66.666 197.222
c-27.7783 80.5557 -50 122.223 -69.4443 122.223c-8.33398 0 -11.1113 -2.77832 -16.667 -11.1113c-2.77734 -5.55566 -5.55566 -11.1113 -5.55566 -19.4443zM300 283.333c0 -13.8887 8.33301 -36.1104 27.7773 -66.666c19.4453 -30.5557 41.667 -58.334 66.667 -86.1113
c25 -25 44.4443 -38.8887 55.5557 -38.8887c5.55566 0 11.1113 2.77734 13.8887 8.33301c2.77832 5.55566 5.55566 11.1113 5.55566 13.8887c0 8.33398 -5.55566 27.7783 -16.667 55.5557c-5.55469 11.1113 -11.1104 25 -16.666 38.8887
c-8.33398 13.8896 -16.667 30.5557 -27.7783 50c-11.1104 19.4443 -22.2217 33.334 -33.333 44.4443c-11.1113 11.1113 -25 16.667 -33.333 16.667c-8.33398 0 -16.667 -5.55566 -25 -13.8887c-11.1113 -8.33301 -16.667 -16.667 -16.667 -22.2227zM213.889 94.4443
c0 -13.8887 5.55566 -33.333 13.8887 -58.333c22.2227 -52.7783 55.5557 -97.2227 102.778 -127.778c47.2217 -30.5557 100 -44.4443 158.333 -44.4443c83.334 0 155.556 30.5557 213.889 94.4443c55.5557 63.8896 86.1113 141.667 86.1113 238.89v36.1104
c0 8.33398 -2.77734 19.4443 -5.55566 33.334c-2.77734 13.8887 -8.33301 25 -16.666 30.5557c-22.2227 19.4443 -61.1113 33.333 -116.667 41.666c-58.333 11.1113 -108.333 13.8887 -150 13.8887c-13.8887 0 -22.2227 -2.77734 -27.7773 -5.55469
c-5.55566 -2.77832 -5.55566 -8.33398 -5.55566 -19.4453c0 -13.8887 2.77734 -25 11.1104 -33.333c8.33398 -8.33301 19.4453 -16.667 30.5557 -22.2217c11.1113 -5.55566 27.7783 -8.33398 44.4443 -13.8896c16.667 -2.77734 33.334 -5.55566 50 -5.55566
c16.667 0 33.334 -2.77734 47.2227 -2.77734h38.8887h13.8887c8.33398 0 16.667 -2.77734 22.2227 -11.1113c5.55566 -8.33301 8.33301 -16.666 11.1113 -30.5557c-11.1113 -11.1104 -27.7783 -19.4443 -52.7783 -30.5557c-22.2217 -8.33301 -38.8887 -16.666 -52.7773 -25
c-25 -16.666 -44.4443 -38.8887 -61.1113 -63.8887c-16.667 -25 -25 -50 -25 -77.7773c0 -11.1113 2.77832 -27.7783 11.1113 -50c5.55566 -22.2227 11.1113 -38.8887 11.1113 -50l-2.77832 -5.55566c-2.77734 -5.55566 -2.77734 -8.33301 -2.77734 -8.33301
c-50 2.77734 -77.7783 44.4443 -80.5557 119.444h-22.2227v-11.1113c0 -19.4443 -8.33301 -36.1113 -22.2217 -50s-33.334 -19.4443 -52.7783 -19.4443c-30.5557 0 -61.1104 13.8887 -91.666 44.4443c-30.5557 27.7773 -47.2227 58.333 -47.2227 88.8887
c0 13.8887 5.55566 25 19.4443 36.1113c19.4443 -25 30.5557 -38.8887 33.334 -41.667c27.7773 -38.8887 52.7773 -58.333 75 -58.333c5.55469 0 8.33301 2.77734 13.8887 5.55566c5.55566 2.77734 8.33301 8.33301 8.33301 11.1113c0 13.8887 -16.667 38.8887 -50 80.5547
c-33.333 41.667 -55.5557 61.1113 -63.8887 61.1113c-16.667 0 -27.7783 -8.33301 -38.8887 -25c-25 -11.1113 -27.7783 -27.7773 -27.7783 -44.4443zM150 88.8887c0 38.8887 8.33301 66.667 25 91.667c16.667 22.2217 41.667 38.8887 75 50
c-11.1113 27.7773 -16.667 47.2217 -16.667 58.333c0 22.2227 11.1113 47.2227 33.334 69.4443c22.2217 22.2227 44.4443 33.334 69.4443 33.334c11.1113 0 25 -2.77832 38.8887 -8.33398c-61.1113 172.223 -91.667 277.778 -91.667 316.667
c0 30.5557 8.33398 52.7773 22.2227 72.2227c13.8887 19.4443 36.1113 27.7773 66.667 27.7773c50 0 108.333 -108.333 180.555 -325c2.77832 -5.55566 2.77832 -11.1113 5.55566 -13.8887c2.77832 5.55566 8.33398 19.4443 16.667 44.4443s16.667 44.4443 25 66.667
c8.33301 19.4443 16.667 44.4443 30.5557 72.2217c13.8887 27.7783 25 50 36.1113 69.4443c11.1104 19.4443 25 36.1113 38.8887 47.2227c13.8887 13.8887 27.7773 19.4443 41.667 19.4443c27.7773 0 47.2217 -8.33301 61.1104 -27.7783
c13.8896 -19.4443 25 -38.8887 25 -66.666c0 -38.8887 -30.5557 -141.667 -88.8887 -305.556c22.2227 -5.55566 41.667 -13.8887 55.5557 -25c13.8887 -11.1113 25 -25 33.333 -44.4443c8.33398 -16.667 11.1113 -36.1113 13.8896 -52.7783
c2.77734 -16.666 2.77734 -38.8887 2.77734 -61.1104c0 -55.5557 -8.33301 -108.334 -25 -155.556c-16.667 -47.2227 -41.667 -88.8896 -75 -125c-33.333 -36.1113 -72.2227 -63.8896 -116.667 -83.334c-44.4443 -19.4443 -97.2217 -33.333 -155.556 -33.333
c-41.666 0 -83.333 8.33301 -125 22.2227c-55.5547 22.2217 -102.777 55.5547 -144.444 105.555c-38.8887 52.7783 -58.333 105.556 -58.333 161.111z" unicode="&#xe00e;"></glyph>
    <glyph glyph-name="angle-double-down" d="M500 -5.55566c-5.55566 0 -13.8887 2.77832 -19.4443 8.33301l-361.111 333.334c-11.1113 11.1113 -11.1113 27.7773 -2.77734 38.8887c11.1104 11.1113 27.7773 11.1113 38.8887 2.77734l344.444 -316.666l341.667 316.666
c11.1104 11.1113 27.7773 8.33398 38.8887 -2.77734c11.1113 -11.1113 8.33301 -27.7773 -2.77832 -38.8887l-361.11 -333.334c-2.77832 -5.55469 -8.33398 -8.33301 -16.667 -8.33301zM500 216.667c-5.55566 0 -13.8887 2.77734 -19.4443 8.33301l-361.111 333.333
c-11.1113 11.1113 -11.1113 27.7783 -2.77734 38.8896c11.1104 11.1104 27.7773 11.1104 38.8887 2.77734l344.444 -316.667l341.667 313.89c11.1104 11.1104 27.7773 8.33301 38.8887 -2.77832c11.1113 -11.1113 8.33301 -27.7773 -2.77832 -38.8887l-361.11 -333.333
c-2.77832 -2.77832 -8.33398 -5.55566 -16.667 -5.55566z" unicode="&#xe00f;"></glyph>
    <glyph glyph-name="angle-double-left" d="M555.556 -88.8887c-8.33301 0 -13.8887 2.77734 -19.4443 8.33301l-333.334 361.111c-11.1104 11.1113 -11.1104 27.7773 0 38.8887l333.334 361.111c11.1113 11.1113 27.7773 11.1113 38.8887 2.77734c11.1113 -11.1104 11.1113 -27.7773 2.77734 -38.8887
l-316.666 -344.444l316.666 -341.667c11.1113 -11.1104 8.33398 -27.7773 -2.77734 -38.8887c-5.55566 -5.55566 -11.1113 -8.33301 -19.4443 -8.33301zM777.777 -88.8887c-8.33301 0 -13.8887 2.77734 -19.4443 8.33301l-333.333 361.111
c-11.1113 11.1113 -11.1113 27.7773 0 38.8887l333.333 361.111c11.1113 11.1113 27.7783 11.1113 38.8896 2.77734c11.1104 -11.1104 11.1104 -27.7773 2.77734 -38.8887l-316.667 -344.444l316.667 -341.667c11.1113 -11.1104 8.33301 -27.7773 -2.77734 -38.8887
c-5.55566 -5.55566 -11.1113 -8.33301 -19.4453 -8.33301z" unicode="&#xe010;"></glyph>
    <glyph glyph-name="angle-double-right" d="M444.444 -88.8887c-5.55566 0 -13.8887 2.77734 -19.4443 8.33301c-11.1113 11.1113 -11.1113 27.7783 -2.77734 38.8887l316.666 341.667l-313.889 341.667c-11.1113 11.1104 -8.33301 27.7773 2.77734 38.8887c11.1113 11.1113 27.7783 8.33301 38.8896 -2.77832
l333.333 -361.11c11.1113 -11.1113 11.1113 -27.7783 0 -38.8896l-333.333 -361.11c-8.33398 -2.77832 -13.8896 -5.55566 -22.2227 -5.55566zM222.223 -88.8887c-5.55566 0 -13.8896 2.77734 -19.4453 8.33301c-11.1104 11.1113 -11.1104 27.7783 -2.77734 38.8887
l316.667 341.667l-313.89 341.667c-11.1104 11.1104 -8.33301 27.7773 2.77832 38.8887c11.1113 11.1113 27.7773 8.33301 38.8887 -2.77832l333.333 -361.11c11.1113 -11.1113 11.1113 -27.7783 0 -38.8896l-333.333 -361.11
c-8.33301 -2.77832 -13.8887 -5.55566 -22.2217 -5.55566z" unicode="&#xe011;"></glyph>
    <glyph glyph-name="angle-double-up" d="M861.111 216.667c-5.55566 0 -13.8887 2.77734 -19.4443 8.33301l-341.667 313.889l-341.667 -313.889c-11.1104 -11.1113 -27.7773 -8.33301 -38.8887 2.77734c-11.1113 11.1113 -8.33301 27.7783 2.77832 38.8896l361.11 333.333
c11.1113 11.1113 27.7783 11.1113 38.8896 0l361.11 -333.333c11.1113 -11.1113 11.1113 -27.7783 2.77832 -38.8896c-11.1113 -8.33301 -16.667 -11.1104 -25 -11.1104zM861.111 -5.55566c-5.55566 0 -13.8887 2.77832 -19.4443 8.33301l-341.667 313.89l-341.667 -313.89
c-11.1104 -11.1104 -27.7773 -8.33301 -38.8887 2.77832c-11.1113 11.1113 -8.33301 27.7773 2.77832 38.8887l361.11 333.333c11.1113 11.1113 27.7783 11.1113 38.8896 0l361.11 -333.333c11.1113 -11.1113 11.1113 -27.7773 2.77832 -38.8887
c-11.1113 -8.33301 -16.667 -11.1113 -25 -11.1113z" unicode="&#xe012;"></glyph>
    <glyph glyph-name="angle-down" d="M500 105.556c-5.55566 0 -13.8887 2.77734 -19.4443 8.33301l-361.111 333.334c-11.1113 11.1104 -11.1113 27.7773 -2.77734 38.8887c11.1104 11.1113 27.7773 11.1113 38.8887 2.77734l344.444 -316.666l341.667 316.666
c11.1104 11.1113 27.7773 8.33398 38.8887 -2.77734c11.1113 -11.1113 8.33301 -27.7783 -2.77832 -38.8887l-361.11 -333.334c-2.77832 -5.55566 -11.1113 -8.33301 -16.667 -8.33301z" unicode="&#xe013;"></glyph>
    <glyph glyph-name="angle-left" d="M666.667 -88.8887c-8.33398 0 -13.8896 2.77734 -19.4443 8.33301l-333.334 361.111c-11.1113 11.1113 -11.1113 27.7773 0 38.8887l333.334 361.111c11.1104 11.1113 27.7773 11.1113 38.8887 2.77734c11.1113 -11.1104 11.1113 -27.7773 2.77734 -38.8887
l-316.666 -344.444l316.666 -341.667c11.1113 -11.1104 8.33398 -27.7773 -2.77734 -38.8887c-5.55566 -5.55566 -13.8887 -8.33301 -19.4443 -8.33301z" unicode="&#xe014;"></glyph>
    <glyph glyph-name="angle-right" d="M333.333 -88.8887c-5.55566 0 -13.8887 2.77734 -19.4443 8.33301c-11.1113 11.1113 -11.1113 27.7783 -2.77734 38.8887l316.666 341.667l-313.889 341.667c-11.1113 11.1104 -8.33301 27.7773 2.77832 38.8887c11.1104 11.1113 27.7773 8.33301 38.8887 -2.77832
l333.333 -361.11c11.1113 -11.1113 11.1113 -27.7783 0 -38.8896l-333.333 -361.11c-8.33301 -2.77832 -13.8887 -5.55566 -22.2227 -5.55566z" unicode="&#xe015;"></glyph>
    <glyph glyph-name="angle-up" d="M861.111 105.556c-5.55566 0 -13.8887 2.77734 -19.4443 8.33301l-341.667 313.889l-341.667 -313.889c-11.1104 -11.1113 -27.7773 -8.33301 -38.8887 2.77832c-11.1113 11.1104 -8.33301 27.7773 2.77832 38.8887l361.11 333.333
c11.1113 11.1113 27.7783 11.1113 38.8896 0l361.11 -333.333c11.1113 -11.1113 11.1113 -27.7783 2.77832 -38.8887c-11.1113 -8.33398 -16.667 -11.1113 -25 -11.1113z" unicode="&#xe016;"></glyph>
    <glyph glyph-name="apple" d="M919.444 69.4443c-16.667 -50 -38.8887 -100 -75 -150c-52.7773 -77.7773 -102.777 -116.667 -155.556 -116.667c-19.4443 0 -47.2217 5.55566 -83.333 19.4453c-33.333 13.8887 -63.8887 19.4443 -91.667 19.4443c-25 0 -52.7773 -5.55566 -86.1113 -19.4443
c-33.333 -13.8896 -58.333 -19.4453 -80.5547 -19.4453c-61.1113 0 -122.223 52.7783 -180.556 155.556c-52.7783 102.778 -83.334 202.778 -83.334 300c0 91.667 22.2227 166.667 66.667 225c44.4443 58.334 102.777 86.1113 169.444 86.1113
c27.7783 0 63.8887 -5.55566 105.556 -16.667c41.667 -11.1104 69.4443 -16.666 83.333 -16.666c16.667 0 47.2227 5.55566 86.1113 19.4443c41.667 13.8887 75 19.4443 102.778 19.4443c47.2217 0 91.666 -13.8887 127.777 -38.8887
c19.4443 -13.8887 41.667 -33.334 61.1113 -61.1113c-30.5557 -27.7773 -55.5557 -50 -69.4443 -72.2227c-25 -38.8887 -38.8896 -77.7773 -38.8896 -125c0 -50 13.8896 -94.4443 41.667 -133.333c27.7783 -38.8887 66.667 -63.8887 100 -75zM694.444 775
c0 -25 -5.55566 -52.7773 -16.667 -80.5557c-11.1104 -30.5557 -30.5547 -58.333 -55.5547 -83.333c-22.2227 -22.2227 -44.4453 -36.1113 -63.8896 -44.4443c-13.8887 -5.55566 -36.1104 -8.33398 -61.1104 -11.1113c0 58.333 16.666 111.111 47.2217 155.556
c30.5557 41.666 80.5557 72.2217 150 88.8887c0 0 0 -2.77734 2.77832 -5.55566c0 -2.77734 0 -5.55566 2.77734 -5.55566v-5.55566c0 -2.77734 -5.55566 -5.55566 -5.55566 -8.33301z" unicode="&#xe017;"></glyph>
    <glyph glyph-name="archive" d="M930.556 688.889c8.33301 0 13.8887 -5.55566 13.8887 -13.8887v-138.889c0 -8.33398 -5.55566 -13.8887 -13.8887 -13.8887h-41.667v-597.223c0 -8.33301 -5.55566 -13.8887 -13.8887 -13.8887h-750c-8.33301 0 -13.8887 5.55566 -13.8887 13.8887v597.223h-41.667
c-8.33301 0 -13.8887 5.55469 -13.8887 13.8887v138.889c0 8.33301 5.55566 13.8887 13.8887 13.8887h861.111zM833.333 -33.333v555.556h-666.666v-555.556h666.666zM888.889 577.777v55.5557h-777.777v-55.5557h13.8887h750h13.8887zM375 300
c-22.2227 0 -41.667 19.4443 -41.667 41.667v83.333c0 22.2227 19.4443 41.667 41.667 41.667h250c22.2227 0 41.667 -19.4443 41.667 -41.667v-83.333c0 -22.2227 -19.4443 -41.667 -41.667 -41.667h-250zM388.889 411.111v-55.5557h222.223v55.5557h-222.223z" unicode="&#xe018;"></glyph>
    <glyph glyph-name="area-chart" d="M986.111 -88.8887h-986.111v763.889c0 8.33301 5.55566 13.8887 13.8887 13.8887h27.7783c8.33301 0 13.8887 -5.55566 13.8887 -13.8887v-708.333h930.556c8.33301 0 13.8887 -5.55566 13.8887 -13.8896v-27.7773c0 -8.33301 -5.55566 -13.8887 -13.8887 -13.8887z
M272.223 447.223l138.889 -116.667c11.1113 -8.33301 27.7773 -8.33301 38.8887 2.77734l247.223 250c11.1104 11.1113 30.5547 11.1113 41.666 -2.77734l202.778 -263.889c2.77734 -2.77832 2.77734 -5.55566 2.77734 -8.33398v-286.11h-833.333l116.666 411.11
c5.55566 19.4443 30.5557 27.7783 44.4453 13.8896z" unicode="&#xe019;"></glyph>
    <glyph glyph-name="arrow-circle-down" d="M500 800c277.777 0 500 -225 500 -500s-225 -500 -500 -500s-500 225 -500 500s225 500 500 500zM766.667 166.667c13.8887 11.1104 16.666 27.7773 5.55566 36.1104c-8.33398 13.8896 -27.7783 13.8896 -38.8896 5.55566l-205.556 -158.333v555.556
c0 16.667 -11.1104 27.7773 -27.7773 27.7773s-27.7773 -11.1104 -27.7773 -27.7773v-555.556l-205.556 163.889c-11.1113 8.33398 -30.5557 5.55566 -38.8896 -5.55566c-8.33301 -11.1104 -5.55469 -30.5557 5.55566 -38.8887l250 -194.444
c0 -2.77734 2.77832 -2.77734 2.77832 -2.77734c0 -2.77832 2.77734 -2.77832 2.77734 -2.77832c5.55566 -2.77734 8.33398 -2.77734 11.1113 -2.77734h11.1113c0 2.77734 2.77734 2.77734 2.77734 2.77734l2.77832 2.77832z" unicode="&#xe01a;"></glyph>
    <glyph glyph-name="arrow-circle-left" d="M500 800c275 0 500 -225 500 -500s-225 -500 -500 -500s-500 225 -500 500s225 500 500 500zM805.556 272.223c16.667 0 27.7773 11.1104 27.7773 27.7773s-11.1104 27.7773 -27.7773 27.7773h-555.556l161.111 202.778
c8.33301 11.1113 5.55566 30.5557 -5.55566 38.8887c-11.1113 8.33301 -30.5557 5.55566 -38.8887 -5.55566l-194.444 -250c-2.77832 0 -2.77832 -2.77734 -2.77832 -2.77734c-2.77734 0 -2.77734 -2.77832 -2.77734 -2.77832
c-2.77832 -5.55566 -2.77832 -13.8887 0 -19.4443c2.77734 0 2.77734 -2.77734 2.77734 -2.77734l2.77832 -2.77832l194.444 -250c5.55566 -8.33301 13.8887 -11.1104 22.2217 -11.1104c5.55566 0 11.1113 2.77734 13.8887 5.55469
c13.8896 8.33398 13.8896 27.7783 5.55566 38.8896l-158.333 205.556h555.556z" unicode="&#xe01b;"></glyph>
    <glyph glyph-name="arrow-circle-o-down" d="M500 800c275 0 500 -225 500 -500s-225 -500 -500 -500s-500 225 -500 500s225 500 500 500zM500 -144.444c244.444 0 444.444 200 444.444 444.444c0 244.444 -200 444.444 -444.444 444.444s-444.444 -200 -444.444 -444.444c0 -244.444 200 -444.444 444.444 -444.444
zM675 238.889c13.8887 8.33398 30.5557 8.33398 44.4443 -2.77734c11.1113 -11.1113 8.33301 -27.7783 -2.77734 -38.8887l-194.444 -166.667c-2.77832 0 -2.77832 -2.77832 -5.55566 -2.77832l-2.77832 -2.77734c-5.55566 -2.77734 -5.55566 -2.77734 -11.1113 -2.77734
c-5.55469 0 -8.33301 2.77734 -11.1104 2.77734l-2.77832 2.77734c-2.77734 0 -5.55566 2.77832 -5.55566 2.77832l-194.444 166.667c-11.1113 11.1104 -13.8887 27.7773 -2.77734 38.8887c8.33301 11.1113 27.7773 13.8887 38.8887 2.77734l147.223 -127.777v438.889
c0 16.667 11.1104 27.7773 27.7773 27.7773s27.7773 -11.1104 27.7773 -27.7773v-438.889z" unicode="&#xe01c;"></glyph>
    <glyph glyph-name="arrow-circle-o-left" d="M500 800c275 0 500 -225 500 -500s-225 -500 -500 -500s-500 225 -500 500s225 500 500 500zM500 -144.444c244.444 0 444.444 200 444.444 444.444c0 244.444 -200 444.444 -444.444 444.444s-444.444 -200 -444.444 -444.444c0 -244.444 200 -444.444 444.444 -444.444
zM750 327.777c16.667 0 27.7773 -11.1104 27.7773 -27.7773s-11.1104 -27.7773 -27.7773 -27.7773h-438.889l130.556 -150c11.1104 -11.1113 8.33301 -27.7783 -2.77832 -38.8896c-5.55566 -2.77734 -13.8887 -5.55566 -19.4443 -5.55566
c-8.33301 0 -16.667 2.77832 -22.2217 8.33398l-166.667 194.444c0 2.77734 -2.77832 2.77734 -2.77832 5.55566c-2.77734 0 -2.77734 2.77734 -2.77734 2.77734c-2.77734 5.55566 -2.77734 8.33398 -2.77734 11.1113v0v0c0 2.77734 0 8.33301 2.77734 8.33301
l2.77734 2.77832c0 2.77734 2.77832 5.55566 2.77832 5.55566l166.667 194.444c8.33301 11.1113 27.7773 13.8887 38.8887 2.77734c11.1113 -8.33301 13.8887 -27.7773 2.77734 -38.8887l-127.777 -147.223h438.889z" unicode="&#xe01d;"></glyph>
    <glyph glyph-name="arrow-circle-o-right" d="M500 800c275 0 500 -222.223 500 -500c0 -275 -225 -500 -500 -500s-500 225 -500 500c0 277.777 225 500 500 500zM500 -144.444c244.444 0 444.444 200 444.444 444.444c0 244.444 -200 444.444 -444.444 444.444s-444.444 -200 -444.444 -444.444
c0 -244.444 200 -444.444 444.444 -444.444zM777.777 300v-5.55566l-2.77734 -2.77734c0 -2.77832 -2.77734 -5.55566 -2.77734 -5.55566l-166.667 -194.444c-5.55566 -5.55566 -13.8887 -8.33398 -22.2227 -8.33398c-8.33301 0 -13.8887 0 -19.4443 5.55566
c-11.1113 11.1113 -13.8887 27.7783 -2.77734 38.8887l127.777 147.223h-438.889c-16.667 0 -27.7773 11.1113 -27.7773 27.7773c0 16.667 11.1104 27.7783 27.7773 27.7783h438.889l-127.777 147.222c-11.1113 11.1113 -8.33398 27.7783 2.77734 38.8896
c11.1113 11.1104 27.7783 8.33301 38.8887 -2.77832l166.667 -194.444c0 -2.77734 2.77832 -2.77734 2.77832 -5.55566l2.77734 -2.77734c2.77734 -2.77832 2.77734 -8.33398 2.77734 -11.1113v0v0z" unicode="&#xe01e;"></glyph>
    <glyph glyph-name="arrow-circle-o-up" d="M500 800c275 0 500 -222.223 500 -500c0 -275 -225 -500 -500 -500s-500 225 -500 500c0 277.777 225 500 500 500zM500 -144.444c244.444 0 444.444 200 444.444 444.444c0 244.444 -200 444.444 -444.444 444.444s-444.444 -200 -444.444 -444.444
c0 -244.444 200 -444.444 444.444 -444.444zM519.444 572.223l194.444 -169.445c11.1113 -8.33301 13.8887 -27.7773 2.77832 -38.8887c-5.55566 -5.55566 -13.8896 -8.33301 -22.2227 -8.33301c-8.33301 0 -13.8887 0 -19.4443 5.55566l-147.223 127.777v-438.889
c0 -16.667 -11.1104 -27.7773 -27.7773 -27.7773s-27.7773 11.1104 -27.7773 27.7773v441.667l-147.223 -127.778c-11.1113 -11.1113 -27.7773 -8.33301 -38.8887 2.77832c-11.1113 11.1104 -8.33398 27.7773 2.77734 38.8887l194.444 166.667
c2.77832 0 2.77832 2.77734 5.55566 2.77734c0 2.77734 2.77832 2.77734 2.77832 2.77734c5.55566 2.77832 13.8887 2.77832 19.4443 0l2.77734 -2.77734c2.77832 0 5.55566 -2.77734 5.55566 -2.77734z" unicode="&#xe01f;"></glyph>
    <glyph glyph-name="arrow-circle-right" d="M500 800c275 0 500 -222.223 500 -500c0 -275 -225 -500 -500 -500s-500 225 -500 500c0 277.777 225 500 500 500zM827.777 283.333c0 0 0 2.77832 5.55566 5.55566c2.77832 0 2.77832 2.77832 2.77832 2.77832c2.77734 5.55566 2.77734 13.8887 0 19.4443
c-2.77832 0 -2.77832 2.77734 -2.77832 2.77734l-2.77734 2.77832l-194.444 250c-8.33398 13.8887 -27.7783 13.8887 -38.8887 5.55566c-13.8896 -8.33398 -13.8896 -27.7783 -5.55566 -38.8896l158.333 -205.556h-555.556c-16.667 0 -27.7773 -11.1104 -27.7773 -27.7773
s11.1104 -27.7773 27.7773 -27.7773h555.556l-161.111 -205.556c-8.33301 -11.1113 -5.55566 -30.5557 5.55566 -38.8896c5.55566 -2.77734 11.1113 -5.55469 16.667 -5.55469c8.33301 0 16.666 2.77734 22.2217 11.1104z" unicode="&#xe020;"></glyph>
    <glyph glyph-name="arrow-circle-up" d="M500 800c275 0 500 -222.223 500 -500c0 -275 -225 -500 -500 -500s-500 225 -500 500c0 277.777 225 500 500 500zM772.223 394.444c8.33301 11.1113 5.55469 30.5557 -8.33398 36.1113l-250 194.444c0 2.77734 -2.77734 2.77734 -2.77734 2.77734
c0 2.77832 -2.77832 2.77832 -2.77832 2.77832c-2.77734 2.77734 -5.55566 2.77734 -8.33301 2.77734v0v0h-11.1113c0 -2.77734 -2.77734 -2.77734 -2.77734 -2.77734l-2.77832 -2.77832l-250 -194.444c-11.1104 -8.33301 -13.8887 -22.2217 -5.55566 -36.1104
c8.33398 -13.8896 27.7783 -13.8896 38.8896 -5.55566l205.556 158.333v-555.556c0 -16.667 11.1104 -27.7773 27.7773 -27.7773s27.7773 11.1104 27.7773 27.7773v555.556l205.556 -161.111c5.55566 -2.77734 11.1113 -5.55566 16.667 -5.55566
c8.33301 0 16.667 2.77832 22.2227 11.1113z" unicode="&#xe021;"></glyph>
    <glyph glyph-name="arrow-down" d="M772.223 205.556c8.33301 -11.1113 5.55469 -27.7783 -5.55566 -38.8887l-250 -194.444c0 -2.77832 -2.77832 -2.77832 -2.77832 -2.77832c0 -2.77734 -2.77734 -2.77734 -2.77734 -2.77734c-5.55566 -2.77832 -5.55566 -2.77832 -11.1113 -2.77832
s-8.33301 2.77832 -11.1113 2.77832c0 2.77734 -2.77734 2.77734 -2.77734 2.77734l-2.77832 2.77832l-250 194.444c-11.1104 11.1104 -13.8887 22.2217 -5.55566 36.1104c8.33398 13.8896 27.7783 13.8896 38.8896 5.55566l205.556 -158.333v555.556
c0 16.667 11.1104 27.7773 27.7773 27.7773s27.7773 -11.1104 27.7773 -27.7773v-552.778l205.556 158.334c11.1113 8.33301 30.5557 5.55566 38.8896 -5.55566z" unicode="&#xe022;"></glyph>
    <glyph glyph-name="arrow-left" d="M805.556 327.777c16.667 0 30.5557 -11.1104 30.5557 -27.7773s-11.1113 -27.7773 -27.7783 -27.7773h-555.556l155.556 -202.778c8.33398 -11.1113 5.55566 -30.5557 -5.55566 -38.8887c-5.55469 -2.77832 -11.1104 -5.55566 -16.666 -5.55566
c-8.33398 0 -16.667 2.77734 -22.2227 11.1113l-194.444 250c-2.77734 0 -2.77734 2.77734 -2.77734 2.77734c-2.77832 0 -2.77832 2.77832 -2.77832 2.77832c-2.77734 5.55566 -2.77734 13.8887 0 19.4443c2.77832 0 2.77832 2.77734 2.77832 2.77734l2.77734 2.77832
l194.444 250c8.33398 13.8887 27.7783 13.8887 38.8887 5.55566c13.8896 -8.33398 13.8896 -27.7783 5.55566 -38.8896l-158.333 -205.556h555.556z" unicode="&#xe023;"></glyph>
    <glyph glyph-name="arrow-right" d="M833.333 291.667c-2.77734 -2.77832 -2.77734 -2.77832 0 -5.55566l-2.77734 -2.77832l-194.444 -250c-5.55566 -8.33301 -13.8887 -11.1104 -22.2227 -11.1104c-5.55566 0 -11.1113 2.77734 -16.666 5.55469c-13.8896 8.33398 -13.8896 27.7783 -5.55566 38.8896
l158.333 205.556h-555.556c-16.667 0 -27.7773 11.1104 -27.7773 27.7773s11.1104 27.7773 27.7773 27.7773h555.556l-161.111 205.556c-8.33301 11.1113 -5.55566 30.5557 5.55566 38.8896c11.1113 8.33301 30.5557 5.55469 38.8887 -5.55566l194.444 -250
c2.77832 0 2.77832 -2.77832 2.77832 -2.77832c2.77734 0 2.77734 -2.77734 2.77734 -2.77734c2.77832 -5.55566 2.77832 -13.8887 0 -19.4443z" unicode="&#xe024;"></glyph>
    <glyph glyph-name="arrow-up" d="M766.667 433.333c11.1104 -8.33301 13.8887 -27.7773 5.55566 -36.1104c-5.55566 -8.33398 -13.8896 -11.1113 -22.2227 -11.1113c-5.55566 0 -11.1113 2.77734 -16.667 5.55566l-205.556 158.333v-555.556c0 -16.667 -11.1104 -27.7773 -27.7773 -27.7773
s-27.7773 11.1104 -27.7773 27.7773v555.556l-202.778 -163.889c-11.1113 -8.33398 -30.5557 -5.55566 -38.8887 5.55566c-8.33301 11.1104 -5.55566 30.5557 5.55566 38.8887l250 194.444c0 2.77734 2.77734 2.77734 2.77734 2.77734
c0 2.77832 2.77832 2.77832 2.77832 2.77832c2.77734 2.77734 5.55566 2.77734 8.33301 2.77734v0v0h11.1113c0 -2.77734 2.77734 -2.77734 2.77734 -2.77734l2.77832 -2.77832z" unicode="&#xe025;"></glyph>
    <glyph glyph-name="arrows-alt" d="M861.111 494.444c-16.667 0 -27.7783 13.8887 -27.7783 27.7783v72.2217l-294.444 -294.444l294.444 -294.444v72.2217c0 16.667 11.1113 27.7783 27.7783 27.7783c16.666 0 27.7773 -11.1113 27.7773 -27.7783v-138.889c0 -2.77734 0 -5.55566 -2.77734 -11.1113
c-2.77832 -5.55469 -8.33398 -11.1104 -13.8887 -13.8887c-2.77832 -2.77734 -8.33398 -2.77734 -11.1113 -2.77734h-138.889c-16.667 0 -27.7783 11.1113 -27.7783 27.7773c0 16.667 11.1113 27.7783 27.7783 27.7783h72.2217l-294.444 294.444l-294.444 -294.444h72.2217
c16.667 0 27.7783 -11.1113 27.7783 -27.7783c0 -16.666 -11.1113 -27.7773 -27.7783 -27.7773h-138.889c-2.77734 0 -8.33301 0 -11.1113 2.77734c-5.55469 2.77832 -11.1104 8.33398 -13.8887 13.8887c-2.77734 2.77832 -2.77734 8.33398 -2.77734 11.1113v138.889
c0 16.667 11.1113 27.7783 27.7773 27.7783c16.667 0 27.7783 -11.1113 27.7783 -27.7783v-72.2217l294.444 294.444l-294.444 294.444v-72.2217c0 -16.667 -11.1113 -27.7783 -27.7783 -27.7783c-16.666 0 -27.7773 11.1113 -27.7773 27.7783v138.889
c0 2.77734 0 8.33301 2.77734 11.1113c2.77832 5.55469 8.33398 11.1104 13.8887 13.8887c2.77832 2.77734 8.33398 2.77734 11.1113 2.77734h138.889c16.667 0 27.7783 -11.1113 27.7783 -27.7773c0 -16.667 -11.1113 -27.7783 -27.7783 -27.7783h-72.2217
l294.444 -294.444l294.444 294.444h-72.2217c-16.667 0 -27.7783 11.1113 -27.7783 27.7783c0 16.666 11.1113 27.7773 27.7783 27.7773h138.889c2.77734 0 8.33301 0 11.1113 -2.77734c5.55469 -2.77832 11.1104 -8.33398 13.8887 -13.8887
c2.77734 -2.77832 2.77734 -8.33398 2.77734 -11.1113v-138.889c0 -16.667 -11.1113 -27.7783 -27.7773 -27.7783z" unicode="&#xe026;"></glyph>
    <glyph glyph-name="arrows-h" d="M936.111 319.444c11.1113 -11.1113 11.1113 -27.7773 0 -38.8887l-138.889 -138.889c-5.55566 -5.55566 -13.8896 -8.33398 -19.4453 -8.33398c-5.55469 0 -13.8887 2.77832 -19.4443 8.33398c-11.1104 11.1104 -11.1104 27.7773 0 38.8887l91.667 91.667h-700
l91.667 -91.667c11.1104 -11.1113 11.1104 -27.7783 0 -38.8887c-5.55566 -5.55566 -11.1113 -8.33398 -19.4443 -8.33398c-8.33398 0 -13.8896 2.77832 -19.4453 8.33398l-138.889 138.889c-2.77734 2.77734 -2.77734 5.55566 -5.55566 8.33301
c-2.77734 8.33398 -2.77734 16.667 0 22.2227c0 2.77734 2.77832 5.55566 5.55566 8.33301l138.889 138.889c11.1113 11.1113 27.7783 11.1113 38.8896 0c11.1104 -11.1104 11.1104 -27.7773 0 -38.8887l-91.667 -91.667h700l-91.667 91.667
c-11.1104 11.1113 -11.1104 27.7783 0 38.8887c11.1113 11.1113 27.7783 11.1113 38.8896 0z" unicode="&#xe027;"></glyph>
    <glyph glyph-name="arrows-v" d="M619.444 41.667c11.1113 11.1104 27.7783 11.1104 38.8887 0c11.1113 -11.1113 11.1113 -27.7783 0 -38.8896l-138.889 -138.889c-5.55566 -5.55566 -13.8887 -8.33301 -19.4443 -8.33301s-13.8887 2.77734 -19.4443 8.33301l-138.889 138.889
c-11.1113 11.1113 -11.1113 27.7783 0 38.8896c11.1104 11.1104 27.7773 11.1104 38.8887 0l91.667 -91.667v700l-91.667 -91.667c-11.1113 -11.1104 -27.7783 -11.1104 -38.8887 0c-11.1113 11.1113 -11.1113 27.7783 0 38.8896l138.889 138.889
c11.1113 11.1113 27.7773 11.1113 38.8887 0l138.889 -138.889c11.1113 -11.1113 11.1113 -27.7783 0 -38.8896c-5.55566 -5.55566 -11.1104 -8.33301 -19.4443 -8.33301c-8.33301 0 -13.8887 2.77734 -19.4443 8.33301l-91.667 91.667v-700z" unicode="&#xe028;"></glyph>
    <glyph glyph-name="arrows" d="M936.111 319.444c11.1113 -11.1113 11.1113 -27.7773 0 -38.8887l-111.111 -111.111c-5.55566 -5.55566 -13.8887 -8.33301 -19.4443 -8.33301c-5.55566 0 -13.8887 2.77734 -19.4443 8.33301c-11.1113 11.1113 -11.1113 27.7783 0 38.8887l63.8887 63.8896h-322.223
v-322.223l63.8896 63.8887c11.1104 11.1113 27.7773 11.1113 38.8887 0c11.1113 -11.1113 11.1113 -27.7773 0 -38.8887l-111.111 -111.111c-2.77734 -2.77734 -5.55566 -2.77734 -8.33301 -5.55566c-2.77832 -2.77734 -8.33398 -2.77734 -11.1113 -2.77734
s-8.33301 0 -11.1113 2.77734c-2.77734 0 -5.55566 2.77832 -8.33301 5.55566l-111.111 111.111c-11.1113 11.1113 -11.1113 27.7773 0 38.8887c11.1113 11.1113 27.7783 11.1113 38.8887 0l63.8896 -63.8887v322.223h-322.223l63.8887 -63.8896
c11.1113 -11.1104 11.1113 -27.7773 0 -38.8887c-5.55566 -5.55566 -11.1113 -8.33301 -19.4443 -8.33301c-8.33301 0 -13.8887 2.77734 -19.4443 8.33301l-111.111 111.111c-2.77734 2.77734 -2.77734 5.55566 -5.55566 8.33301
c-2.77734 8.33398 -2.77734 16.667 0 22.2227c0 2.77734 2.77832 5.55566 5.55566 8.33301l111.111 111.111c11.1113 11.1113 27.7773 11.1113 38.8887 0c11.1113 -11.1113 11.1113 -27.7783 0 -38.8887l-63.8887 -63.8896h322.223v322.223l-63.8896 -63.8887
c-11.1104 -11.1113 -27.7773 -11.1113 -38.8887 0c-11.1113 11.1113 -11.1113 27.7773 0 38.8887l111.111 111.111c11.1113 11.1113 27.7773 11.1113 38.8887 0l111.111 -111.111c11.1113 -11.1113 11.1113 -27.7773 0 -38.8887
c-5.55566 -5.55566 -11.1113 -8.33398 -19.4443 -8.33398c-8.33398 0 -13.8887 2.77832 -19.4443 8.33398l-63.8896 63.8887v-322.223h322.223l-63.8887 63.8896c-11.1113 11.1104 -11.1113 27.7773 0 38.8887c11.1113 11.1113 27.7773 11.1113 38.8887 0z" unicode="&#xe029;"></glyph>
    <glyph glyph-name="assistive-listening-systems" d="M72.2227 -163.889c0 -8.33398 -2.77832 -16.667 -11.1113 -25c-8.33398 -8.33398 -16.667 -11.1113 -25 -11.1113c-8.33398 0 -16.667 2.77734 -25 11.1113c-8.33398 5.55566 -11.1113 13.8887 -11.1113 25s2.77734 16.666 11.1113 25
c8.33301 8.33301 16.666 11.1113 25 11.1113c8.33301 0 16.666 -2.77832 25 -11.1113c5.55566 -8.33398 11.1113 -16.667 11.1113 -25zM177.777 -58.333c0 -8.33398 -2.77734 -16.667 -11.1104 -25c-8.33398 -8.33398 -16.667 -11.1113 -25 -11.1113
c-8.33398 0 -16.667 2.77734 -25 11.1113c-8.33398 8.33301 -11.1113 16.666 -11.1113 25c0 8.33301 2.77734 16.666 11.1113 25c8.33301 8.33301 16.666 11.1104 25 11.1104c8.33301 0 16.666 -2.77734 25 -11.1104c8.33301 -5.55566 11.1104 -13.8896 11.1104 -25z
M202.777 147.223l141.667 -141.667l-50 -50l-141.667 141.667zM391.667 155.556c0 -8.33301 -2.77832 -16.667 -11.1113 -25c-8.33301 -8.33301 -16.667 -11.1113 -25 -11.1113c-8.33301 0 -16.667 2.77832 -25 11.1113c-8.33301 8.33301 -11.1113 16.667 -11.1113 25
c0 8.33301 2.77832 16.667 11.1113 25c8.33301 8.33301 16.667 11.1113 25 11.1113c8.33301 0 16.667 -2.77832 25 -11.1113c8.33301 -5.55566 11.1113 -13.8887 11.1113 -25zM786.111 336.111c0 -22.2227 -2.77832 -41.667 -5.55566 -61.1113
c-5.55566 -19.4443 -11.1113 -36.1113 -22.2227 -52.7773c-8.33301 -16.667 -16.666 -27.7783 -25 -38.8896c-8.33301 -11.1104 -16.666 -19.4443 -30.5557 -36.1104c-11.1104 -13.8896 -19.4443 -22.2227 -25 -30.5557
c-5.55469 -8.33398 -11.1104 -16.667 -19.4443 -27.7783c-8.33301 -11.1113 -11.1104 -22.2217 -13.8887 -36.1113c-2.77734 -11.1104 -5.55566 -25 -5.55566 -41.666c0 -58.334 -22.2217 -108.334 -63.8887 -152.778c-41.667 -41.666 -91.667 -63.8887 -152.777 -63.8887
c-8.33398 0 -16.667 2.77832 -25 11.1113c-8.33398 8.33301 -11.1113 16.667 -11.1113 25c0 8.33301 2.77734 16.667 11.1113 25c8.33301 8.33301 16.666 11.1113 25 11.1113c38.8887 0 72.2217 13.8887 100 41.666c27.7773 27.7783 41.666 61.1113 41.666 100
c0 22.2227 2.77832 41.667 5.55566 58.334c5.55566 16.666 11.1113 36.1104 19.4443 50c8.33398 16.666 16.667 27.7773 25 36.1104c5.55566 8.33398 16.667 19.4453 27.7783 36.1113c13.8887 16.667 25 30.5557 33.333 38.8887
c8.33301 8.33398 13.8887 22.2227 22.2227 41.667c5.55469 16.667 11.1104 36.1113 11.1104 58.333c0 69.4453 -25 127.778 -72.2217 177.778c-47.2227 50 -108.334 72.2217 -177.778 72.2217c-69.4443 0 -127.777 -25 -177.777 -72.2217
c-50 -47.2227 -72.2227 -108.333 -72.2227 -177.778c0 -8.33301 -2.77734 -16.666 -11.1104 -25c-8.33398 -8.33301 -8.33398 -2.77734 -16.667 -2.77734c-8.33301 0 -16.667 2.77734 -25 11.1113c-8.33301 8.33301 -11.1113 16.666 -11.1113 25
c0 44.4443 8.33301 86.1113 25 125c16.667 38.8887 38.8887 75 69.4443 102.777c30.5557 27.7783 63.8887 52.7783 102.778 69.4443c38.8887 16.667 80.5557 25 125 25c44.4443 0 86.1104 -8.33301 125 -25c38.8887 -16.666 75 -38.8887 102.777 -69.4443
c27.7783 -27.7773 52.7783 -63.8887 69.4443 -102.777c16.667 -38.8887 22.2227 -83.334 22.2227 -125zM500 263.889c0 -8.33301 -2.77734 -16.666 -11.1113 -25c-8.33301 -8.33301 -16.666 -11.1113 -25 -11.1113c-8.33301 0 -16.666 2.77832 -25 11.1113
c-8.33301 8.33398 -11.1113 16.667 -11.1113 25c0 8.33398 2.77832 16.667 11.1113 25c8.33398 8.33398 16.667 11.1113 25 11.1113c8.33398 0 16.667 -2.77734 25 -11.1113c8.33398 -8.33301 11.1113 -16.666 11.1113 -25zM661.111 336.111
c0 -8.33398 -2.77832 -16.667 -11.1113 -25c-8.33301 -8.33398 -16.667 -11.1113 -25 -11.1113s-16.667 2.77734 -25 11.1113c-8.33301 8.33301 -11.1113 16.666 -11.1113 25c0 33.333 -11.1113 63.8887 -36.1113 88.8887s-52.7773 36.1113 -88.8887 36.1113
c-33.333 0 -63.8887 -11.1113 -88.8887 -36.1113s-36.1113 -52.7773 -36.1113 -88.8887c0 -8.33398 -2.77734 -16.667 -11.1113 -25c-8.33301 -8.33398 -13.8887 -11.1113 -25 -11.1113c-11.1104 0 -16.666 2.77734 -25 11.1113
c-8.33301 8.33301 -11.1104 16.666 -11.1104 25c0 55.5557 19.4443 100 58.333 138.889s83.333 58.333 138.889 58.333s100 -19.4443 138.889 -58.333c38.8896 -38.8887 58.334 -86.1113 58.334 -138.889zM880.556 497.223c2.77734 -8.33398 2.77734 -19.4453 0 -27.7783
c-2.77832 -8.33301 -11.1113 -13.8887 -19.4443 -19.4443c-2.77832 -2.77734 -8.33398 -2.77734 -13.8887 -2.77734c-8.33398 0 -13.8896 2.77734 -19.4453 5.55469c-5.55469 2.77832 -11.1104 8.33398 -13.8887 16.667c-25 66.667 -66.666 122.223 -125 163.889
c-8.33301 5.55566 -11.1113 13.8896 -13.8887 22.2227c-2.77734 8.33301 0 19.4443 5.55566 25c5.55566 8.33301 13.8887 11.1113 25 13.8887c11.1113 2.77832 19.4443 0 25 -5.55566c69.4443 -47.2217 119.444 -113.889 150 -191.666zM997.223 541.667
c2.77734 -8.33398 2.77734 -19.4443 0 -27.7783c-2.77832 -8.33301 -11.1113 -13.8887 -19.4453 -19.4443h-13.8887c-16.666 0 -27.7773 8.33301 -33.333 22.2227c-33.333 88.8887 -88.8887 161.11 -166.667 219.444c-8.33301 5.55566 -13.8887 13.8887 -13.8887 22.2217
c0 8.33398 0 19.4443 8.33301 25c5.55566 8.33398 13.8896 13.8896 22.2227 13.8896c8.33301 0 19.4443 0 25 -8.33398c88.8887 -61.1113 152.777 -144.444 191.667 -247.222z" unicode="&#xe02a;"></glyph>
    <glyph glyph-name="asterisk" unicode="&#xe02b;" d="M863.889 152.777c27.7783 -13.8887 36.1113 -50 19.4443 -77.7773c-8.33301 -16.667 -27.7773 -27.7773 -47.2217 -27.7773c-8.33398 0 -19.4443 2.77734 -27.7783 8.33301l-252.777 147.222v-291.666c0 -30.5557 -25 -55.5557 -55.5557 -55.5557
s-55.5557 25 -55.5557 55.5557v294.444l-252.777 -147.223c-8.33398 -5.55566 -19.4443 -8.33301 -27.7783 -8.33301c-19.4443 0 -36.1113 11.1113 -47.2217 27.7773c-16.667 25 -8.33398 58.334 19.4443 75l252.777 147.223l-252.777 147.223
c-25 13.8887 -36.1113 47.2217 -19.4443 75c13.8887 25 47.2217 36.1104 75 19.4443l252.777 -144.444v291.666c0 30.5557 25 55.5557 55.5557 55.5557s55.5557 -25 55.5557 -55.5557v-294.444l252.777 147.223c25 16.666 58.334 8.33301 75 -19.4443
c16.667 -25 8.33398 -58.334 -19.4443 -75l-252.777 -147.223z"></glyph>
    <glyph glyph-name="at" unicode="&#xe02c;" d="M616.667 369.444c0 41.667 -11.1113 75 -30.5557 97.2227c-19.4443 22.2217 -50 36.1104 -86.1113 36.1104c-25 0 -47.2227 -5.55469 -72.2227 -16.666c-22.2217 -11.1113 -44.4443 -27.7783 -63.8887 -50c-19.4443 -22.2227 -33.333 -47.2227 -47.2217 -80.5557
c-13.8896 -33.333 -16.667 -66.667 -16.667 -102.778c0 -44.4443 11.1113 -77.7773 30.5557 -100c19.4443 -22.2217 50 -36.1104 86.1113 -36.1104c36.1104 0 72.2217 13.8887 102.777 38.8887c30.5557 25 55.5557 58.333 72.2227 97.2217
c19.4443 36.1113 25 77.7783 25 116.667zM944.444 300c0 -41.667 -8.33301 -80.5557 -22.2217 -113.889c-13.8896 -33.334 -33.334 -58.334 -58.334 -77.7783c-25 -19.4443 -50 -33.333 -75 -44.4443c-27.7773 -11.1113 -55.5557 -13.8887 -83.333 -16.666h-8.33301
h-8.33398c-36.1113 0 -63.8887 11.1104 -83.333 30.5547c-11.1113 13.8896 -16.667 27.7783 -19.4443 47.2227c-19.4443 -25 -44.4443 -47.2227 -75 -63.8887c-30.5557 -16.667 -63.8887 -25 -100 -25c-61.1113 0 -111.111 19.4443 -144.444 55.5557
c-33.334 36.1104 -50 88.8887 -50 155.556c0 61.1104 13.8887 116.666 38.8887 166.666s61.1113 91.667 102.777 122.223c44.4443 30.5557 91.667 44.4443 141.667 44.4443c33.333 0 63.8887 -5.55566 88.8887 -19.4443s47.2227 -33.334 61.1113 -58.334v11.1113
l5.55566 33.334c0 2.77734 2.77734 5.55469 2.77734 5.55469c2.77832 2.77832 2.77832 2.77832 5.55566 2.77832h69.4443c2.77832 0 5.55566 -2.77832 8.33398 -5.55566c2.77734 -2.77734 2.77734 -5.55566 2.77734 -8.33301l-72.2217 -352.778
c-2.77832 -8.33301 -2.77832 -19.4443 -2.77832 -27.7773c0 -13.8887 2.77832 -25 8.33301 -30.5557c5.55566 -5.55566 13.8896 -8.33301 25 -8.33301c11.1113 0 22.2227 2.77734 33.334 2.77734s25 5.55566 41.666 13.8887c16.667 8.33398 30.5557 16.667 44.4453 27.7783
c13.8887 11.1104 25 27.7773 33.333 52.7773c8.33301 22.2227 13.8887 50 13.8887 80.5557c0 113.889 -33.333 202.777 -100 269.444c-66.667 66.667 -155.556 100 -269.444 100c-50 0 -97.2227 -11.1113 -144.444 -30.5557
c-47.2227 -19.4443 -83.333 -44.4443 -116.667 -77.7773c-33.333 -33.334 -58.333 -72.2227 -77.7773 -116.667c-22.2227 -47.2217 -30.5557 -94.4443 -30.5557 -144.444s11.1113 -97.2227 30.5557 -144.444c19.4443 -44.4443 47.2217 -86.1113 77.7773 -116.667
s72.2227 -58.333 116.667 -77.7773c44.4443 -19.4443 94.4443 -30.5557 144.444 -30.5557c88.8887 0 166.667 27.7773 233.333 83.333c5.55566 2.77832 8.33398 5.55566 13.8896 5.55566c5.55469 0 8.33301 -2.77734 11.1104 -5.55566l25 -27.7773
c2.77832 -5.55566 5.55566 -8.33398 2.77832 -13.8887c0 -5.55566 -2.77832 -8.33398 -5.55566 -13.8896c-38.8887 -33.333 -83.333 -55.5557 -130.556 -75c-50 -19.4443 -100 -27.7773 -150 -27.7773c-61.1113 0 -116.667 11.1113 -172.223 36.1113
c-55.5547 25 -102.777 55.5557 -141.666 94.4443s-72.2227 86.1113 -94.4443 141.666c-22.2227 55.5557 -36.1113 111.111 -36.1113 172.223s11.1113 116.667 36.1113 172.223c25 55.5547 55.5557 102.777 94.4443 141.666s86.1113 72.2227 141.666 94.4443
c55.5557 22.2227 111.111 36.1113 172.223 36.1113c133.333 0 238.889 -41.667 322.223 -122.222c83.333 -80.5557 122.222 -188.89 122.222 -322.223z"></glyph>
    <glyph glyph-name="audio-description" d="M219.444 244.444h75v113.889zM663.889 288.889c0 25 -8.33301 44.4443 -22.2217 61.1113c-13.8896 16.667 -36.1113 22.2227 -63.8896 22.2227h-22.2217v-169.445h22.2217c25 0 47.2227 8.33398 63.8896 25c16.666 16.667 22.2217 36.1113 22.2217 61.1113z
M416.667 452.777v-327.777c0 -2.77734 0 -8.33301 -2.77832 -11.1113c-2.77734 -2.77734 -5.55566 -5.55566 -11.1113 -5.55566h-94.4443c-2.77734 0 -8.33301 2.77832 -11.1104 5.55566c-2.77832 2.77832 -2.77832 5.55566 -2.77832 11.1113v27.7773h-127.777l-25 -36.1104
c-2.77832 -5.55566 -5.55566 -5.55566 -11.1113 -5.55566h-113.889c-5.55566 0 -11.1113 2.77734 -13.8896 8.33301c-2.77734 5.55566 -2.77734 8.33301 0 11.1113l241.667 327.777c2.77832 5.55566 8.33301 8.33398 11.1113 8.33398h144.444
c2.77734 0 8.33301 -2.77832 11.1113 -5.55566c2.77734 -2.77832 5.55566 -5.55566 5.55566 -8.33398zM775 288.889c0 -55.5557 -19.4443 -100 -55.5557 -130.556c-36.1113 -30.5557 -83.333 -47.2217 -141.667 -47.2217h-116.666
c-2.77832 0 -8.33398 2.77734 -11.1113 5.55566c-2.77734 2.77734 -5.55566 5.55566 -5.55566 11.1104v325c0 2.77832 2.77832 8.33398 5.55566 11.1113c2.77734 2.77832 5.55566 5.55566 11.1113 5.55566h116.666c58.334 0 105.556 -16.667 141.667 -47.2217
c36.1113 -30.5557 55.5557 -77.7783 55.5557 -133.334zM841.667 286.111v-13.8887c0 -5.55566 0 -16.667 -2.77832 -30.5557c-2.77734 -16.667 -5.55566 -30.5557 -8.33301 -44.4443c-2.77832 -13.8896 -11.1113 -30.5557 -19.4443 -47.2227
c-8.33398 -16.667 -19.4443 -33.333 -30.5557 -44.4443h-22.2227c11.1113 13.8887 19.4443 27.7773 27.7783 44.4443c8.33301 16.667 13.8887 33.333 16.666 47.2227c2.77832 13.8887 5.55566 30.5547 8.33398 41.666c2.77734 13.8887 2.77734 25 2.77734 30.5557v11.1113
v11.1113c0 5.55566 0 13.8887 -2.77734 25c-2.77832 13.8887 -5.55566 27.7773 -8.33398 38.8887c-2.77734 13.8887 -8.33301 30.5557 -16.666 47.2217c-8.33398 16.667 -16.667 36.1113 -27.7783 52.7783h19.4443c11.1113 -13.8887 22.2227 -27.7783 30.5557 -47.2227
c8.33398 -16.666 16.667 -33.333 19.4443 -47.2217c5.55566 -13.8887 8.33398 -27.7783 11.1113 -41.667c2.77832 -13.8887 2.77832 -22.2217 5.55566 -30.5557zM922.223 286.111v-13.8887c0 -5.55566 0 -16.667 -2.77832 -30.5557
c-2.77734 -16.667 -5.55566 -30.5557 -8.33301 -44.4443c-2.77832 -13.8896 -11.1113 -30.5557 -19.4443 -47.2227c-8.33398 -16.667 -19.4443 -33.333 -33.334 -44.4443h-22.2217c11.1113 13.8887 19.4443 27.7773 27.7773 44.4443
c8.33398 16.667 13.8887 33.333 16.667 47.2227c2.77734 13.8887 5.55566 30.5547 8.33301 41.666c2.77832 13.8887 2.77832 25 2.77832 30.5557v11.1113v11.1113c0 5.55566 0 13.8887 -2.77832 25c-2.77734 13.8887 -5.55566 27.7773 -8.33301 38.8887
c-2.77832 11.1113 -8.33301 30.5557 -16.667 47.2217c-8.33301 16.667 -16.666 36.1113 -27.7773 52.7783h19.4443c11.1113 -13.8887 22.2217 -27.7783 30.5557 -47.2227c8.33301 -16.666 16.666 -33.333 19.4443 -47.2217
c5.55566 -13.8887 8.33301 -27.7783 11.1113 -41.667c2.77734 -13.8887 2.77734 -22.2217 5.55566 -30.5557v-2.77734zM1000 286.111v-13.8887c0 -5.55566 0 -16.667 -2.77734 -30.5557c-2.77832 -16.667 -5.55566 -30.5557 -8.33398 -44.4443
c-2.77734 -13.8896 -11.1113 -30.5557 -19.4443 -47.2227c-8.33301 -16.667 -19.4443 -33.333 -30.5557 -44.4443h-22.2217c11.1104 13.8887 19.4443 27.7773 27.7773 44.4443c8.33301 16.667 13.8887 33.333 16.667 47.2227
c2.77734 13.8887 5.55566 30.5547 8.33301 41.666c2.77832 13.8887 2.77832 25 2.77832 30.5557v11.1113v11.1113c0 5.55566 0 13.8887 -2.77832 25c-2.77734 13.8887 -5.55566 27.7773 -8.33301 38.8887c-2.77832 13.8887 -8.33398 30.5557 -16.667 47.2217
c-8.33301 16.667 -16.667 36.1113 -27.7773 52.7783h19.4443c11.1113 -13.8887 22.2217 -27.7783 30.5557 -47.2227c8.33301 -16.666 16.666 -33.333 19.4443 -47.2217c5.55566 -13.8887 8.33301 -27.7783 11.1113 -41.667
c2.77734 -13.8887 2.77734 -22.2217 2.77734 -30.5557v-2.77734z" unicode="&#xe02d;"></glyph>
    <glyph glyph-name="automobile" d="M883.333 380.556c66.667 -8.33301 116.667 -66.667 113.89 -136.111v-111.111c0 -66.666 -50 -125 -113.89 -136.11c2.77832 -5.55566 2.77832 -8.33398 2.77832 -11.1113v-102.778c0 -16.666 -11.1113 -27.7773 -27.7783 -27.7773v0
c-16.666 0 -27.7773 11.1113 -27.7773 27.7773v102.778c0 2.77734 2.77734 5.55566 2.77734 8.33301h-669.444c2.77832 -2.77734 2.77832 -5.55566 2.77832 -8.33301v-102.778c0 -16.666 -11.1113 -27.7773 -27.7783 -27.7773v0
c-16.666 0 -27.7773 11.1113 -27.7773 27.7773v105.556c0 2.77832 0 5.55566 2.77734 8.33398c-63.8887 11.1104 -113.889 69.4443 -113.889 136.11v111.111c0 69.4443 50 127.778 116.667 136.111l77.7773 344.444c2.77832 11.1113 13.8887 19.4443 27.7783 19.4443
h555.555c13.8896 0 25 -8.33301 27.7783 -19.4443zM244.444 688.889l-69.4443 -305.556h650l-69.4443 305.556h-511.111zM944.444 133.333v111.111c0 47.2227 -38.8887 83.333 -83.333 83.333h-722.223c-47.2217 0 -83.333 -38.8887 -83.333 -83.333v-111.111
c0 -47.2217 38.8887 -83.333 83.333 -83.333h722.223c47.2217 0 83.333 38.8887 83.333 83.333zM250 244.444c16.667 0 27.7773 -11.1113 27.7773 -27.7773v-55.5557c0 -16.667 -11.1104 -27.7783 -27.7773 -27.7783h-111.111c-16.666 0 -27.7773 11.1113 -27.7773 27.7783
v55.5557c0 16.666 11.1113 27.7773 27.7773 27.7773h111.111zM861.111 244.444c16.666 0 27.7773 -11.1113 27.7773 -27.7773v-55.5557c0 -16.667 -11.1113 -27.7783 -27.7773 -27.7783h-111.111c-16.667 0 -27.7773 11.1113 -27.7773 27.7783v55.5557
c0 16.666 11.1104 27.7773 27.7773 27.7773h111.111z" unicode="&#xe02e;"></glyph>
    <glyph glyph-name="backward" d="M811.111 588.889c8.33301 8.33398 22.2217 0 22.2217 -11.1113v-555.555c0 -11.1113 -13.8887 -19.4453 -22.2217 -11.1113l-255.556 200v-188.889c0 -11.1113 -13.8887 -19.4453 -22.2227 -11.1113l-352.777 277.777c-8.33301 5.55566 -8.33301 16.667 0 22.2227
l352.777 277.777c8.33398 8.33398 22.2227 0 22.2227 -11.1113v-188.889z" unicode="&#xe02f;"></glyph>
    <glyph glyph-name="balance-scale" d="M736.111 -33.333c8.33301 0 13.8887 -5.55566 13.8887 -13.8896v-27.7773c0 -8.33301 -5.55566 -13.8887 -13.8887 -13.8887h-472.223c-8.33301 0 -13.8887 8.33301 -13.8887 13.8887v27.7773c0 8.33398 5.55566 13.8896 13.8887 13.8896h208.334v561.11
c-22.2227 8.33398 -41.667 27.7783 -50 50h-236.111c-8.33398 -16.666 -27.7783 -27.7773 -47.2227 -27.7773c-30.5557 0 -55.5557 25 -55.5557 55.5557c0 30.5557 25 55.5557 55.5557 55.5557c22.2227 0 38.8887 -11.1113 47.2227 -27.7783h236.111
c11.1104 33.334 41.666 55.5557 77.7773 55.5557s66.667 -22.2217 77.7773 -55.5557h236.111c8.33398 16.667 27.7783 27.7783 47.2227 27.7783c30.5557 0 55.5557 -25 55.5557 -55.5557c0 -30.5557 -25 -55.5557 -55.5557 -55.5557
c-19.4443 0 -38.8887 11.1113 -47.2227 27.7773h-236.111c-8.33301 -22.2217 -27.7773 -41.666 -50 -50v-561.11h208.334zM500 633.333c-13.8887 0 -27.7773 -11.1104 -27.7773 -27.7773c0 -16.667 11.1104 -27.7783 27.7773 -27.7783s27.7773 11.1113 27.7773 27.7783
c0 16.667 -11.1104 27.7773 -27.7773 27.7773zM1000 188.889v0c0 -77.7773 -61.1113 -141.666 -136.111 -141.666s-138.889 63.8887 -138.889 141.666v0v0v5.55566v5.55566v0v0l111.111 277.777c2.77734 11.1113 13.8887 16.667 25 16.667s22.2217 -5.55566 27.7773 -16.667
l111.111 -277.777v0v0v-5.55566v-5.55566v0zM861.111 391.667l-69.4443 -175h138.889zM861.111 102.777c36.1113 0 69.4443 25 80.5557 61.1113h-158.334c8.33398 -36.1113 41.667 -61.1113 77.7783 -61.1113zM277.777 188.889v0
c0 -77.7773 -61.1104 -141.666 -136.11 -141.666c-75 0 -138.89 63.8887 -138.89 141.666v0v0v5.55566v5.55566v0v0l111.111 277.777c2.77832 11.1113 13.8887 16.667 25 16.667s22.2227 -5.55566 27.7783 -16.667l111.11 -277.777v0v0v-5.55566v-5.55566v0z
M138.889 391.667l-69.4443 -175h138.889zM138.889 102.777c36.1113 0 69.4443 25 80.5557 61.1113h-158.333c8.33301 -36.1113 41.666 -61.1113 77.7773 -61.1113z" unicode="&#xe030;"></glyph>
    <glyph glyph-name="ban" d="M500 800c275 0 500 -225 500 -500s-225 -500 -500 -500c-136.111 0 -261.111 55.5557 -350 141.667c0 2.77734 -2.77734 2.77734 -2.77734 2.77734c-2.77832 0 -2.77832 2.77832 -2.77832 2.77832c-88.8887 91.666 -144.444 216.666 -144.444 352.777
c0 275 222.223 500 500 500zM500 744.444c-244.444 0 -444.444 -200 -444.444 -444.444c0 -113.889 41.667 -216.667 111.111 -294.444l627.777 627.777c-77.7773 69.4443 -180.556 111.111 -294.444 111.111zM500 -144.444c244.444 0 444.444 200 444.444 441.667
c0 113.889 -41.667 216.666 -111.111 294.444l-627.777 -625c80.5557 -69.4443 183.333 -111.111 294.444 -111.111z" unicode="&#xe031;"></glyph>
    <glyph glyph-name="bandcamp" d="M597.223 141.667l169.444 313.889h-363.89l-169.444 -313.889h363.89zM1000 300c0 -66.667 -13.8887 -133.333 -38.8887 -194.444c-25 -61.1113 -61.1113 -113.889 -105.556 -158.333c-44.4443 -44.4453 -97.2227 -80.5557 -158.333 -105.556
c-61.1113 -25 -130.556 -41.667 -197.223 -41.667s-133.333 13.8887 -194.444 38.8887c-61.1113 25 -113.889 61.1113 -158.333 105.556c-44.4453 44.4443 -80.5557 97.2227 -105.556 158.333c-25 61.1113 -41.667 130.556 -41.667 197.223s13.8887 133.333 38.8887 194.444
c25 61.1113 61.1113 113.889 105.556 158.333c44.4443 44.4453 100 80.5557 161.111 108.334c61.1113 27.7773 127.777 38.8887 194.444 38.8887s133.333 -13.8887 194.444 -38.8887c61.1113 -25 113.889 -61.1113 158.333 -105.556
c44.4453 -44.4443 80.5557 -97.2227 105.556 -158.333c25 -61.1113 41.667 -130.556 41.667 -197.223z" unicode="&#xe032;"></glyph>
    <glyph glyph-name="bank" d="M972.223 -61.1113c16.666 0 27.7773 -11.1113 27.7773 -27.7773c0 -16.667 -11.1113 -27.7783 -27.7773 -27.7783h-155.556h-122.223h-133.333h-122.223h-133.333h-122.223h-155.556c-16.666 0 -27.7773 11.1113 -27.7773 27.7783
c0 16.666 11.1113 27.7773 27.7773 27.7773h127.778v486.111h-127.778c-13.8887 0 -25 8.33301 -27.7773 19.4443c-2.77734 11.1113 2.77734 25 13.8887 30.5557l472.223 263.889c8.33301 5.55566 19.4443 5.55566 27.7773 0l472.223 -263.889
c11.1113 -5.55566 16.666 -19.4443 13.8887 -30.5557c-2.77734 -11.1113 -13.8887 -19.4443 -27.7773 -19.4443h-127.778v-486.111h127.778zM500 686.111l-366.667 -205.556h50h122.223h133.333h122.223h133.333h122.223h50zM666.667 425h-77.7783v-486.111h77.7783v486.111
zM411.111 425h-77.7783v-486.111h77.7783v486.111zM211.111 -61.1113h66.666v486.111h-66.666v-486.111zM466.667 -61.1113h66.666v486.111h-66.666v-486.111zM722.223 -61.1113h66.666v486.111h-66.666v-486.111z" unicode="&#xe033;"></glyph>
    <glyph glyph-name="bar-chart-o" d="M986.111 -88.8887h-986.111v763.889c0 8.33301 5.55566 13.8887 13.8887 13.8887h27.7783c8.33301 0 13.8887 -5.55566 13.8887 -13.8887v-708.333h930.556c8.33301 0 13.8887 -5.55566 13.8887 -13.8896v-27.7773c0 -8.33301 -5.55566 -13.8887 -13.8887 -13.8887z
M138.889 22.2227v333.333h111.111v-333.333h-111.111zM361.111 22.2227v611.11h111.111v-611.11h-111.111zM805.556 22.2227v555.555h111.111v-555.555h-111.111zM583.333 22.2227v444.444h111.111v-444.444h-111.111z" unicode="&#xe034;"></glyph>
    <glyph glyph-name="barcode" d="M41.667 494.444h-27.7783c-8.33301 0 -13.8887 5.55566 -13.8887 13.8887v138.89c0 8.33301 5.55566 13.8887 13.8887 13.8887h138.889c8.33398 0 13.8896 -5.55566 13.8896 -13.8887v-27.7783c0 -8.33301 -5.55566 -13.8887 -13.8896 -13.8887h-97.2217v-97.2227
c0 -8.33301 -5.55566 -13.8887 -13.8887 -13.8887zM986.111 494.444h-27.7783c-8.33301 0 -13.8887 5.55566 -13.8887 13.8887v97.2227h-97.2217c-8.33398 0 -13.8896 5.55566 -13.8896 13.8887v27.7783c0 8.33301 5.55566 13.8887 13.8896 13.8887h138.889
c8.33301 0 13.8887 -5.55566 13.8887 -13.8887v-138.89c0 -8.33301 -5.55566 -13.8887 -13.8887 -13.8887zM986.111 -61.1113h-138.889c-8.33398 0 -13.8896 5.55566 -13.8896 13.8887v27.7783c0 8.33301 5.55566 13.8887 13.8896 13.8887h97.2217v97.2227
c0 8.33301 5.55566 13.8887 13.8887 13.8887h27.7783c8.33301 0 13.8887 -5.55566 13.8887 -13.8887v-138.89c0 -8.33301 -5.55566 -13.8887 -13.8887 -13.8887zM152.777 -61.1113h-138.889c-8.33301 0 -13.8887 5.55566 -13.8887 13.8887v138.89
c0 8.33301 5.55566 13.8887 13.8887 13.8887h27.7783c8.33301 0 13.8887 -5.55566 13.8887 -13.8887v-97.2227h97.2217c8.33398 0 13.8896 -5.55566 13.8896 -13.8887v-27.7783c0 -8.33301 -5.55566 -13.8887 -13.8896 -13.8887zM513.889 77.7773h-27.7773
c-8.33398 0 -13.8887 5.55566 -13.8887 13.8896v416.666c0 8.33398 5.55469 13.8896 13.8887 13.8896h27.7773c8.33398 0 13.8887 -5.55566 13.8887 -13.8896v-416.666c0 -8.33398 -5.55469 -13.8896 -13.8887 -13.8896zM402.777 77.7773h-27.7773
c-8.33301 0 -13.8887 5.55566 -13.8887 13.8896v416.666c0 8.33398 5.55566 13.8896 13.8887 13.8896h27.7773c8.33398 0 13.8896 -5.55566 13.8896 -13.8896v-416.666c0 -8.33398 -5.55566 -13.8896 -13.8896 -13.8896zM291.667 77.7773h-27.7783
c-8.33301 0 -13.8887 5.55566 -13.8887 13.8896v416.666c0 8.33398 5.55566 13.8896 13.8887 13.8896h27.7783c8.33301 0 13.8887 -5.55566 13.8887 -13.8896v-416.666c0 -8.33398 -5.55566 -13.8896 -13.8887 -13.8896zM180.556 77.7773h-27.7783
c-8.33301 0 -13.8887 5.55566 -13.8887 13.8896v416.666c0 8.33398 5.55566 13.8896 13.8887 13.8896h27.7783c8.33301 0 13.8887 -5.55566 13.8887 -13.8896v-416.666c0 -8.33398 -5.55566 -13.8896 -13.8887 -13.8896zM625 77.7773h-27.7773
c-8.33398 0 -13.8896 5.55566 -13.8896 13.8896v416.666c0 8.33398 5.55566 13.8896 13.8896 13.8896h27.7773c8.33301 0 13.8887 -5.55566 13.8887 -13.8896v-416.666c0 -8.33398 -5.55566 -13.8896 -13.8887 -13.8896zM736.111 77.7773h-27.7783
c-8.33301 0 -13.8887 5.55566 -13.8887 13.8896v416.666c0 8.33398 5.55566 13.8896 13.8887 13.8896h27.7783c8.33301 0 13.8887 -5.55566 13.8887 -13.8896v-416.666c0 -8.33398 -5.55566 -13.8896 -13.8887 -13.8896zM847.223 77.7773h-27.7783
c-8.33301 0 -13.8887 5.55566 -13.8887 13.8896v416.666c0 8.33398 5.55566 13.8896 13.8887 13.8896h27.7783c8.33301 0 13.8887 -5.55566 13.8887 -13.8896v-416.666c0 -8.33398 -5.55566 -13.8896 -13.8887 -13.8896z" unicode="&#xe035;"></glyph>
    <glyph glyph-name="bars" d="M930.556 633.333h-861.111c-8.33301 0 -13.8887 5.55566 -13.8887 13.8896v27.7773c0 8.33301 5.55566 13.8887 13.8887 13.8887h861.111c8.33301 0 13.8887 -5.55566 13.8887 -13.8887v-27.7773c0 -8.33398 -5.55566 -13.8896 -13.8887 -13.8896zM930.556 -88.8887
h-861.111c-8.33301 0 -13.8887 5.55566 -13.8887 13.8887v27.7773c0 8.33398 5.55566 13.8896 13.8887 13.8896h861.111c8.33301 0 13.8887 -5.55566 13.8887 -13.8896v-27.7773c0 -8.33301 -5.55566 -13.8887 -13.8887 -13.8887zM930.556 272.223h-861.111
c-8.33301 0 -13.8887 5.55469 -13.8887 13.8887v27.7773c0 8.33398 5.55566 13.8887 13.8887 13.8887h861.111c8.33301 0 13.8887 -5.55469 13.8887 -13.8887v-27.7773c0 -8.33398 -5.55566 -13.8887 -13.8887 -13.8887z" unicode="&#xe036;"></glyph>
    <glyph glyph-name="bath" d="M916.667 327.777c16.666 0 27.7773 -11.1104 27.7773 -25v-138.889c0 -80.5557 -61.1113 -152.777 -136.111 -191.666l47.2227 -72.2227c8.33301 -13.8887 5.55566 -30.5557 -8.33301 -38.8887c-5.55566 -2.77832 -11.1113 -5.55566 -16.667 -5.55566
c-8.33301 0 -16.667 2.77734 -22.2227 11.1113l-52.7773 80.5557c-19.4443 -5.55566 -41.667 -8.33398 -61.1113 -8.33398h-416.667c-13.8887 0 -25 2.77832 -38.8887 2.77832l-50 -75c-5.55566 -5.55566 -13.8887 -11.1113 -22.2217 -11.1113
c-5.55566 0 -11.1113 2.77734 -13.8896 2.77734c-13.8887 8.33398 -16.666 25 -8.33301 38.8896l41.667 63.8887c-75 36.1113 -130.556 116.666 -130.556 200v138.889c0 16.667 11.1113 27.7773 27.7773 27.7773h27.7783v388.89c0 16.666 13.8887 27.7773 27.7773 27.7773
h138.889c16.667 0 27.7783 -11.1113 27.7783 -27.7773v-138.89c0 -16.666 -11.1113 -27.7773 -27.7783 -27.7773c-16.666 0 -27.7773 11.1113 -27.7773 27.7773v111.111h-83.333v-361.111h750zM888.889 161.111v111.111h-777.777v-111.111
c0 -83.334 83.333 -166.667 166.666 -166.667h416.667c83.333 0 194.444 83.333 194.444 166.667z" unicode="&#xe037;"></glyph>
    <glyph glyph-name="battery-0" d="M944.444 480.556c0 8.33301 5.55566 13.8887 13.8887 13.8887h27.7783c8.33301 0 13.8887 -5.55566 13.8887 -13.8887v-361.111c0 -8.33301 -5.55566 -13.8887 -13.8887 -13.8887h-27.7783c-8.33301 0 -13.8887 5.55566 -13.8887 13.8887v361.111zM880.556 641.667
l-33.333 -36.1113l-688.89 -741.667c-5.55566 -5.55566 -11.1104 -8.33301 -19.4443 -8.33301c-5.55566 0 -13.8887 2.77734 -19.4443 8.33301c-13.8887 11.1113 -13.8887 27.7783 -2.77734 38.8887l86.1104 91.667h-75h-100c-16.666 0 -27.7773 11.1113 -27.7773 27.7783
v555.555c0 16.667 11.1113 27.7783 27.7773 27.7783h666.667h77.7783l69.4443 72.2217c2.77734 2.77832 5.55566 2.77832 8.33301 5.55566h2.77734c2.77832 2.77832 5.55566 2.77832 8.33398 2.77832v0h5.55566h2.77734c2.77832 0 5.55566 -2.77832 8.33301 -5.55566
c13.8896 -11.1113 13.8896 -27.7783 2.77832 -38.8887zM255.556 50l463.889 500h-75h-588.889v-500h125h75zM833.333 50v458.333l55.5557 61.1113v-547.222c0 -16.667 -11.1113 -27.7783 -27.7773 -27.7783h-505.556l52.7773 55.5557h425z" unicode="&#xe038;"></glyph>
    <glyph glyph-name="battery-1" d="M861.111 605.556c16.666 0 27.7773 -11.1113 27.7773 -27.7783v-555.555c0 -16.667 -11.1113 -27.7783 -27.7773 -27.7783h-833.334c-16.666 0 -27.7773 11.1113 -27.7773 27.7783v555.555c0 16.667 13.8887 27.7783 27.7773 27.7783h833.334zM833.333 50v500h-777.777
v-500h777.777zM986.111 494.444c8.33301 0 13.8887 -5.55566 13.8887 -13.8887v-361.111c0 -8.33301 -5.55566 -13.8887 -13.8887 -13.8887h-27.7783c-8.33301 0 -13.8887 5.55566 -13.8887 13.8887v361.111c0 8.33301 5.55566 13.8887 13.8887 13.8887h27.7783z
M125 272.223c-8.33301 0 -13.8887 5.55469 -13.8887 13.8887v27.7773c0 8.33398 5.55566 13.8887 13.8887 13.8887h69.4443v69.4453c0 8.33301 5.55566 13.8887 13.8887 13.8887h27.7783c8.33301 0 13.8887 -5.55566 13.8887 -13.8887v-69.4453h69.4443
c8.33301 0 13.8887 -5.55469 13.8887 -13.8887v-27.7773c0 -8.33398 -5.55566 -13.8887 -13.8887 -13.8887h-69.4443v-69.4453c0 -8.33301 -5.55566 -13.8887 -13.8887 -13.8887h-27.7783c-8.33301 0 -13.8887 5.55566 -13.8887 13.8887v69.4453h-69.4443zM569.444 272.223
c-8.33301 0 -13.8887 5.55469 -13.8887 13.8887v27.7773c0 8.33398 5.55566 13.8887 13.8887 13.8887h194.444c8.33398 0 13.8887 -5.55469 13.8887 -13.8887v-27.7773c0 -8.33398 -5.55469 -13.8887 -13.8887 -13.8887h-194.444z" unicode="&#xe039;"></glyph>
    <glyph glyph-name="battery-2" d="M861.111 -5.55566h-833.334c-16.666 0 -27.7773 11.1113 -27.7773 27.7783v555.555c0 16.667 11.1113 27.7783 27.7773 27.7783h833.334c16.666 0 27.7773 -11.1113 27.7773 -27.7783v-555.555c0 -13.8896 -11.1113 -27.7783 -27.7773 -27.7783zM55.5557 50h777.777v500
h-777.777v-500zM986.111 105.556h-27.7783c-8.33301 0 -13.8887 5.55566 -13.8887 13.8887v361.111c0 8.33301 5.55566 13.8887 13.8887 13.8887h27.7783c8.33301 0 13.8887 -5.55566 13.8887 -13.8887v-361.111c0 -8.33301 -5.55566 -13.8887 -13.8887 -13.8887z
M555.556 327.777l-194.444 -222.222l55.5557 166.667h-83.334l166.667 222.222l-27.7773 -166.667h83.333z" unicode="&#xe03a;"></glyph>
    <glyph glyph-name="battery-3" d="M291.667 105.556h-166.667c-8.33301 0 -13.8887 5.55566 -13.8887 13.8887v361.111c0 8.33301 5.55566 13.8887 13.8887 13.8887h166.667c8.33301 0 13.8887 -5.55566 13.8887 -13.8887v-361.111c0 -8.33301 -5.55566 -13.8887 -13.8887 -13.8887zM541.667 105.556
h-166.667c-8.33301 0 -13.8887 5.55566 -13.8887 13.8887v361.111c0 8.33301 5.55566 13.8887 13.8887 13.8887h166.667c8.33301 0 13.8887 -5.55566 13.8887 -13.8887v-361.111c0 -8.33301 -5.55566 -13.8887 -13.8887 -13.8887zM763.889 105.556h-138.889
c-8.33301 0 -13.8887 5.55566 -13.8887 13.8887v361.111c0 8.33301 5.55566 13.8887 13.8887 13.8887h138.889c8.33398 0 13.8887 -5.55566 13.8887 -13.8887v-361.111c0 -8.33301 -5.55469 -13.8887 -13.8887 -13.8887zM861.111 -5.55566h-833.334
c-16.666 0 -27.7773 11.1113 -27.7773 27.7783v555.555c0 16.667 11.1113 27.7783 27.7773 27.7783h833.334c16.666 0 27.7773 -11.1113 27.7773 -27.7783v-555.555c0 -13.8896 -11.1113 -27.7783 -27.7773 -27.7783zM55.5557 50h777.777v500h-777.777v-500z
M986.111 105.556h-27.7783c-8.33301 0 -13.8887 5.55566 -13.8887 13.8887v361.111c0 8.33301 5.55566 13.8887 13.8887 13.8887h27.7783c8.33301 0 13.8887 -5.55566 13.8887 -13.8887v-361.111c0 -8.33301 -5.55566 -13.8887 -13.8887 -13.8887z" unicode="&#xe03b;"></glyph>
    <glyph glyph-name="battery-full" d="M763.889 105.556h-638.889c-8.33301 0 -13.8887 5.55566 -13.8887 13.8887v361.111c0 8.33301 5.55566 13.8887 13.8887 13.8887h638.889c8.33398 0 13.8887 -5.55566 13.8887 -13.8887v-361.111c0 -8.33301 -5.55469 -13.8887 -13.8887 -13.8887zM861.111 -5.55566
h-833.334c-16.666 0 -27.7773 11.1113 -27.7773 27.7783v555.555c0 16.667 11.1113 27.7783 27.7773 27.7783h833.334c16.666 0 27.7773 -11.1113 27.7773 -27.7783v-555.555c0 -13.8896 -11.1113 -27.7783 -27.7773 -27.7783zM55.5557 50h777.777v500h-777.777v-500z
M986.111 105.556h-27.7783c-8.33301 0 -13.8887 5.55566 -13.8887 13.8887v361.111c0 8.33301 5.55566 13.8887 13.8887 13.8887h27.7783c8.33301 0 13.8887 -5.55566 13.8887 -13.8887v-361.111c0 -8.33301 -5.55566 -13.8887 -13.8887 -13.8887z" unicode="&#xe03c;"></glyph>
    <glyph glyph-name="battery-empty" d="M861.111 -5.55566h-833.334c-16.666 0 -27.7773 11.1113 -27.7773 27.7783v555.555c0 16.667 11.1113 27.7783 27.7773 27.7783h833.334c16.666 0 27.7773 -11.1113 27.7773 -27.7783v-555.555c0 -13.8896 -11.1113 -27.7783 -27.7773 -27.7783zM55.5557 50h777.777v500
h-777.777v-500zM986.111 105.556h-27.7783c-8.33301 0 -13.8887 5.55566 -13.8887 13.8887v361.111c0 8.33301 5.55566 13.8887 13.8887 13.8887h27.7783c8.33301 0 13.8887 -5.55566 13.8887 -13.8887v-361.111c0 -8.33301 -5.55566 -13.8887 -13.8887 -13.8887z" unicode="&#xe03d;"></glyph>
    <glyph glyph-name="battery-low" d="M180.556 105.556h-55.5557c-8.33301 0 -13.8887 5.55566 -13.8887 13.8887v361.111c0 8.33301 5.55566 13.8887 13.8887 13.8887h55.5557c8.33301 0 13.8887 -5.55566 13.8887 -13.8887v-361.111c0 -8.33301 -5.55566 -13.8887 -13.8887 -13.8887zM861.111 -5.55566
h-833.334c-16.666 0 -27.7773 11.1113 -27.7773 27.7783v555.555c0 16.667 11.1113 27.7783 27.7773 27.7783h833.334c16.666 0 27.7773 -11.1113 27.7773 -27.7783v-555.555c0 -13.8896 -11.1113 -27.7783 -27.7773 -27.7783zM55.5557 50h777.777v500h-777.777v-500z
M986.111 105.556h-27.7783c-8.33301 0 -13.8887 5.55566 -13.8887 13.8887v361.111c0 8.33301 5.55566 13.8887 13.8887 13.8887h27.7783c8.33301 0 13.8887 -5.55566 13.8887 -13.8887v-361.111c0 -8.33301 -5.55566 -13.8887 -13.8887 -13.8887z" unicode="&#xe03e;"></glyph>
    <glyph glyph-name="battery-quater" d="M319.444 105.556h-194.444c-8.33301 0 -13.8887 5.55566 -13.8887 13.8887v361.111c0 8.33301 5.55566 13.8887 13.8887 13.8887h194.444c8.33301 0 13.8887 -5.55566 13.8887 -13.8887v-361.111c0 -8.33301 -5.55566 -13.8887 -13.8887 -13.8887zM861.111 -5.55566
h-833.334c-16.666 0 -27.7773 11.1113 -27.7773 27.7783v555.555c0 16.667 11.1113 27.7783 27.7773 27.7783h833.334c16.666 0 27.7773 -11.1113 27.7773 -27.7783v-555.555c0 -13.8896 -11.1113 -27.7783 -27.7773 -27.7783zM55.5557 50h777.777v500h-777.777v-500z
M986.111 105.556h-27.7783c-8.33301 0 -13.8887 5.55566 -13.8887 13.8887v361.111c0 8.33301 5.55566 13.8887 13.8887 13.8887h27.7783c8.33301 0 13.8887 -5.55566 13.8887 -13.8887v-361.111c0 -8.33301 -5.55566 -13.8887 -13.8887 -13.8887z" unicode="&#xe03f;"></glyph>
    <glyph glyph-name="battery-half" d="M861.111 -5.55566h-833.334c-16.666 0 -27.7773 11.1113 -27.7773 27.7783v555.555c0 16.667 11.1113 27.7783 27.7773 27.7783h833.334c16.666 0 27.7773 -11.1113 27.7773 -27.7783v-555.555c0 -13.8896 -11.1113 -27.7783 -27.7773 -27.7783zM55.5557 50h777.777v500
h-777.777v-500zM986.111 105.556h-27.7783c-8.33301 0 -13.8887 5.55566 -13.8887 13.8887v361.111c0 8.33301 5.55566 13.8887 13.8887 13.8887h27.7783c8.33301 0 13.8887 -5.55566 13.8887 -13.8887v-361.111c0 -8.33301 -5.55566 -13.8887 -13.8887 -13.8887z
M458.333 105.556h-333.333c-8.33301 0 -13.8887 5.55566 -13.8887 13.8887v361.111c0 8.33301 5.55566 13.8887 13.8887 13.8887l333.333 -2.77734c8.33398 0 13.8896 -5.55566 13.8896 -13.8896v-361.11c0 -5.55566 -5.55566 -11.1113 -13.8896 -11.1113z" unicode="&#xe040;"></glyph>
    <glyph glyph-name="battery-three-quarters" d="M861.111 -5.55566h-833.334c-16.666 0 -27.7773 11.1113 -27.7773 27.7783v555.555c0 16.667 11.1113 27.7783 27.7773 27.7783h833.334c16.666 0 27.7773 -11.1113 27.7773 -27.7783v-555.555c0 -13.8896 -11.1113 -27.7783 -27.7773 -27.7783zM55.5557 50h777.777v500
h-777.777v-500zM986.111 105.556h-27.7783c-8.33301 0 -13.8887 5.55566 -13.8887 13.8887v361.111c0 8.33301 5.55566 13.8887 13.8887 13.8887h27.7783c8.33301 0 13.8887 -5.55566 13.8887 -13.8887v-361.111c0 -8.33301 -5.55566 -13.8887 -13.8887 -13.8887z
M597.223 105.556h-472.223c-8.33301 0 -13.8887 5.55566 -13.8887 13.8887v361.111c0 8.33301 5.55566 13.8887 13.8887 13.8887l472.223 -2.77734c8.33301 0 13.8887 -5.55566 13.8887 -13.8896v-361.11c0 -5.55566 -5.55566 -11.1113 -13.8887 -11.1113z" unicode="&#xe041;"></glyph>
    <glyph glyph-name="battery" d="M763.889 105.556h-638.889c-8.33301 0 -13.8887 5.55566 -13.8887 13.8887v361.111c0 8.33301 5.55566 13.8887 13.8887 13.8887h638.889c8.33398 0 13.8887 -5.55566 13.8887 -13.8887v-361.111c0 -8.33301 -5.55469 -13.8887 -13.8887 -13.8887zM861.111 -5.55566
h-833.334c-16.666 0 -27.7773 11.1113 -27.7773 27.7783v555.555c0 16.667 11.1113 27.7783 27.7773 27.7783h833.334c16.666 0 27.7773 -11.1113 27.7773 -27.7783v-555.555c0 -13.8896 -11.1113 -27.7783 -27.7773 -27.7783zM55.5557 50h777.777v500h-777.777v-500z
M986.111 105.556h-27.7783c-8.33301 0 -13.8887 5.55566 -13.8887 13.8887v361.111c0 8.33301 5.55566 13.8887 13.8887 13.8887h27.7783c8.33301 0 13.8887 -5.55566 13.8887 -13.8887v-361.111c0 -8.33301 -5.55566 -13.8887 -13.8887 -13.8887z" unicode="&#xe042;"></glyph>
    <glyph glyph-name="bed" d="M916.667 347.223c50 -22.2227 83.333 -69.4453 83.333 -125v-116.667c0 -16.667 -11.1113 -27.7783 -27.7773 -27.7783h-27.7783v-83.333c0 -16.667 -11.1113 -27.7773 -27.7773 -27.7773c-16.667 0 -27.7783 11.1104 -27.7783 27.7773v80.5557h-775v-80.5557
c0 -16.667 -11.1113 -27.7773 -27.7773 -27.7773c-16.667 0 -27.7783 11.1104 -27.7783 27.7773v83.333h-30.5557c-16.666 0 -27.7773 11.1113 -27.7773 27.7783v116.667c0 55.5547 33.333 102.777 83.333 122.222v261.111c0 16.667 13.8896 27.7773 27.7783 27.7773
h777.777c16.667 0 27.7783 -11.1104 27.7783 -27.7773v-258.333zM138.889 577.777v-222.222h55.5557v83.333c0 16.667 11.1113 27.7783 27.7783 27.7783h222.222c16.667 0 27.7783 -11.1113 27.7783 -27.7783v-83.333h55.5547v83.333
c0 16.667 11.1113 27.7783 27.7783 27.7783h222.222c16.667 0 27.7783 -11.1113 27.7783 -27.7783v-83.333h55.5557v222.222h-722.223zM750 355.556v55.5557h-166.667v-55.5557h166.667zM416.667 355.556v55.5557h-166.667v-55.5557h166.667zM944.444 133.333v88.8896
c0 41.666 -36.1113 77.7773 -77.7773 77.7773h-88.8896h-222.222h-111.111h-222.222h-88.8896c-41.666 0 -77.7773 -33.333 -77.7773 -77.7773v-88.8896h888.889z" unicode="&#xe043;"></glyph>
    <glyph glyph-name="beer" d="M472.223 800c97.2217 -2.77734 277.777 -61.1113 277.777 -250c0 -52.7773 -5.55566 -111.111 -19.4443 -172.223c-13.8887 -75 -33.333 -130.555 -52.7783 -177.777c-30.5547 -77.7773 -52.7773 -138.889 -41.666 -258.333l27.7773 -97.2227
c2.77832 -8.33301 2.77832 -13.8887 -2.77734 -22.2217c-5.55566 -8.33398 -11.1113 -11.1113 -19.4443 -13.8896c-2.77832 0 -63.8896 -11.1104 -147.223 -11.1104c-41.667 0 -91.667 2.77734 -138.889 11.1104c-8.33301 2.77832 -16.667 8.33398 -19.4443 13.8896
c-2.77832 5.55469 -5.55566 13.8887 -2.77832 22.2217l27.7783 97.2227c11.1113 122.222 -11.1113 183.333 -41.667 258.333c-16.667 47.2227 -38.8887 102.777 -52.7773 177.777c-11.1113 61.1113 -16.667 119.445 -16.667 172.223v2.77734v2.77832
c0 2.77734 16.667 83.333 88.8887 113.889c13.8887 5.55566 30.5557 8.33301 47.2227 11.1113c41.666 5.55566 61.1113 11.1113 69.4443 41.667c2.77734 13.8887 -5.55566 33.333 -8.33301 41.666c-5.55566 8.33398 -2.77832 16.667 0 25
c5.55469 8.33398 16.666 11.1113 25 11.1113zM358.333 619.444c-19.4443 -8.33301 -33.333 -25 -41.666 -41.667h377.777c-16.667 113.89 -125 150 -183.333 161.111c0 -11.1113 0 -22.2217 -2.77832 -33.333c-19.4443 -66.667 -77.7773 -75 -116.666 -80.5557
c-13.8896 0 -25 -2.77734 -33.334 -5.55566zM397.223 -138.889c83.333 -11.1113 163.889 -2.77832 208.333 0l-11.1113 44.4443c-77.7773 -13.8887 -147.222 -5.55566 -183.333 0zM677.777 388.889c8.33398 47.2227 13.8896 91.667 13.8896 133.334h-388.89
c2.77832 -41.667 8.33398 -86.1113 16.667 -133.334c11.1113 -69.4443 30.5557 -119.444 50 -166.666c27.7783 -72.2227 55.5557 -141.667 47.2227 -261.111c33.333 -5.55566 94.4443 -11.1113 163.889 0c-5.55566 119.444 19.4443 188.889 47.2217 261.111
c16.667 47.2217 36.1113 97.2217 50 166.666zM583.333 438.889c0 15.3418 12.4365 27.7783 27.7783 27.7783c15.3408 0 27.7773 -12.4365 27.7773 -27.7783c0 -15.3408 -12.4365 -27.7773 -27.7773 -27.7773c-15.3418 0 -27.7783 12.4365 -27.7783 27.7773zM500 383.333
c0 15.3418 12.4365 27.7783 27.7773 27.7783c15.3418 0 27.7783 -12.4365 27.7783 -27.7783c0 -15.3408 -12.4365 -27.7773 -27.7783 -27.7773c-15.3408 0 -27.7773 12.4365 -27.7773 27.7773zM555.556 300c0 15.3408 12.4365 27.7773 27.7773 27.7773
c15.3418 0 27.7783 -12.4365 27.7783 -27.7773s-12.4365 -27.7773 -27.7783 -27.7773c-15.3408 0 -27.7773 12.4365 -27.7773 27.7773zM500 188.889c0 15.3418 12.4365 27.7783 27.7773 27.7783c15.3418 0 27.7783 -12.4365 27.7783 -27.7783
c0 -15.3408 -12.4365 -27.7773 -27.7783 -27.7773c-15.3408 0 -27.7773 12.4365 -27.7773 27.7773z" unicode="&#xe044;"></glyph>
    <glyph glyph-name="behance-square" d="M338.889 280.556c47.2227 0 72.2227 -22.2227 75 -63.8887c0 -41.667 -25 -61.1113 -75 -61.1113h-108.333v125h108.333zM391.667 402.777c0 -36.1104 -19.4443 -55.5547 -58.334 -52.7773h-102.777v105.556h91.667c47.2217 0 69.4443 -19.4443 69.4443 -52.7783z
M894.444 697.223c33.333 -33.334 50 -72.2227 50 -119.445v-555.555c0 -44.4453 -16.667 -83.334 -50 -116.667c-30.5557 -33.333 -69.4443 -50 -116.667 -50h-555.555c-47.2227 0 -86.1113 16.667 -116.667 50c-33.333 30.5557 -50 69.4443 -50 116.667v555.555
c0 47.2227 16.667 86.1113 50 119.445c30.5557 30.5547 69.4443 47.2217 116.667 47.2217h555.555c47.2227 0 86.1113 -16.667 116.667 -47.2217zM613.889 502.777v-44.4443h183.334v44.4443h-183.334zM463.889 111.111c30.5557 22.2217 47.2227 55.5557 44.4443 97.2217
c0 61.1113 -27.7773 100 -83.333 116.667c41.667 19.4443 61.1113 50 61.1113 94.4443c0 22.2227 -2.77832 41.667 -11.1113 55.5557c-8.33301 16.667 -19.4443 27.7773 -33.333 36.1113c-13.8896 8.33301 -27.7783 13.8887 -44.4443 16.666
c-16.667 2.77832 -33.334 5.55566 -55.5557 5.55566h-213.89v-455.556h222.223c44.4443 0 83.333 11.1113 113.889 33.334zM869.444 219.444c0 5.55566 0 11.1113 5.55566 16.667c0 50 -16.667 94.4443 -44.4443 127.777c-27.7783 33.334 -66.667 50 -116.667 50
s-91.666 -16.666 -122.222 -50c-30.5557 -33.333 -47.2227 -75 -47.2227 -125c0 -52.7773 13.8887 -94.4443 44.4443 -125c30.5557 -30.5557 69.4443 -47.2217 122.223 -47.2217c80.5557 0 130.556 36.1104 155.556 111.11h-80.5557
c-5.55566 -11.1104 -13.8887 -22.2217 -27.7783 -30.5547c-13.8887 -8.33398 -30.5557 -11.1113 -44.4443 -11.1113c-27.7773 0 -44.4443 8.33301 -61.1113 22.2217c-16.666 13.8896 -22.2217 33.334 -22.2217 61.1113h238.889zM708.333 347.223
c41.667 0 66.667 -22.2227 69.4443 -72.2227h-144.444c0 22.2227 8.33398 38.8887 22.2227 52.7773c13.8887 13.8896 30.5557 19.4453 52.7773 19.4453z" unicode="&#xe045;"></glyph>
    <glyph glyph-name="behance" d="M902.777 572.223v-61.1113h-250v61.1113h250zM780.556 363.889c-30.5557 0 -52.7783 -8.33301 -72.2227 -25c-19.4443 -16.666 -27.7773 -41.666 -30.5557 -69.4443h200c-5.55469 63.8887 -38.8887 94.4443 -97.2217 94.4443zM786.111 77.7773
c19.4443 0 41.666 5.55566 58.333 16.667c16.667 11.1113 30.5557 25 36.1113 41.667h108.333c-33.333 -100 -102.777 -150 -208.333 -150c-69.4443 0 -125 22.2217 -166.667 63.8887c-41.666 41.667 -58.333 100 -58.333 169.444c0 66.667 22.2217 125 63.8887 169.444
c41.667 44.4443 97.2227 66.667 163.889 66.667c44.4443 0 83.334 -11.1113 116.667 -33.333c33.333 -22.2227 58.333 -50 75 -86.1113s25 -77.7783 25 -122.223v-22.2217h-322.223c0 -36.1113 8.33398 -63.8896 27.7783 -83.334
c19.4443 -19.4443 47.2217 -30.5557 80.5557 -30.5557zM136.111 102.777h144.444c66.667 0 100 27.7783 100 80.5557c0 58.334 -33.333 88.8896 -97.2227 88.8896h-147.222v-169.445zM136.111 363.889h136.111c25 0 44.4443 5.55566 61.1104 16.667
c16.667 11.1113 22.2227 30.5557 22.2227 55.5557c0 47.2217 -30.5557 69.4443 -91.667 69.4443h-127.777v-141.667zM0 613.889h288.889c27.7783 0 52.7783 -2.77734 75 -5.55566c22.2227 -2.77734 41.667 -11.1104 61.1113 -22.2217s33.333 -27.7783 44.4443 -47.2227
c11.1113 -19.4443 16.667 -44.4443 16.667 -75c0 -58.333 -27.7783 -102.777 -83.334 -127.777c36.1113 -11.1113 63.8896 -27.7783 83.334 -55.5557c19.4443 -27.7783 27.7773 -61.1113 27.7773 -100c0 -25 -2.77734 -47.2227 -11.1113 -66.667
c-8.33301 -19.4443 -19.4443 -36.1113 -33.333 -50c-13.8887 -13.8887 -30.5557 -25 -47.2217 -33.333c-16.667 -8.33301 -38.8896 -16.667 -58.334 -19.4443c-19.4443 -2.77832 -41.666 -5.55566 -66.666 -5.55566h-297.223v608.333z" unicode="&#xe046;"></glyph>
    </font>
</defs>
</svg>
