<?xml version="1.0" encoding="utf-8"?>
<!-- Generator: Adobe Illustrator 25.0.0, SVG Export Plug-In . SVG Version: 6.00 Build 0)  -->
<svg version="1.1" id="aix" xmlns="http://www.w3.org/2000/svg" xmlns:xlink="http://www.w3.org/1999/xlink" x="0px"
	 y="0px" viewBox="0 0 136 136" style="enable-background:new 0 0 136 136;" xml:space="preserve">
<style type="text/css">
	.st0{fill:#7DBA00;}
	.st1{fill:#4281C3;}
	.st2{fill:#FFFFFF;}
</style>
<g>
	<path class="st0" d="M68,8.7C35.3,8.7,8.7,35.3,8.7,68c0,32.8,26.5,59.3,59.3,59.3s59.3-26.5,59.3-59.3
		C127.3,35.3,100.8,8.7,68,8.7z"/>
</g>
<g>
	<g>
		<path class="st1" d="M68,0C30.4,0,0,30.4,0,68s30.4,68,68,68s68-30.4,68-68S105.6,0,68,0z M68,131.9c-35.3,0-63.9-28.6-63.9-63.9
			S32.7,4.1,68,4.1s63.9,28.6,63.9,63.9S103.3,131.9,68,131.9z"/>
	</g>
</g>
<g>
	<path class="st2" d="M43.7,49.9h-4.5L25.8,86.1h3.9h3.9l2.9-8.1h13.9l3.1,8.1h4.1h4.1L48.2,49.9H43.7z M38.7,71.8L43.5,58l4.9,13.7
		H38.7z"/>
	<polygon class="st2" points="110.3,49.9 106,49.9 101.6,49.9 92.7,62.7 83.6,49.9 79.5,49.9 75.2,49.9 88,68.3 75,86.1 79.5,86.1 
		83.6,86.1 92.7,73.6 101.8,86.1 105.6,86.1 110.2,86.1 97,67.7 	"/>
	<polygon class="st2" points="64.1,49.9 64.1,86.1 68,86.1 71.8,86.1 71.8,49.9 68,49.9 	"/>
</g>
</svg>
