<?xml version="1.0" encoding="utf-8"?>
<!-- Generator: Adobe Illustrator 25.0.0, SVG Export Plug-In . SVG Version: 6.00 Build 0)  -->
<svg version="1.1" id="hpux" xmlns="http://www.w3.org/2000/svg" xmlns:xlink="http://www.w3.org/1999/xlink" x="0px"
	 y="0px" viewBox="0 0 222 140" style="enable-background:new 0 0 222 140;" xml:space="preserve">
<style type="text/css">
	.st0{fill-rule:evenodd;clip-rule:evenodd;fill:#2360A5;}
    .st1{fill-rule:evenodd;clip-rule:evenodd;fill:#2360A5;}
</style>
<path class="st0" d="M1,15.1v103.6C1,131.4,5.8,138,17.2,138h69.5l3.1-9.6C60.5,118.8,46.1,93,46.1,68.5C46.1,40.9,64,20,86.8,10.3
	l3-8.3H15.5C8.9,2,1,8.6,1,15.1z M221,15.1C221,8.6,214.4,2,207.9,2h-88.8l-3.5,8.3c38.9,1.7,59.9,30.6,59.9,58.2
	c0,24.5-17.9,58.2-55.1,59.9l-4.8,9.6h90.5c10,0,14.9-6.6,14.9-19.2V15.1L221,15.1z"/>
<g>
	<path class="st1" d="M99.4,94.3c0,0,14.9-41.9,15.2-43.6c0.8-4.5-3.8-8-8.6-8h-9.6L110.8,2H96.3L64,94.3l13.5,0.1l15.3-43.8h8.3
		L85,94.3H99.4z"/>
	<path class="st1" d="M152.7,42.6c-4.8-0.1-25.7,0.1-25.7,0.1L94.6,138H109l13.1-42h16.2c6.6,0,8.1-4.4,9.8-9.4
		c1.3-3.5,11.8-34.5,12.2-36.2C161.3,46.8,158.3,42.7,152.7,42.6z M133.5,89.4l-8.3,0.1l13.1-39.1l8.3,0.1L133.5,89.4z"/>
</g>
</svg>
