<?xml version="1.0" encoding="iso-8859-1"?>
<!-- Generator: Adobe Illustrator 16.0.0, SVG Export Plug-In . SVG Version: 6.00 Build 0)  -->
<!DOCTYPE svg PUBLIC "-//W3C//DTD SVG 1.1//EN" "http://www.w3.org/Graphics/SVG/1.1/DTD/svg11.dtd">
<svg version="1.1" id="Layer_1" xmlns="http://www.w3.org/2000/svg" xmlns:xlink="http://www.w3.org/1999/xlink" x="0px" y="0px"
	 width="23.104px" height="27.153px" viewBox="0 0 23.104 27.153" style="enable-background:new 0 0 23.104 27.153;"
	 xml:space="preserve">
<g>
	<g>
		<path style="fill:#1D1D1B;" d="M15.297,22.465c0.055-0.538,0.047-1.209,0.047-1.799c0-0.749,0.012-1.387,0.174-1.479
			c0.287-0.184,0.35-0.197,0.693-0.197c0.342,0,0.498,0.024,0.609,0.136c0.104,0.105,0.068,0.35,0.027,0.702
			c-0.031,0.349,0.131,0.458,0.295,0.605c0.166,0.135,0.318,0.31,0.842,0.354c0.525,0.036,0.719-0.048,0.965-0.205
			c0.246-0.149,0.592-0.434,0.721-0.592c0.123-0.157,0.43-0.69,0.488-0.69c0.031,0,0.178-0.036,0.33-0.005
			c0.154-0.367,0.285-0.711,0.352-0.985c0.406-1.647-0.863-4.493-2.086-6.223c-1.215-1.724-2.215-2.798-2.707-4.976
			c-0.498-2.186,0.123-1.554-0.314-3.464c-0.215-0.952-0.594-1.708-1.02-2.202c-0.42-0.51-0.984-0.795-1.264-0.943
			c-0.648-0.35-2.285-0.957-4.24,0.059C7.157,1.629,7.424,3.939,7.76,8.568c0.086,1.241-1.109,2.07-2.139,3.702
			c-1.029,1.626-1.141,2.952-1.924,4.293c-0.742,1.278-0.643,1.214-0.375,2.282c0.232-0.224,0.465-0.398,0.838-0.389
			c0.551,0.017,1.514,1.396,1.998,2.154c0.49,0.766,0.605,0.982,1.34,2.143c0.73,1.16,1.305,1.428,1.301,2.434
			c0.008,0.883-0.127,0.814-0.564,1.184c0.121,0.045,0.232,0.064,0.322,0.023c1.131-0.51,0.74-0.352,2.541-0.457
			c1.76-0.104,2.285-0.184,3.92,0.246c-0.08-0.25-0.135-0.553-0.121-0.918C14.917,24.461,15.176,23.721,15.297,22.465z"/>
	</g>
	<path style="fill-rule:evenodd;clip-rule:evenodd;fill:#FFFFFF;" d="M9.338,6.912c0.318-0.129,0.268-0.146,0.482-0.609
		c0.168-0.359,0.318-0.514,0.316-1.057c0-0.538-0.17-0.717-0.42-1.065C9.477,3.852,9.092,3.832,8.85,3.873
		c-0.137,0.025-0.318,0.2-0.445,0.465c-0.08,0.174-0.143,0.398-0.148,0.633C8.243,5.604,8.295,5.843,8.44,6.273
		C8.612,6.775,9.026,7.035,9.338,6.912L9.338,6.912L9.338,6.912z"/>
	<path style="fill-rule:evenodd;clip-rule:evenodd;fill:#1D1D1B;" d="M9.038,4.736c0.16,0,0.365,0.108,0.463,0.252
		c0.1,0.145,0.174,0.348,0.174,0.578c0,0.344-0.035,0.723-0.24,0.838C9.37,6.443,9.231,6.47,9.151,6.47
		c-0.182,0-0.199-0.114-0.367-0.292C8.719,6.114,8.547,5.805,8.547,5.549c0-0.162-0.035-0.391,0.102-0.597
		C8.745,4.805,8.872,4.736,9.038,4.736L9.038,4.736L9.038,4.736z"/>
	<path style="fill-rule:evenodd;clip-rule:evenodd;fill:#B7B6B7;" d="M9.075,5.102c0.049-0.068,0.238-0.033,0.305,0.115
		c0.068,0.149,0.055,0.473,0.006,0.49C9.264,5.74,9.301,5.562,9.192,5.4C9.086,5.248,9.03,5.177,9.075,5.102L9.075,5.102
		L9.075,5.102z"/>
	<path style="fill-rule:evenodd;clip-rule:evenodd;fill:#FFFFFF;" d="M12.651,6.977c0.801-0.085,1.088-0.396,1.227-0.934
		c0.127-0.481,0.133-1.012-0.221-1.627c-0.334-0.58-0.523-0.67-1.006-0.709c-0.742-0.062-1.105,0.437-1.275,0.807
		c-0.17,0.393-0.141,0.352-0.127,0.858c0.012,0.54,0.316,0.685,0.504,1.02C11.94,6.724,12.565,6.986,12.651,6.977L12.651,6.977
		L12.651,6.977z"/>
	<path style="fill-rule:evenodd;clip-rule:evenodd;fill:#1D1D1B;" d="M12.588,4.713c0.4,0,0.635,0.359,0.715,0.819
		c0.031,0.208-0.016,0.451-0.146,0.614c-0.141,0.195-0.398,0.311-0.605,0.311c-0.197,0-0.422,0.035-0.541-0.129
		c-0.115-0.161-0.145-0.535-0.145-0.796c0-0.294,0.084-0.501,0.234-0.667C12.211,4.74,12.415,4.713,12.588,4.713L12.588,4.713
		L12.588,4.713z"/>
	<path style="fill-rule:evenodd;clip-rule:evenodd;fill:#B7B6B7;" d="M12.672,4.967c0.045-0.041,0.133,0,0.234,0.113
		c0.109,0.117,0.113,0.211,0.027,0.277c-0.08,0.067-0.117-0.103-0.17-0.166C12.668,5.092,12.584,5.047,12.672,4.967L12.672,4.967
		L12.672,4.967z"/>
	<path style="fill-rule:evenodd;clip-rule:evenodd;fill:#FFFFFF;" d="M10.19,9.69C9.512,9.72,8.493,7.846,8.434,8.535
		C8.405,9.119,8.426,9.121,8.405,9.703c-0.025,0.422-0.246,0.527-0.654,1.158c-0.223,0.355-0.373,0.723-0.48,1.086
		c-0.043,0.259-0.014,0.486-0.082,0.705c-0.033,0.134-0.182,0.23-0.279,0.41c-0.289,0.787-1.02,1.781-1.193,2.549
		c-0.186,0.806-0.404,1.314-0.369,2.382c0.027,0.97,0.016,0.735,0.338,1.013c0.314,0.27,0.662,0.538,1.166,0.984
		c0.531,0.461,1.662,1.279,1.812,1.527c0.156,0.252,0.164,0.854,0.066,1.037c-0.092,0.18-0.932,0.295-0.926,0.295
		c-0.006,0,0.723,0.99,0.867,1.137c0.137,0.135,0.73,0.794,3.156,0.342c1.377-0.26,2.5-1.012,3.182-1.777
		c0.859-0.907,0.373-1.241,0.5-1.721c0.186-0.7,0.916-0.965,1.057-1.752c0.016-0.11,0.059-0.194,0.16-0.357
		c0.156-0.244,0.113-0.704,0.119-1.129c0.014-1.122-0.127-2.246-0.381-3.066c-0.236-0.777-0.609-1.322-0.926-2.023
		c-0.639-1.398-0.613-2.031-1.188-2.923c-0.609-0.956-0.361-1.578-1.174-1.528C12.137,8.117,12.401,9.786,10.19,9.69L10.19,9.69
		L10.19,9.69z"/>
	<path style="fill-rule:evenodd;clip-rule:evenodd;fill:#FFCE06;" d="M10.602,5.82c0.381-0.047,0.9,0.047,1.139,0.223
		c0.223,0.166,0.377,0.254,0.58,0.319C13,6.589,13.909,6.697,13.87,7.308c-0.043,0.731-0.295,1.05-0.9,1.244
		c-0.486,0.149-1.361,0.937-2.037,0.956c-0.324,0.016-0.713,0.02-0.957-0.064C9.745,9.361,9.409,8.959,9.03,8.643
		C8.649,8.334,8.28,8.039,8.297,7.614c0.006-0.427,0.279-0.604,0.701-0.971c0.221-0.192,0.604-0.553,0.885-0.704
		C10.137,5.805,10.334,5.85,10.602,5.82L10.602,5.82L10.602,5.82z"/>
	<path style="fill-rule:evenodd;clip-rule:evenodd;fill:#B45F27;" d="M10.999,6.169c0.035,0.077,0.131,0.085,0.195,0.12
		c0.062,0.035,0.092,0.043,0.117,0.031c0.053-0.031,0.014-0.124-0.037-0.158C11.225,6.127,10.977,6.12,10.999,6.169L10.999,6.169
		L10.999,6.169z"/>
	<path style="fill-rule:evenodd;clip-rule:evenodd;fill:#B45F27;" d="M9.754,6.32C9.739,6.355,9.827,6.414,9.874,6.371
		c0.051-0.039,0.107-0.078,0.129-0.092c0.092-0.061,0.055-0.102-0.092-0.077C9.768,6.226,9.768,6.289,9.754,6.32L9.754,6.32
		L9.754,6.32z"/>
	<g>
		<path style="fill-rule:evenodd;clip-rule:evenodd;fill:#FFCD05;" d="M22.583,22.335c-0.303-0.181-1.096-0.819-1.496-1.447
			c-0.236-0.386,0.104-1.012-0.227-1.492c-0.199-0.288-0.553-0.168-0.605-0.168c-0.057,0-0.365,0.533-0.486,0.69
			c-0.129,0.158-0.475,0.442-0.721,0.593c-0.246,0.157-0.441,0.24-0.965,0.204c-0.523-0.044-0.676-0.219-0.842-0.354
			c-0.164-0.147-0.326-0.257-0.295-0.605c0.041-0.353,0.076-0.597-0.027-0.702c-0.111-0.111-0.268-0.135-0.609-0.135
			c-0.344,0-0.406,0.013-0.693,0.196c-0.162,0.093-0.174,0.73-0.174,1.479c0,0.59,0.008,1.261-0.047,1.799
			c-0.121,1.256-0.381,1.997-0.402,2.801c-0.025,0.816,0.25,1.361,0.494,1.573c0.242,0.219,0.602,0.387,1.398,0.387
			c0.799,0,1.293-0.177,1.818-0.701c0.338-0.341,0.693-0.65,1.732-1.362c0.82-0.563,2.062-1.177,2.309-1.424
			c0.123-0.12,0.342-0.238,0.359-0.688C23.114,22.592,22.803,22.461,22.583,22.335z"/>
		<path style="fill-rule:evenodd;clip-rule:evenodd;fill:#FFCD05;" d="M6.256,20.54c-0.484-0.76-1.447-2.138-1.998-2.155
			c-0.436-0.011-0.682,0.225-0.955,0.504c-0.273,0.273-0.602,1.018-1.076,1.373c-0.467,0.352-1.637,0.243-2.006,0.689
			c-0.312,0.398,0.02,0.977,0.006,2.065c-0.004,0.462-0.09,0.798-0.152,1.111c-0.08,0.36-0.127,0.606,0.025,0.858
			c0.285,0.459,0.73,0.488,3.232,1.01c1.338,0.279,2.523,0.98,3.426,1.027c0.809,0.053,0.982-0.199,1.488-0.65
			c0.51-0.463,0.658-0.316,0.65-1.258c0.004-1.005-0.572-1.273-1.301-2.434C6.862,21.521,6.745,21.306,6.256,20.54z"/>
	</g>
	<path style="fill-rule:evenodd;clip-rule:evenodd;fill:#BB6D29;" d="M13.401,7.295v0.042c-0.035,0.059-0.203,0.105-0.418,0.295
		c-0.262,0.166-0.346,0.249-0.682,0.433c-0.398,0.21-1.193,0.659-2.104,0.676C9.684,8.688,9.292,8.592,9.188,8.52
		C9.004,8.415,8.823,8.311,8.67,8.199V8.088c0.113,0.066,0.252,0.166,0.367,0.246c0.314,0.23,0.707,0.344,1.074,0.371
		c0.879,0.092,2.371-0.725,2.518-0.894C12.971,7.564,13.274,7.331,13.401,7.295L13.401,7.295z"/>
	<path style="fill-rule:evenodd;clip-rule:evenodd;fill:#A85926;" d="M13.401,7.295v0.042c-0.035,0.059-0.203,0.105-0.418,0.295
		c-0.262,0.166-0.346,0.249-0.682,0.433c-0.398,0.21-1.193,0.659-2.104,0.676C9.772,8.697,9.422,8.623,9.264,8.555V8.471
		c0.26,0.14,0.562,0.217,0.848,0.234c0.879,0.092,2.371-0.725,2.518-0.894C12.971,7.564,13.274,7.331,13.401,7.295L13.401,7.295z"/>
	<path style="fill-rule:evenodd;clip-rule:evenodd;fill:#833525;" d="M13.401,7.295v0.042c-0.035,0.059-0.203,0.105-0.418,0.295
		c-0.262,0.166-0.346,0.249-0.682,0.433c-0.328,0.178-0.938,0.517-1.66,0.633V8.674c0.852-0.154,1.871-0.726,1.988-0.862
		C12.971,7.564,13.274,7.331,13.401,7.295L13.401,7.295z"/>
</g>
</svg>
