<?xml version="1.0" encoding="utf-8"?>
<!-- Generator: Adobe Illustrator 25.0.0, SVG Export Plug-In . SVG Version: 6.00 Build 0)  -->
<svg version="1.1" id="linux" xmlns="http://www.w3.org/2000/svg" xmlns:xlink="http://www.w3.org/1999/xlink" x="0px" y="0px"
	 viewBox="0 0 112 136" style="enable-background:new 0 0 112 136;" xml:space="preserve">
<style type="text/css">
	.st0{fill:#202020;}
	.st1{fill:#FFCD00;}
	.st2{fill:#FFFFFF;}
</style>
<path class="st0" d="M107.8,106.8C107.8,106.8,107.8,106.8,107.8,106.8c-1-1.1-1.4-3.1-1.9-5.2c-0.5-2.1-1-4.4-2.8-5.9c0,0,0,0,0,0
	c-0.3-0.3-0.7-0.6-1.1-0.8c-0.4-0.2-0.7-0.4-1.1-0.5c2.4-7.2,1.5-14.4-1-20.9c-3-8-8.3-14.9-12.3-19.7c-4.5-5.7-8.9-11.1-8.8-19
	C78.9,22.6,80.2,0,58.8,0C57.9,0,57,0,56,0.1C32.1,2,38.5,27.3,38.1,35.7c-0.4,6.2-1.7,11.1-5.9,17.1c-5,5.9-12,15.6-15.4,25.6
	c-1.6,4.7-2.3,9.5-1.6,14.1c-0.2,0.2-0.4,0.4-0.6,0.6c-1.5,1.6-2.6,3.5-3.8,4.7C9.7,99,8.1,99.4,6.3,100c-1.8,0.6-3.7,1.6-4.9,3.8
	c0,0,0,0,0,0c0,0,0,0,0,0c-0.6,1-0.7,2.1-0.7,3.3c0,1,0.2,2.1,0.3,3.1c0.3,2.1,0.7,4.1,0.2,5.5c-1.4,3.8-1.6,6.5-0.6,8.4
	c1,1.9,3,2.8,5.3,3.2c4.6,1,10.8,0.7,15.7,3.3l0.4-0.8l-0.4,0.8c5.2,2.7,10.6,3.7,14.8,2.7c3.1-0.7,5.6-2.5,6.8-5.3
	c3.3,0,7-1.4,12.8-1.7c4-0.3,8.9,1.4,14.6,1.1c0.1,0.6,0.4,1.2,0.7,1.8c0,0,0,0,0,0c2.2,4.4,6.3,6.4,10.7,6.1
	c4.4-0.3,9-2.9,12.8-7.4l-0.7-0.6l0.7,0.6c3.6-4.3,9.5-6.1,13.5-8.5c2-1.2,3.6-2.7,3.7-4.8C112,112.5,110.7,110,107.8,106.8"/>
<path class="st1" d="M110,114.5c-0.1,1.3-1,2.3-2.8,3.4c-3.6,2.1-9.9,4-13.9,8.9c-3.5,4.2-7.8,6.5-11.5,6.7c-3.8,0.3-7-1.3-8.9-5.1
	l0,0l0,0c-1.2-2.3-0.7-5.8,0.3-9.6c1-3.8,2.4-7.6,2.6-10.7v0c0.2-4,0.4-7.5,1.1-10.2c0.7-2.7,1.7-4.5,3.6-5.6c0.1,0,0.2-0.1,0.3-0.1
	c0.2,3.5,1.9,7,5,7.8c3.3,0.9,8.1-2,10.2-4.3c0.4,0,0.8,0,1.2,0c1.8,0,3.3,0.1,4.8,1.4l0,0l0,0c1.2,1,1.7,2.9,2.2,5
	c0.5,2.1,0.9,4.4,2.3,6l0,0l0,0C109.2,111.1,110.1,113.2,110,114.5"/>
<path class="st1" d="M42.4,124.4L42.4,124.4L42.4,124.4c-0.3,4.2-2.7,6.5-6.4,7.4c-3.7,0.8-8.6,0-13.6-2.6c0,0,0,0,0,0
	c-5.5-2.9-12-2.6-16.2-3.5c-2.1-0.4-3.5-1.1-4.1-2.3c-0.6-1.2-0.6-3.3,0.7-7l0,0l0,0c0.7-2,0.2-4.2-0.1-6.3c-0.3-2.1-0.5-4,0.2-5.3
	l0,0c0.9-1.8,2.2-2.4,3.9-3c1.7-0.6,3.6-1.1,5.2-2.6l0,0l0,0c1.4-1.5,2.5-3.4,3.8-4.8c1.1-1.1,2.1-1.9,3.7-1.9c0,0,0,0,0.1,0
	c0.3,0,0.6,0,0.9,0.1c2.1,0.3,4,1.8,5.8,4.2l5.2,9.4l0,0l0,0c1.4,2.9,4.3,6,6.7,9.2C40.7,118.6,42.6,121.9,42.4,124.4"/>
<path class="st1" d="M68.1,36.6c-0.4-0.8-1.3-1.6-2.7-2.2l0,0l0,0c-3-1.3-4.3-1.4-6-2.5c-2.7-1.8-5-2.4-6.8-2.4
	c-1,0-1.9,0.2-2.6,0.4c-2.3,0.8-3.8,2.4-4.7,3.3l0,0c0,0,0,0,0,0c-0.2,0.2-0.4,0.3-1,0.8c-0.6,0.4-1.5,1.1-2.7,2
	c-1.1,0.8-1.5,1.9-1.1,3.2c0.4,1.3,1.6,2.8,3.9,4l0,0l0,0c1.4,0.8,2.4,1.9,3.5,2.8c0.6,0.4,1.1,0.8,1.8,1.1c0.7,0.3,1.5,0.5,2.5,0.6
	c2.4,0.1,4.2-0.6,5.7-1.5c1.6-0.9,2.9-2,4.4-2.5l0,0l0,0c3.1-1,5.3-2.9,6-4.8C68.6,38.3,68.6,37.4,68.1,36.6"/>
<path class="st0" d="M60.3,41.1c-2.5,1.3-5.4,2.8-8.4,2.8c-3.1,0-5.5-1.4-7.2-2.8c-0.9-0.7-1.6-1.4-2.1-1.9
	c-0.9-0.7-0.8-1.8-0.4-1.7c0.6,0.1,0.7,0.9,1.1,1.3c0.5,0.5,1.2,1.2,2,1.8c1.6,1.3,3.8,2.6,6.6,2.6c2.7,0,6-1.6,7.9-2.7
	c1.1-0.6,2.5-1.7,3.7-2.6c0.9-0.6,0.8-1.4,1.6-1.3c0.7,0.1,0.2,0.9-0.8,1.8C63.2,39.3,61.6,40.5,60.3,41.1"/>
<path class="st2" d="M98.1,93.8c-0.3,0-0.7,0-1,0c0,0-0.1,0-0.1,0c0.8-2.7-1-4.7-6-6.9c-5.2-2.3-9.3-2.1-10,2.6
	c0,0.2-0.1,0.5-0.1,0.7c-0.4,0.1-0.8,0.3-1.2,0.5c-2.4,1.3-3.8,3.7-4.5,6.7c-0.7,3-1,6.5-1.2,10.6v0c-0.1,2-1,4.8-1.8,7.7
	c-8.5,6.1-20.3,8.7-30.3,1.9c-0.7-1.1-1.5-2.1-2.3-3.2c-0.5-0.7-1-1.3-1.6-2c1,0,1.9-0.2,2.6-0.5c0.9-0.4,1.5-1,1.8-1.9
	c0.6-1.6,0-4-2-6.6c-2-2.6-5.3-5.6-10.1-8.6v0c-3.6-2.2-5.6-4.9-6.5-7.9c-0.9-3-0.8-6.2-0.1-9.3c1.4-6.1,4.9-11.9,7.2-15.6
	c0.6-0.4,0.2,0.8-2.3,5.5c-2.2,4.3-6.5,14.1-0.7,21.8c0.2-5.5,1.5-11,3.7-16.3c3.2-7.2,9.9-19.8,10.4-29.8c0.3,0.2,1.2,0.8,1.6,1.1
	c0,0,0,0,0,0C45,45,45.9,46,47.1,47c1.2,1,2.7,1.8,4.9,1.9c0.2,0,0.4,0,0.6,0c2.3,0,4.1-0.8,5.6-1.6c1.6-0.9,3-2,4.2-2.4
	c0,0,0,0,0,0c2.6-0.8,4.7-2.3,5.9-4c2,8,6.8,19.6,9.8,25.3c1.6,3,4.8,9.4,6.2,17.1c0.9,0,1.9,0.1,2.9,0.4c3.6-9.4-3.1-19.6-6.2-22.4
	c-1.2-1.2-1.3-1.7-0.7-1.7c3.3,3,7.7,8.9,9.3,15.6c0.7,3.1,0.9,6.3,0.1,9.4c0.4,0.2,0.8,0.3,1.2,0.5C96.9,88,99.1,90.4,98.1,93.8"/>
<path class="st2" d="M68.4,27.3c0,1.6-0.3,2.9-0.9,4.3c-0.3,0.8-0.7,1.5-1.2,2c-0.2-0.1-0.3-0.2-0.5-0.2c-0.6-0.3-1.1-0.5-1.6-0.6
	c-0.5-0.2-0.8-0.3-1.2-0.4c0.3-0.3,0.8-0.7,1-1.2c0.3-0.8,0.5-1.5,0.5-2.4c0,0,0-0.1,0-0.1c0-0.8-0.1-1.6-0.3-2.3
	c-0.3-0.8-0.6-1.3-1.1-1.8c-0.5-0.5-0.9-0.7-1.5-0.7c0,0-0.1,0-0.1,0c-0.5,0-1,0.2-1.5,0.6c-0.5,0.4-0.9,1-1.2,1.7
	c-0.3,0.7-0.5,1.5-0.5,2.4c0,0,0,0.1,0,0.1c0,0.5,0,0.9,0.1,1.4c-1.1-0.5-2.5-0.9-3.4-1.2C55,28.4,55,28,55,27.6v-0.1
	c0-1.6,0.2-3,0.9-4.3c0.6-1.4,1.4-2.4,2.4-3.2c1.1-0.8,2.1-1.2,3.4-1.2h0.1c1.2,0,2.2,0.4,3.3,1.1c1.1,0.8,1.9,1.8,2.5,3.1
	c0.6,1.3,0.9,2.6,0.9,4.2C68.4,27.2,68.4,27.3,68.4,27.3"/>
<path class="st2" d="M50.1,28.9c-0.2,0-0.3,0.1-0.5,0.1c-0.9,0.3-1.6,0.6-2.2,1.1c0.1-0.5,0.1-0.9,0-1.5c0,0,0-0.1,0-0.1
	c-0.1-0.7-0.2-1.3-0.5-1.9c-0.3-0.6-0.6-1-0.9-1.4c-0.3-0.3-0.7-0.4-1-0.4c0,0-0.1,0-0.1,0c-0.4,0-0.7,0.2-1.1,0.6
	c-0.3,0.4-0.5,0.9-0.7,1.5c-0.2,0.6-0.2,1.3-0.1,2c0,0,0,0.1,0,0.1c0.1,0.7,0.2,1.3,0.5,1.9c0.3,0.6,0.6,1,0.9,1.4
	c0.1,0.1,0.1,0.1,0.2,0.2c-0.4,0.3-0.7,0.5-1,0.8c-0.2,0.2-0.5,0.3-0.7,0.6c-0.6-0.6-1.1-1.3-1.6-2.3c-0.5-1.2-0.8-2.3-0.9-3.7v0
	c-0.1-1.4,0.1-2.6,0.4-3.8c0.4-1.2,0.9-2.1,1.6-2.8c0.7-0.7,1.5-1.1,2.4-1.1c0.1,0,0.1,0,0.2,0c0.8,0,1.5,0.3,2.3,0.9
	c0.8,0.6,1.4,1.5,1.9,2.6c0.5,1.2,0.8,2.3,0.9,3.7v0C50.1,27.8,50.1,28.4,50.1,28.9"/>
<path class="st0" d="M54.1,32.2c0.1,0.3,0.6,0.3,0.9,0.4c0.3,0.1,0.5,0.4,0.8,0.4c0.3,0,0.7-0.1,0.8-0.4c0.1-0.4-0.5-0.6-0.9-0.8
	c-0.5-0.2-1-0.3-1.5,0C54.2,31.9,54.1,32.1,54.1,32.2"/>
<path class="st0" d="M51,32.2c-0.1,0.3-0.6,0.3-0.9,0.4c-0.3,0.1-0.5,0.4-0.8,0.4c-0.3,0-0.7-0.1-0.8-0.4c0-0.4,0.5-0.6,0.9-0.8
	c0.5-0.2,1-0.3,1.5,0C51,31.9,51.1,32.1,51,32.2"/>
</svg>
